<svg width="32" height="32" viewBox="0 0 32 32" fill="none" xmlns="http://www.w3.org/2000/svg">
<g opacity="0.3">
<path d="M16 17.5C16.8284 17.5 17.5 16.8284 17.5 16C17.5 15.1716 16.8284 14.5 16 14.5C15.1716 14.5 14.5 15.1716 14.5 16C14.5 16.8284 15.1716 17.5 16 17.5Z" fill="#2F1155"/>
<path d="M16 3C8.83187 3 3 8.83187 3 16C3 23.1681 8.83187 29 16 29C23.1681 29 29 23.1681 29 16C29 8.83187 23.1681 3 16 3ZM22.5669 10.0831L19.6369 17.4081C19.4357 17.9112 19.1344 18.3682 18.7513 18.7513C18.3682 19.1344 17.9112 19.4357 17.4081 19.6369L10.0831 22.5669C9.99226 22.6032 9.89272 22.6121 9.79684 22.5925C9.70097 22.5728 9.61297 22.5254 9.54377 22.4562C9.47456 22.387 9.42719 22.299 9.40752 22.2032C9.38785 22.1073 9.39675 22.0077 9.43312 21.9169L12.3631 14.5919C12.5643 14.0888 12.8656 13.6318 13.2487 13.2487C13.6318 12.8656 14.0888 12.5643 14.5919 12.3631L21.9169 9.43312C22.0077 9.39675 22.1073 9.38785 22.2032 9.40752C22.299 9.42719 22.387 9.47456 22.4562 9.54377C22.5254 9.61297 22.5728 9.70097 22.5925 9.79684C22.6121 9.89272 22.6032 9.99226 22.5669 10.0831Z" fill="#2F1155"/>
</g>
</svg>
