<svg width="266" height="49" viewBox="0 0 266 49" fill="none" xmlns="http://www.w3.org/2000/svg">
<rect x="19" y="6" width="225" height="10" fill="#D9D9D9"/>
<rect x="19" y="8" width="127" height="6" rx="3" fill="url(#paint0_linear_182_5019)"/>
<ellipse cx="20" cy="11.5" rx="11" ry="11.5" fill="#D9D9D9"/>
<ellipse cx="20" cy="11.5" rx="8" ry="8.36364" fill="#9038FF"/>
<ellipse cx="20" cy="11.5" rx="5" ry="5.22727" fill="white"/>
<ellipse cx="94" cy="11.5" rx="11" ry="11.5" fill="#D9D9D9"/>
<ellipse cx="94" cy="11.5" rx="8" ry="8.36364" fill="#5B259F"/>
<ellipse cx="94" cy="11.5" rx="5" ry="5.22727" fill="white"/>
<ellipse cx="168" cy="11.5" rx="11" ry="11.5" fill="#D9D9D9"/>
<ellipse cx="168" cy="11.5" rx="8" ry="8.36364" fill="#2F1155"/>
<ellipse cx="168" cy="11.5" rx="5" ry="5.22727" fill="white"/>
<circle cx="242" cy="11" r="11" fill="#D9D9D9"/>
<circle cx="242" cy="11" r="5" fill="white"/>
<path d="M1.77828 34.99C1.83828 34.99 1.90161 35.0067 1.96828 35.04C2.04161 35.0733 2.09828 35.1167 2.13828 35.17L4.78828 39.18L4.43828 39.17L7.11828 35.17C7.20495 35.0433 7.31828 34.9833 7.45828 34.99C7.56495 34.9967 7.65828 35.0367 7.73828 35.11C7.81828 35.1833 7.85828 35.28 7.85828 35.4V41.59C7.85828 41.7033 7.81828 41.8 7.73828 41.88C7.65828 41.96 7.55828 42 7.43828 42C7.31828 42 7.21828 41.96 7.13828 41.88C7.05828 41.8 7.01828 41.7033 7.01828 41.59V36.16L7.26828 36.21L4.90828 39.8C4.86828 39.8467 4.81828 39.8867 4.75828 39.92C4.70495 39.9533 4.64828 39.97 4.58828 39.97C4.52828 39.97 4.46828 39.9533 4.40828 39.92C4.34828 39.8867 4.29828 39.8467 4.25828 39.8L1.92828 36.21L2.13828 35.95V41.59C2.13828 41.7033 2.10161 41.8 2.02828 41.88C1.95495 41.96 1.86161 42 1.74828 42C1.63495 42 1.54161 41.96 1.46828 41.88C1.40161 41.8 1.36828 41.7033 1.36828 41.59V35.4C1.36828 35.2933 1.40495 35.2 1.47828 35.12C1.55828 35.0333 1.65828 34.99 1.77828 34.99ZM11.8605 42.1C11.3271 42.1 10.8605 41.9867 10.4605 41.76C10.0605 41.5333 9.74714 41.2233 9.52047 40.83C9.30047 40.43 9.19047 39.97 9.19047 39.45C9.19047 38.87 9.3038 38.3767 9.53047 37.97C9.7638 37.5567 10.0638 37.2433 10.4305 37.03C10.8038 36.81 11.1971 36.7 11.6105 36.7C11.9171 36.7 12.2138 36.7567 12.5005 36.87C12.7871 36.9833 13.0405 37.15 13.2605 37.37C13.4805 37.5833 13.6571 37.8433 13.7905 38.15C13.9238 38.45 13.9938 38.7867 14.0005 39.16C14.0005 39.2667 13.9605 39.3567 13.8805 39.43C13.8005 39.5033 13.7071 39.54 13.6005 39.54H9.65047L9.47047 38.85H13.3205L13.1605 38.99V38.77C13.1338 38.4967 13.0405 38.2633 12.8805 38.07C12.7271 37.87 12.5371 37.7167 12.3105 37.61C12.0905 37.5033 11.8571 37.45 11.6105 37.45C11.4105 37.45 11.2105 37.4867 11.0105 37.56C10.8171 37.6267 10.6405 37.74 10.4805 37.9C10.3271 38.0533 10.2005 38.2533 10.1005 38.5C10.0071 38.7467 9.96047 39.0433 9.96047 39.39C9.96047 39.7767 10.0371 40.1167 10.1905 40.41C10.3505 40.7033 10.5705 40.9367 10.8505 41.11C11.1305 41.2767 11.4571 41.36 11.8305 41.36C12.0638 41.36 12.2671 41.33 12.4405 41.27C12.6138 41.21 12.7638 41.1367 12.8905 41.05C13.0171 40.9567 13.1238 40.8633 13.2105 40.77C13.2971 40.71 13.3805 40.68 13.4605 40.68C13.5605 40.68 13.6405 40.7133 13.7005 40.78C13.7671 40.8467 13.8005 40.9267 13.8005 41.02C13.8005 41.1333 13.7471 41.2333 13.6405 41.32C13.4538 41.5267 13.2005 41.71 12.8805 41.87C12.5605 42.0233 12.2205 42.1 11.8605 42.1ZM17.6729 36.75C18.1262 36.75 18.4929 36.8667 18.7729 37.1C19.0596 37.3267 19.2496 37.65 19.3429 38.07H19.1929L19.2629 37.89C19.3429 37.7033 19.4796 37.5233 19.6729 37.35C19.8662 37.1767 20.0896 37.0333 20.3429 36.92C20.5962 36.8067 20.8596 36.75 21.1329 36.75C21.5729 36.75 21.9196 36.8467 22.1729 37.04C22.4262 37.2267 22.6062 37.48 22.7129 37.8C22.8262 38.1133 22.8829 38.4667 22.8829 38.86V41.59C22.8829 41.7033 22.8429 41.8 22.7629 41.88C22.6896 41.96 22.5962 42 22.4829 42C22.3629 42 22.2662 41.96 22.1929 41.88C22.1196 41.8 22.0829 41.7033 22.0829 41.59V38.88C22.0829 38.62 22.0429 38.3867 21.9629 38.18C21.8896 37.9667 21.7662 37.8 21.5929 37.68C21.4262 37.5533 21.1962 37.49 20.9029 37.49C20.6296 37.49 20.3796 37.5533 20.1529 37.68C19.9262 37.8 19.7462 37.9667 19.6129 38.18C19.4796 38.3867 19.4129 38.62 19.4129 38.88V41.59C19.4129 41.7033 19.3762 41.8 19.3029 41.88C19.2296 41.96 19.1329 42 19.0129 42C18.8996 42 18.8029 41.96 18.7229 41.88C18.6496 41.8 18.6129 41.7033 18.6129 41.59V38.85C18.6129 38.5967 18.5762 38.37 18.5029 38.17C18.4362 37.9633 18.3196 37.8 18.1529 37.68C17.9862 37.5533 17.7562 37.49 17.4629 37.49C17.1962 37.49 16.9529 37.5533 16.7329 37.68C16.5129 37.8 16.3362 37.9633 16.2029 38.17C16.0696 38.37 16.0029 38.5967 16.0029 38.85V41.59C16.0029 41.7033 15.9629 41.8 15.8829 41.88C15.8096 41.96 15.7162 42 15.6029 42C15.4896 42 15.3929 41.96 15.3129 41.88C15.2396 41.8 15.2029 41.7033 15.2029 41.59V37.23C15.2029 37.1167 15.2396 37.0233 15.3129 36.95C15.3929 36.87 15.4896 36.83 15.6029 36.83C15.7229 36.83 15.8196 36.87 15.8929 36.95C15.9662 37.0233 16.0029 37.1167 16.0029 37.23V37.99L15.7829 38.23C15.8096 38.0567 15.8762 37.8833 15.9829 37.71C16.0962 37.5367 16.2396 37.3767 16.4129 37.23C16.5862 37.0833 16.7796 36.9667 16.9929 36.88C17.2062 36.7933 17.4329 36.75 17.6729 36.75ZM26.913 36.7C27.3664 36.7 27.773 36.8167 28.133 37.05C28.493 37.2767 28.7764 37.59 28.983 37.99C29.1964 38.39 29.303 38.8533 29.303 39.38C29.303 39.9067 29.1964 40.3733 28.983 40.78C28.7764 41.1867 28.493 41.51 28.133 41.75C27.7797 41.9833 27.3797 42.1 26.933 42.1C26.6864 42.1 26.453 42.0633 26.233 41.99C26.0197 41.91 25.823 41.8067 25.643 41.68C25.4697 41.5467 25.323 41.4033 25.203 41.25C25.083 41.09 24.9964 40.9333 24.943 40.78L25.163 40.64V41.64C25.163 41.7533 25.1264 41.85 25.053 41.93C24.9797 42.01 24.883 42.05 24.763 42.05C24.6497 42.05 24.553 42.0133 24.473 41.94C24.3997 41.86 24.363 41.76 24.363 41.64V35.01C24.363 34.8967 24.3997 34.8 24.473 34.72C24.553 34.64 24.6497 34.6 24.763 34.6C24.883 34.6 24.9797 34.64 25.053 34.72C25.1264 34.8 25.163 34.8967 25.163 35.01V38.09L25.013 38.01C25.0597 37.8433 25.1397 37.6833 25.253 37.53C25.373 37.37 25.5164 37.23 25.683 37.11C25.8564 36.9833 26.0464 36.8833 26.253 36.81C26.4664 36.7367 26.6864 36.7 26.913 36.7ZM26.823 37.44C26.4897 37.44 26.193 37.5233 25.933 37.69C25.6797 37.8567 25.4797 38.0867 25.333 38.38C25.193 38.6733 25.123 39.0067 25.123 39.38C25.123 39.7533 25.193 40.09 25.333 40.39C25.4797 40.69 25.6797 40.9267 25.933 41.1C26.193 41.2733 26.4897 41.36 26.823 41.36C27.1564 41.36 27.4497 41.2733 27.703 41.1C27.9564 40.9267 28.1564 40.69 28.303 40.39C28.4497 40.09 28.523 39.7533 28.523 39.38C28.523 39.0067 28.4497 38.6733 28.303 38.38C28.1564 38.0867 27.9564 37.8567 27.703 37.69C27.4497 37.5233 27.1564 37.44 26.823 37.44ZM32.8956 42.1C32.3623 42.1 31.8956 41.9867 31.4956 41.76C31.0956 41.5333 30.7823 41.2233 30.5556 40.83C30.3356 40.43 30.2256 39.97 30.2256 39.45C30.2256 38.87 30.339 38.3767 30.5656 37.97C30.799 37.5567 31.099 37.2433 31.4656 37.03C31.839 36.81 32.2323 36.7 32.6456 36.7C32.9523 36.7 33.249 36.7567 33.5356 36.87C33.8223 36.9833 34.0756 37.15 34.2956 37.37C34.5156 37.5833 34.6923 37.8433 34.8256 38.15C34.959 38.45 35.029 38.7867 35.0356 39.16C35.0356 39.2667 34.9956 39.3567 34.9156 39.43C34.8356 39.5033 34.7423 39.54 34.6356 39.54H30.6856L30.5056 38.85H34.3556L34.1956 38.99V38.77C34.169 38.4967 34.0756 38.2633 33.9156 38.07C33.7623 37.87 33.5723 37.7167 33.3456 37.61C33.1256 37.5033 32.8923 37.45 32.6456 37.45C32.4456 37.45 32.2456 37.4867 32.0456 37.56C31.8523 37.6267 31.6756 37.74 31.5156 37.9C31.3623 38.0533 31.2356 38.2533 31.1356 38.5C31.0423 38.7467 30.9956 39.0433 30.9956 39.39C30.9956 39.7767 31.0723 40.1167 31.2256 40.41C31.3856 40.7033 31.6056 40.9367 31.8856 41.11C32.1656 41.2767 32.4923 41.36 32.8656 41.36C33.099 41.36 33.3023 41.33 33.4756 41.27C33.649 41.21 33.799 41.1367 33.9256 41.05C34.0523 40.9567 34.159 40.8633 34.2456 40.77C34.3323 40.71 34.4156 40.68 34.4956 40.68C34.5956 40.68 34.6756 40.7133 34.7356 40.78C34.8023 40.8467 34.8356 40.9267 34.8356 41.02C34.8356 41.1333 34.7823 41.2333 34.6756 41.32C34.489 41.5267 34.2356 41.71 33.9156 41.87C33.5956 42.0233 33.2556 42.1 32.8956 42.1ZM36.638 42C36.5247 42 36.428 41.96 36.348 41.88C36.2747 41.8 36.238 41.7033 36.238 41.59V37.23C36.238 37.1167 36.2747 37.0233 36.348 36.95C36.428 36.87 36.5247 36.83 36.638 36.83C36.758 36.83 36.8547 36.87 36.928 36.95C37.0014 37.0233 37.038 37.1167 37.038 37.23V38.55L36.918 38.34C36.958 38.1333 37.028 37.9333 37.128 37.74C37.2347 37.54 37.368 37.3633 37.528 37.21C37.688 37.05 37.8714 36.9267 38.078 36.84C38.2847 36.7467 38.5114 36.7 38.758 36.7C38.9047 36.7 39.038 36.7367 39.158 36.81C39.2847 36.8767 39.348 36.9733 39.348 37.1C39.348 37.24 39.3114 37.3433 39.238 37.41C39.1647 37.4767 39.0814 37.51 38.988 37.51C38.9014 37.51 38.818 37.4933 38.738 37.46C38.658 37.42 38.558 37.4 38.438 37.4C38.2714 37.4 38.1047 37.4467 37.938 37.54C37.778 37.6267 37.628 37.7533 37.488 37.92C37.3547 38.0867 37.2447 38.2767 37.158 38.49C37.078 38.6967 37.038 38.92 37.038 39.16V41.59C37.038 41.7033 36.998 41.8 36.918 41.88C36.8447 41.96 36.7514 42 36.638 42Z" fill="#616161"/>
<path d="M75.4563 36.04L73.1063 41.76C73.0796 41.84 73.0329 41.9033 72.9663 41.95C72.8996 41.9967 72.8296 42.02 72.7563 42.02C72.6296 42.02 72.5363 41.9867 72.4763 41.92C72.4163 41.8533 72.3863 41.7733 72.3863 41.68C72.3796 41.6333 72.3863 41.5833 72.4063 41.53L74.9963 35.23C75.0296 35.1367 75.0796 35.07 75.1463 35.03C75.2196 34.9833 75.2996 34.9633 75.3863 34.97C75.4729 34.97 75.5496 34.9933 75.6163 35.04C75.6896 35.0867 75.7396 35.15 75.7663 35.23L78.3463 41.47C78.3663 41.5233 78.3763 41.5767 78.3763 41.63C78.3763 41.75 78.3363 41.8467 78.2563 41.92C78.1763 41.9867 78.0863 42.02 77.9863 42.02C77.9063 42.02 77.8329 41.9967 77.7663 41.95C77.6996 41.9033 77.6496 41.8367 77.6163 41.75L75.2363 36.03L75.4563 36.04ZM73.6063 40.13L73.9463 39.35H76.9163L77.0663 40.13H73.6063ZM83.5918 34.6C83.7051 34.6 83.7985 34.64 83.8718 34.72C83.9518 34.7933 83.9918 34.8867 83.9918 35V41.59C83.9918 41.7033 83.9518 41.8 83.8718 41.88C83.7985 41.96 83.7051 42 83.5918 42C83.4718 42 83.3751 41.96 83.3018 41.88C83.2285 41.8 83.1918 41.7033 83.1918 41.59V40.64L83.3818 40.57C83.3818 40.73 83.3318 40.9 83.2318 41.08C83.1318 41.2533 82.9951 41.4167 82.8218 41.57C82.6485 41.7233 82.4418 41.85 82.2018 41.95C81.9685 42.05 81.7151 42.1 81.4418 42.1C80.9951 42.1 80.5885 41.9833 80.2218 41.75C79.8618 41.5167 79.5751 41.1967 79.3618 40.79C79.1551 40.3833 79.0518 39.92 79.0518 39.4C79.0518 38.8733 79.1551 38.4067 79.3618 38C79.5751 37.5933 79.8618 37.2767 80.2218 37.05C80.5818 36.8167 80.9818 36.7 81.4218 36.7C81.7018 36.7 81.9651 36.7467 82.2118 36.84C82.4585 36.9333 82.6718 37.06 82.8518 37.22C83.0385 37.38 83.1851 37.5567 83.2918 37.75C83.3985 37.9433 83.4518 38.1367 83.4518 38.33L83.1918 38.27V35C83.1918 34.8867 83.2285 34.7933 83.3018 34.72C83.3751 34.64 83.4718 34.6 83.5918 34.6ZM81.5318 41.36C81.8651 41.36 82.1585 41.2767 82.4118 41.11C82.6718 40.9367 82.8718 40.7033 83.0118 40.41C83.1585 40.11 83.2318 39.7733 83.2318 39.4C83.2318 39.02 83.1585 38.6833 83.0118 38.39C82.8718 38.0967 82.6718 37.8667 82.4118 37.7C82.1585 37.5267 81.8651 37.44 81.5318 37.44C81.2051 37.44 80.9118 37.5267 80.6518 37.7C80.3985 37.8667 80.1985 38.0967 80.0518 38.39C79.9051 38.6833 79.8318 39.02 79.8318 39.4C79.8318 39.7667 79.9051 40.1 80.0518 40.4C80.1985 40.6933 80.3985 40.9267 80.6518 41.1C80.9118 41.2733 81.2051 41.36 81.5318 41.36ZM85.4744 36.74C85.5544 36.74 85.631 36.7633 85.7044 36.81C85.7777 36.85 85.831 36.91 85.8644 36.99L87.5244 40.89L87.3644 40.97L89.0544 37C89.1277 36.82 89.251 36.7333 89.4244 36.74C89.5244 36.74 89.611 36.7733 89.6844 36.84C89.7577 36.9067 89.7944 36.99 89.7944 37.09C89.7944 37.13 89.7877 37.17 89.7744 37.21C89.7677 37.2433 89.7577 37.2733 89.7444 37.3L87.8144 41.74C87.741 41.9067 87.6244 41.9933 87.4644 42C87.3777 42.0067 87.2944 41.99 87.2144 41.95C87.141 41.9033 87.0877 41.8333 87.0544 41.74L85.1244 37.31C85.111 37.2833 85.0977 37.2533 85.0844 37.22C85.0777 37.1867 85.0744 37.1467 85.0744 37.1C85.0744 37.0133 85.1077 36.9333 85.1744 36.86C85.2477 36.78 85.3477 36.74 85.4744 36.74ZM95.7359 39.4C95.7359 39.92 95.6193 40.3833 95.3859 40.79C95.1593 41.1967 94.8493 41.5167 94.4559 41.75C94.0693 41.9833 93.6326 42.1 93.1459 42.1C92.6593 42.1 92.2193 41.9833 91.8259 41.75C91.4326 41.5167 91.1193 41.1967 90.8859 40.79C90.6593 40.3833 90.5459 39.92 90.5459 39.4C90.5459 38.88 90.6593 38.4167 90.8859 38.01C91.1193 37.6033 91.4326 37.2833 91.8259 37.05C92.2193 36.8167 92.6593 36.7 93.1459 36.7C93.6326 36.7 94.0693 36.8167 94.4559 37.05C94.8493 37.2833 95.1593 37.6033 95.3859 38.01C95.6193 38.4167 95.7359 38.88 95.7359 39.4ZM94.9359 39.4C94.9359 39.0133 94.8559 38.6733 94.6959 38.38C94.5426 38.0867 94.3293 37.8567 94.0559 37.69C93.7893 37.5233 93.4859 37.44 93.1459 37.44C92.8059 37.44 92.4993 37.5233 92.2259 37.69C91.9593 37.8567 91.7459 38.0867 91.5859 38.38C91.4259 38.6733 91.3459 39.0133 91.3459 39.4C91.3459 39.78 91.4259 40.1167 91.5859 40.41C91.7459 40.7033 91.9593 40.9367 92.2259 41.11C92.4993 41.2767 92.8059 41.36 93.1459 41.36C93.4859 41.36 93.7893 41.2767 94.0559 41.11C94.3293 40.9367 94.5426 40.7033 94.6959 40.41C94.8559 40.1167 94.9359 39.78 94.9359 39.4ZM99.2392 36.7C99.5792 36.7 99.8859 36.7367 100.159 36.81C100.433 36.8833 100.649 36.9833 100.809 37.11C100.969 37.2367 101.049 37.38 101.049 37.54C101.049 37.6267 101.019 37.71 100.959 37.79C100.899 37.87 100.819 37.91 100.719 37.91C100.626 37.91 100.549 37.8933 100.489 37.86C100.436 37.8267 100.383 37.7833 100.329 37.73C100.283 37.6767 100.216 37.63 100.129 37.59C100.049 37.5433 99.9326 37.5067 99.7792 37.48C99.6259 37.4533 99.4726 37.44 99.3192 37.44C98.9526 37.44 98.6292 37.5267 98.3492 37.7C98.0759 37.8733 97.8592 38.1067 97.6992 38.4C97.5392 38.6933 97.4592 39.0267 97.4592 39.4C97.4592 39.7733 97.5359 40.1067 97.6892 40.4C97.8426 40.6933 98.0559 40.9267 98.3292 41.1C98.6026 41.2733 98.9192 41.36 99.2792 41.36C99.5126 41.36 99.6992 41.34 99.8392 41.3C99.9792 41.26 100.096 41.2133 100.189 41.16C100.309 41.0933 100.399 41.0267 100.459 40.96C100.526 40.8933 100.613 40.86 100.719 40.86C100.833 40.86 100.919 40.8967 100.979 40.97C101.046 41.0433 101.079 41.1333 101.079 41.24C101.079 41.36 100.996 41.4867 100.829 41.62C100.663 41.7533 100.436 41.8667 100.149 41.96C99.8692 42.0533 99.5492 42.1 99.1892 42.1C98.6826 42.1 98.2392 41.9833 97.8592 41.75C97.4792 41.51 97.1826 41.1867 96.9692 40.78C96.7626 40.3667 96.6592 39.9067 96.6592 39.4C96.6592 38.8933 96.7659 38.4367 96.9792 38.03C97.1992 37.6233 97.5026 37.3 97.8892 37.06C98.2759 36.82 98.7259 36.7 99.2392 36.7ZM106.385 36.78C106.498 36.78 106.591 36.82 106.665 36.9C106.745 36.9733 106.785 37.0667 106.785 37.18V41.59C106.785 41.7033 106.745 41.8 106.665 41.88C106.591 41.96 106.498 42 106.385 42C106.265 42 106.168 41.96 106.095 41.88C106.021 41.8 105.985 41.7033 105.985 41.59V40.64L106.175 40.62C106.175 40.7667 106.125 40.9267 106.025 41.1C105.925 41.2733 105.788 41.4367 105.615 41.59C105.441 41.7367 105.235 41.86 104.995 41.96C104.761 42.0533 104.508 42.1 104.235 42.1C103.781 42.1 103.375 41.9833 103.015 41.75C102.655 41.51 102.368 41.1867 102.155 40.78C101.948 40.3733 101.845 39.91 101.845 39.39C101.845 38.8633 101.948 38.4 102.155 38C102.368 37.5933 102.655 37.2767 103.015 37.05C103.375 36.8167 103.775 36.7 104.215 36.7C104.501 36.7 104.768 36.7467 105.015 36.84C105.261 36.9333 105.475 37.06 105.655 37.22C105.841 37.38 105.985 37.5567 106.085 37.75C106.191 37.9433 106.245 38.1367 106.245 38.33L105.985 38.27V37.18C105.985 37.0667 106.021 36.9733 106.095 36.9C106.168 36.82 106.265 36.78 106.385 36.78ZM104.325 41.36C104.658 41.36 104.951 41.2733 105.205 41.1C105.465 40.9267 105.665 40.6933 105.805 40.4C105.951 40.1 106.025 39.7633 106.025 39.39C106.025 39.0233 105.951 38.6933 105.805 38.4C105.665 38.1 105.465 37.8667 105.205 37.7C104.951 37.5267 104.658 37.44 104.325 37.44C103.998 37.44 103.705 37.5233 103.445 37.69C103.191 37.8567 102.991 38.0867 102.845 38.38C102.698 38.6733 102.625 39.01 102.625 39.39C102.625 39.7633 102.695 40.1 102.835 40.4C102.981 40.6933 103.181 40.9267 103.435 41.1C103.695 41.2733 103.991 41.36 104.325 41.36ZM108.067 36.86H110.417C110.524 36.86 110.611 36.8967 110.677 36.97C110.751 37.0433 110.787 37.13 110.787 37.23C110.787 37.3367 110.751 37.4267 110.677 37.5C110.611 37.5667 110.524 37.6 110.417 37.6H108.067C107.967 37.6 107.881 37.5633 107.807 37.49C107.734 37.4167 107.697 37.3267 107.697 37.22C107.697 37.12 107.734 37.0367 107.807 36.97C107.881 36.8967 107.967 36.86 108.067 36.86ZM109.117 35.5C109.231 35.5 109.324 35.54 109.397 35.62C109.471 35.6933 109.507 35.7867 109.507 35.9V40.73C109.507 40.89 109.531 41.01 109.577 41.09C109.624 41.17 109.684 41.2267 109.757 41.26C109.837 41.2867 109.914 41.3 109.987 41.3C110.054 41.3 110.111 41.29 110.157 41.27C110.211 41.2433 110.271 41.23 110.337 41.23C110.404 41.23 110.464 41.2633 110.517 41.33C110.577 41.39 110.607 41.47 110.607 41.57C110.607 41.69 110.537 41.7933 110.397 41.88C110.257 41.96 110.101 42 109.927 42C109.834 42 109.717 41.9933 109.577 41.98C109.444 41.9667 109.311 41.9233 109.177 41.85C109.044 41.7767 108.931 41.6567 108.837 41.49C108.751 41.3167 108.707 41.0767 108.707 40.77V35.9C108.707 35.7867 108.747 35.6933 108.827 35.62C108.907 35.54 109.004 35.5 109.117 35.5ZM114.241 42.1C113.708 42.1 113.241 41.9867 112.841 41.76C112.441 41.5333 112.128 41.2233 111.901 40.83C111.681 40.43 111.571 39.97 111.571 39.45C111.571 38.87 111.685 38.3767 111.911 37.97C112.145 37.5567 112.445 37.2433 112.811 37.03C113.185 36.81 113.578 36.7 113.991 36.7C114.298 36.7 114.595 36.7567 114.881 36.87C115.168 36.9833 115.421 37.15 115.641 37.37C115.861 37.5833 116.038 37.8433 116.171 38.15C116.305 38.45 116.375 38.7867 116.381 39.16C116.381 39.2667 116.341 39.3567 116.261 39.43C116.181 39.5033 116.088 39.54 115.981 39.54H112.031L111.851 38.85H115.701L115.541 38.99V38.77C115.515 38.4967 115.421 38.2633 115.261 38.07C115.108 37.87 114.918 37.7167 114.691 37.61C114.471 37.5033 114.238 37.45 113.991 37.45C113.791 37.45 113.591 37.4867 113.391 37.56C113.198 37.6267 113.021 37.74 112.861 37.9C112.708 38.0533 112.581 38.2533 112.481 38.5C112.388 38.7467 112.341 39.0433 112.341 39.39C112.341 39.7767 112.418 40.1167 112.571 40.41C112.731 40.7033 112.951 40.9367 113.231 41.11C113.511 41.2767 113.838 41.36 114.211 41.36C114.445 41.36 114.648 41.33 114.821 41.27C114.995 41.21 115.145 41.1367 115.271 41.05C115.398 40.9567 115.505 40.8633 115.591 40.77C115.678 40.71 115.761 40.68 115.841 40.68C115.941 40.68 116.021 40.7133 116.081 40.78C116.148 40.8467 116.181 40.9267 116.181 41.02C116.181 41.1333 116.128 41.2333 116.021 41.32C115.835 41.5267 115.581 41.71 115.261 41.87C114.941 42.0233 114.601 42.1 114.241 42.1Z" fill="#616161"/>
<path d="M146.724 41.59C146.724 41.7033 146.68 41.8 146.594 41.88C146.514 41.96 146.417 42 146.304 42C146.177 42 146.077 41.96 146.004 41.88C145.93 41.8 145.894 41.7033 145.894 41.59V35.41C145.894 35.29 145.934 35.1933 146.014 35.12C146.094 35.04 146.194 35 146.314 35C146.427 35 146.524 35.04 146.604 35.12C146.684 35.1933 146.724 35.29 146.724 35.41V41.59ZM150.912 36.7C151.365 36.7 151.722 36.7933 151.982 36.98C152.242 37.1667 152.425 37.4167 152.532 37.73C152.645 38.0433 152.702 38.3933 152.702 38.78V41.59C152.702 41.7033 152.662 41.8 152.582 41.88C152.508 41.96 152.415 42 152.302 42C152.188 42 152.092 41.96 152.012 41.88C151.938 41.8 151.902 41.7033 151.902 41.59V38.8C151.902 38.5467 151.862 38.32 151.782 38.12C151.708 37.9133 151.582 37.75 151.402 37.63C151.228 37.5033 150.988 37.44 150.682 37.44C150.402 37.44 150.145 37.5033 149.912 37.63C149.678 37.75 149.492 37.9133 149.352 38.12C149.212 38.32 149.142 38.5467 149.142 38.8V41.59C149.142 41.7033 149.102 41.8 149.022 41.88C148.948 41.96 148.855 42 148.742 42C148.628 42 148.532 41.96 148.452 41.88C148.378 41.8 148.342 41.7033 148.342 41.59V37.23C148.342 37.1167 148.378 37.0233 148.452 36.95C148.532 36.87 148.628 36.83 148.742 36.83C148.862 36.83 148.958 36.87 149.032 36.95C149.105 37.0233 149.142 37.1167 149.142 37.23V37.94L148.942 38.16C148.975 37.9867 149.052 37.8133 149.172 37.64C149.292 37.46 149.442 37.3 149.622 37.16C149.802 37.02 150.002 36.91 150.222 36.83C150.442 36.7433 150.672 36.7 150.912 36.7ZM156.341 34.62C156.455 34.62 156.571 34.6333 156.691 34.66C156.818 34.6867 156.925 34.7333 157.011 34.8C157.105 34.8667 157.151 34.9567 157.151 35.07C157.151 35.1767 157.118 35.2667 157.051 35.34C156.985 35.4067 156.905 35.44 156.811 35.44C156.751 35.44 156.668 35.4233 156.561 35.39C156.455 35.35 156.345 35.33 156.231 35.33C156.078 35.33 155.951 35.3633 155.851 35.43C155.758 35.4967 155.688 35.5867 155.641 35.7C155.601 35.8067 155.581 35.9267 155.581 36.06V41.59C155.581 41.7033 155.541 41.8 155.461 41.88C155.388 41.96 155.295 42 155.181 42C155.061 42 154.965 41.96 154.891 41.88C154.818 41.8 154.781 41.7033 154.781 41.59V36.07C154.781 35.6233 154.918 35.27 155.191 35.01C155.471 34.75 155.855 34.62 156.341 34.62ZM156.621 36.91C156.728 36.91 156.818 36.9467 156.891 37.02C156.965 37.0867 157.001 37.1733 157.001 37.28C157.001 37.3867 156.965 37.4767 156.891 37.55C156.818 37.6167 156.728 37.65 156.621 37.65H154.111C154.005 37.65 153.915 37.6133 153.841 37.54C153.768 37.4667 153.731 37.38 153.731 37.28C153.731 37.1667 153.768 37.0767 153.841 37.01C153.915 36.9433 154.005 36.91 154.111 36.91H156.621ZM158.921 41.59C158.921 41.7033 158.881 41.8 158.801 41.88C158.721 41.96 158.625 42 158.511 42C158.398 42 158.305 41.96 158.231 41.88C158.158 41.8 158.121 41.7033 158.121 41.59V35C158.121 34.8867 158.158 34.7933 158.231 34.72C158.311 34.64 158.408 34.6 158.521 34.6C158.641 34.6 158.738 34.64 158.811 34.72C158.885 34.7933 158.921 34.8867 158.921 35V41.59ZM164.34 36.83C164.46 36.83 164.557 36.87 164.63 36.95C164.704 37.0233 164.74 37.1167 164.74 37.23V39.96C164.74 40.6333 164.55 41.1567 164.17 41.53C163.797 41.8967 163.274 42.08 162.6 42.08C161.934 42.08 161.41 41.8967 161.03 41.53C160.657 41.1567 160.47 40.6333 160.47 39.96V37.23C160.47 37.1167 160.507 37.0233 160.58 36.95C160.66 36.87 160.757 36.83 160.87 36.83C160.99 36.83 161.087 36.87 161.16 36.95C161.234 37.0233 161.27 37.1167 161.27 37.23V39.96C161.27 40.4133 161.387 40.7567 161.62 40.99C161.854 41.2233 162.18 41.34 162.6 41.34C163.034 41.34 163.364 41.2233 163.59 40.99C163.824 40.7567 163.94 40.4133 163.94 39.96V37.23C163.94 37.1167 163.977 37.0233 164.05 36.95C164.13 36.87 164.227 36.83 164.34 36.83ZM168.612 42.1C168.079 42.1 167.612 41.9867 167.212 41.76C166.812 41.5333 166.499 41.2233 166.272 40.83C166.052 40.43 165.942 39.97 165.942 39.45C165.942 38.87 166.056 38.3767 166.282 37.97C166.516 37.5567 166.816 37.2433 167.182 37.03C167.556 36.81 167.949 36.7 168.362 36.7C168.669 36.7 168.966 36.7567 169.252 36.87C169.539 36.9833 169.792 37.15 170.012 37.37C170.232 37.5833 170.409 37.8433 170.542 38.15C170.676 38.45 170.746 38.7867 170.752 39.16C170.752 39.2667 170.712 39.3567 170.632 39.43C170.552 39.5033 170.459 39.54 170.352 39.54H166.402L166.222 38.85H170.072L169.912 38.99V38.77C169.886 38.4967 169.792 38.2633 169.632 38.07C169.479 37.87 169.289 37.7167 169.062 37.61C168.842 37.5033 168.609 37.45 168.362 37.45C168.162 37.45 167.962 37.4867 167.762 37.56C167.569 37.6267 167.392 37.74 167.232 37.9C167.079 38.0533 166.952 38.2533 166.852 38.5C166.759 38.7467 166.712 39.0433 166.712 39.39C166.712 39.7767 166.789 40.1167 166.942 40.41C167.102 40.7033 167.322 40.9367 167.602 41.11C167.882 41.2767 168.209 41.36 168.582 41.36C168.816 41.36 169.019 41.33 169.192 41.27C169.366 41.21 169.516 41.1367 169.642 41.05C169.769 40.9567 169.876 40.8633 169.962 40.77C170.049 40.71 170.132 40.68 170.212 40.68C170.312 40.68 170.392 40.7133 170.452 40.78C170.519 40.8467 170.552 40.9267 170.552 41.02C170.552 41.1333 170.499 41.2333 170.392 41.32C170.206 41.5267 169.952 41.71 169.632 41.87C169.312 42.0233 168.972 42.1 168.612 42.1ZM174.525 36.7C174.978 36.7 175.335 36.7933 175.595 36.98C175.855 37.1667 176.038 37.4167 176.145 37.73C176.258 38.0433 176.315 38.3933 176.315 38.78V41.59C176.315 41.7033 176.275 41.8 176.195 41.88C176.122 41.96 176.028 42 175.915 42C175.802 42 175.705 41.96 175.625 41.88C175.552 41.8 175.515 41.7033 175.515 41.59V38.8C175.515 38.5467 175.475 38.32 175.395 38.12C175.322 37.9133 175.195 37.75 175.015 37.63C174.842 37.5033 174.602 37.44 174.295 37.44C174.015 37.44 173.758 37.5033 173.525 37.63C173.292 37.75 173.105 37.9133 172.965 38.12C172.825 38.32 172.755 38.5467 172.755 38.8V41.59C172.755 41.7033 172.715 41.8 172.635 41.88C172.562 41.96 172.468 42 172.355 42C172.242 42 172.145 41.96 172.065 41.88C171.992 41.8 171.955 41.7033 171.955 41.59V37.23C171.955 37.1167 171.992 37.0233 172.065 36.95C172.145 36.87 172.242 36.83 172.355 36.83C172.475 36.83 172.572 36.87 172.645 36.95C172.718 37.0233 172.755 37.1167 172.755 37.23V37.94L172.555 38.16C172.588 37.9867 172.665 37.8133 172.785 37.64C172.905 37.46 173.055 37.3 173.235 37.16C173.415 37.02 173.615 36.91 173.835 36.83C174.055 36.7433 174.285 36.7 174.525 36.7ZM180.095 36.7C180.435 36.7 180.741 36.7367 181.015 36.81C181.288 36.8833 181.505 36.9833 181.665 37.11C181.825 37.2367 181.905 37.38 181.905 37.54C181.905 37.6267 181.875 37.71 181.815 37.79C181.755 37.87 181.675 37.91 181.575 37.91C181.481 37.91 181.405 37.8933 181.345 37.86C181.291 37.8267 181.238 37.7833 181.185 37.73C181.138 37.6767 181.071 37.63 180.985 37.59C180.905 37.5433 180.788 37.5067 180.635 37.48C180.481 37.4533 180.328 37.44 180.175 37.44C179.808 37.44 179.485 37.5267 179.205 37.7C178.931 37.8733 178.715 38.1067 178.555 38.4C178.395 38.6933 178.315 39.0267 178.315 39.4C178.315 39.7733 178.391 40.1067 178.545 40.4C178.698 40.6933 178.911 40.9267 179.185 41.1C179.458 41.2733 179.775 41.36 180.135 41.36C180.368 41.36 180.555 41.34 180.695 41.3C180.835 41.26 180.951 41.2133 181.045 41.16C181.165 41.0933 181.255 41.0267 181.315 40.96C181.381 40.8933 181.468 40.86 181.575 40.86C181.688 40.86 181.775 40.8967 181.835 40.97C181.901 41.0433 181.935 41.1333 181.935 41.24C181.935 41.36 181.851 41.4867 181.685 41.62C181.518 41.7533 181.291 41.8667 181.005 41.96C180.725 42.0533 180.405 42.1 180.045 42.1C179.538 42.1 179.095 41.9833 178.715 41.75C178.335 41.51 178.038 41.1867 177.825 40.78C177.618 40.3667 177.515 39.9067 177.515 39.4C177.515 38.8933 177.621 38.4367 177.835 38.03C178.055 37.6233 178.358 37.3 178.745 37.06C179.131 36.82 179.581 36.7 180.095 36.7ZM185.37 42.1C184.837 42.1 184.37 41.9867 183.97 41.76C183.57 41.5333 183.257 41.2233 183.03 40.83C182.81 40.43 182.7 39.97 182.7 39.45C182.7 38.87 182.814 38.3767 183.04 37.97C183.274 37.5567 183.574 37.2433 183.94 37.03C184.314 36.81 184.707 36.7 185.12 36.7C185.427 36.7 185.724 36.7567 186.01 36.87C186.297 36.9833 186.55 37.15 186.77 37.37C186.99 37.5833 187.167 37.8433 187.3 38.15C187.434 38.45 187.504 38.7867 187.51 39.16C187.51 39.2667 187.47 39.3567 187.39 39.43C187.31 39.5033 187.217 39.54 187.11 39.54H183.16L182.98 38.85H186.83L186.67 38.99V38.77C186.644 38.4967 186.55 38.2633 186.39 38.07C186.237 37.87 186.047 37.7167 185.82 37.61C185.6 37.5033 185.367 37.45 185.12 37.45C184.92 37.45 184.72 37.4867 184.52 37.56C184.327 37.6267 184.15 37.74 183.99 37.9C183.837 38.0533 183.71 38.2533 183.61 38.5C183.517 38.7467 183.47 39.0433 183.47 39.39C183.47 39.7767 183.547 40.1167 183.7 40.41C183.86 40.7033 184.08 40.9367 184.36 41.11C184.64 41.2767 184.967 41.36 185.34 41.36C185.574 41.36 185.777 41.33 185.95 41.27C186.124 41.21 186.274 41.1367 186.4 41.05C186.527 40.9567 186.634 40.8633 186.72 40.77C186.807 40.71 186.89 40.68 186.97 40.68C187.07 40.68 187.15 40.7133 187.21 40.78C187.277 40.8467 187.31 40.9267 187.31 41.02C187.31 41.1333 187.257 41.2333 187.15 41.32C186.964 41.5267 186.71 41.71 186.39 41.87C186.07 42.0233 185.73 42.1 185.37 42.1ZM189.113 42C188.999 42 188.903 41.96 188.823 41.88C188.749 41.8 188.713 41.7033 188.713 41.59V37.23C188.713 37.1167 188.749 37.0233 188.823 36.95C188.903 36.87 188.999 36.83 189.113 36.83C189.233 36.83 189.329 36.87 189.403 36.95C189.476 37.0233 189.513 37.1167 189.513 37.23V38.55L189.393 38.34C189.433 38.1333 189.503 37.9333 189.603 37.74C189.709 37.54 189.843 37.3633 190.003 37.21C190.163 37.05 190.346 36.9267 190.553 36.84C190.759 36.7467 190.986 36.7 191.233 36.7C191.379 36.7 191.513 36.7367 191.633 36.81C191.759 36.8767 191.823 36.9733 191.823 37.1C191.823 37.24 191.786 37.3433 191.713 37.41C191.639 37.4767 191.556 37.51 191.463 37.51C191.376 37.51 191.293 37.4933 191.213 37.46C191.133 37.42 191.033 37.4 190.913 37.4C190.746 37.4 190.579 37.4467 190.413 37.54C190.253 37.6267 190.103 37.7533 189.963 37.92C189.829 38.0867 189.719 38.2767 189.633 38.49C189.553 38.6967 189.513 38.92 189.513 39.16V41.59C189.513 41.7033 189.473 41.8 189.393 41.88C189.319 41.96 189.226 42 189.113 42Z" fill="#616161"/>
<path d="M224.024 35.46C224.137 35.52 224.2 35.61 224.214 35.73C224.234 35.85 224.204 35.96 224.124 36.06C224.064 36.1467 223.987 36.1933 223.894 36.2C223.8 36.2067 223.707 36.1867 223.614 36.14C223.394 36.0067 223.157 35.9033 222.904 35.83C222.65 35.75 222.384 35.71 222.104 35.71C221.71 35.71 221.35 35.78 221.024 35.92C220.697 36.0533 220.414 36.2433 220.174 36.49C219.934 36.7367 219.747 37.03 219.614 37.37C219.48 37.71 219.414 38.0867 219.414 38.5C219.414 38.94 219.484 39.3333 219.624 39.68C219.764 40.0267 219.954 40.3233 220.194 40.57C220.44 40.81 220.724 40.9933 221.044 41.12C221.37 41.2467 221.724 41.31 222.104 41.31C222.377 41.31 222.64 41.2733 222.894 41.2C223.147 41.1267 223.387 41.02 223.614 40.88C223.707 40.8333 223.8 40.8167 223.894 40.83C223.987 40.8433 224.067 40.89 224.134 40.97C224.214 41.0767 224.244 41.19 224.224 41.31C224.204 41.4233 224.14 41.5067 224.034 41.56C223.867 41.66 223.677 41.7533 223.464 41.84C223.25 41.92 223.027 41.9833 222.794 42.03C222.567 42.0767 222.337 42.1 222.104 42.1C221.624 42.1 221.17 42.0167 220.744 41.85C220.317 41.6833 219.94 41.4433 219.614 41.13C219.287 40.8167 219.027 40.44 218.834 40C218.647 39.5533 218.554 39.0533 218.554 38.5C218.554 37.98 218.644 37.5033 218.824 37.07C219.004 36.6367 219.254 36.26 219.574 35.94C219.9 35.62 220.277 35.37 220.704 35.19C221.137 35.01 221.604 34.92 222.104 34.92C222.45 34.92 222.787 34.9667 223.114 35.06C223.447 35.1533 223.75 35.2867 224.024 35.46ZM227.789 36.75C228.229 36.75 228.575 36.8467 228.829 37.04C229.089 37.2267 229.272 37.48 229.379 37.8C229.492 38.1133 229.549 38.4633 229.549 38.85V41.59C229.549 41.7033 229.509 41.8 229.429 41.88C229.355 41.96 229.262 42 229.149 42C229.035 42 228.939 41.96 228.859 41.88C228.785 41.8 228.749 41.7033 228.749 41.59V38.85C228.749 38.5967 228.712 38.37 228.639 38.17C228.565 37.9633 228.442 37.8 228.269 37.68C228.102 37.5533 227.872 37.49 227.579 37.49C227.305 37.49 227.055 37.5533 226.829 37.68C226.602 37.8 226.422 37.9633 226.289 38.17C226.155 38.37 226.089 38.5967 226.089 38.85V41.59C226.089 41.7033 226.049 41.8 225.969 41.88C225.895 41.96 225.802 42 225.689 42C225.575 42 225.479 41.96 225.399 41.88C225.325 41.8 225.289 41.7033 225.289 41.59V35C225.289 34.8867 225.325 34.7933 225.399 34.72C225.479 34.64 225.575 34.6 225.689 34.6C225.809 34.6 225.905 34.64 225.979 34.72C226.052 34.7933 226.089 34.8867 226.089 35V37.99L225.889 38.21C225.922 38.0367 225.995 37.8633 226.109 37.69C226.222 37.51 226.365 37.35 226.539 37.21C226.712 37.07 226.905 36.96 227.119 36.88C227.332 36.7933 227.555 36.75 227.789 36.75ZM235.291 36.78C235.404 36.78 235.498 36.82 235.571 36.9C235.651 36.9733 235.691 37.0667 235.691 37.18V41.59C235.691 41.7033 235.651 41.8 235.571 41.88C235.498 41.96 235.404 42 235.291 42C235.171 42 235.074 41.96 235.001 41.88C234.928 41.8 234.891 41.7033 234.891 41.59V40.64L235.081 40.62C235.081 40.7667 235.031 40.9267 234.931 41.1C234.831 41.2733 234.694 41.4367 234.521 41.59C234.348 41.7367 234.141 41.86 233.901 41.96C233.668 42.0533 233.414 42.1 233.141 42.1C232.688 42.1 232.281 41.9833 231.921 41.75C231.561 41.51 231.274 41.1867 231.061 40.78C230.854 40.3733 230.751 39.91 230.751 39.39C230.751 38.8633 230.854 38.4 231.061 38C231.274 37.5933 231.561 37.2767 231.921 37.05C232.281 36.8167 232.681 36.7 233.121 36.7C233.408 36.7 233.674 36.7467 233.921 36.84C234.168 36.9333 234.381 37.06 234.561 37.22C234.748 37.38 234.891 37.5567 234.991 37.75C235.098 37.9433 235.151 38.1367 235.151 38.33L234.891 38.27V37.18C234.891 37.0667 234.928 36.9733 235.001 36.9C235.074 36.82 235.171 36.78 235.291 36.78ZM233.231 41.36C233.564 41.36 233.858 41.2733 234.111 41.1C234.371 40.9267 234.571 40.6933 234.711 40.4C234.858 40.1 234.931 39.7633 234.931 39.39C234.931 39.0233 234.858 38.6933 234.711 38.4C234.571 38.1 234.371 37.8667 234.111 37.7C233.858 37.5267 233.564 37.44 233.231 37.44C232.904 37.44 232.611 37.5233 232.351 37.69C232.098 37.8567 231.898 38.0867 231.751 38.38C231.604 38.6733 231.531 39.01 231.531 39.39C231.531 39.7633 231.601 40.1 231.741 40.4C231.888 40.6933 232.088 40.9267 232.341 41.1C232.601 41.2733 232.898 41.36 233.231 41.36ZM239.644 36.75C240.097 36.75 240.464 36.8667 240.744 37.1C241.03 37.3267 241.22 37.65 241.314 38.07H241.164L241.234 37.89C241.314 37.7033 241.45 37.5233 241.644 37.35C241.837 37.1767 242.06 37.0333 242.314 36.92C242.567 36.8067 242.83 36.75 243.104 36.75C243.544 36.75 243.89 36.8467 244.144 37.04C244.397 37.2267 244.577 37.48 244.684 37.8C244.797 38.1133 244.854 38.4667 244.854 38.86V41.59C244.854 41.7033 244.814 41.8 244.734 41.88C244.66 41.96 244.567 42 244.454 42C244.334 42 244.237 41.96 244.164 41.88C244.09 41.8 244.054 41.7033 244.054 41.59V38.88C244.054 38.62 244.014 38.3867 243.934 38.18C243.86 37.9667 243.737 37.8 243.564 37.68C243.397 37.5533 243.167 37.49 242.874 37.49C242.6 37.49 242.35 37.5533 242.124 37.68C241.897 37.8 241.717 37.9667 241.584 38.18C241.45 38.3867 241.384 38.62 241.384 38.88V41.59C241.384 41.7033 241.347 41.8 241.274 41.88C241.2 41.96 241.104 42 240.984 42C240.87 42 240.774 41.96 240.694 41.88C240.62 41.8 240.584 41.7033 240.584 41.59V38.85C240.584 38.5967 240.547 38.37 240.474 38.17C240.407 37.9633 240.29 37.8 240.124 37.68C239.957 37.5533 239.727 37.49 239.434 37.49C239.167 37.49 238.924 37.5533 238.704 37.68C238.484 37.8 238.307 37.9633 238.174 38.17C238.04 38.37 237.974 38.5967 237.974 38.85V41.59C237.974 41.7033 237.934 41.8 237.854 41.88C237.78 41.96 237.687 42 237.574 42C237.46 42 237.364 41.96 237.284 41.88C237.21 41.8 237.174 41.7033 237.174 41.59V37.23C237.174 37.1167 237.21 37.0233 237.284 36.95C237.364 36.87 237.46 36.83 237.574 36.83C237.694 36.83 237.79 36.87 237.864 36.95C237.937 37.0233 237.974 37.1167 237.974 37.23V37.99L237.754 38.23C237.78 38.0567 237.847 37.8833 237.954 37.71C238.067 37.5367 238.21 37.3767 238.384 37.23C238.557 37.0833 238.75 36.9667 238.964 36.88C239.177 36.7933 239.404 36.75 239.644 36.75ZM248.884 36.75C249.337 36.75 249.744 36.8633 250.104 37.09C250.464 37.3167 250.747 37.63 250.954 38.03C251.167 38.43 251.274 38.89 251.274 39.41C251.274 39.9233 251.167 40.3833 250.954 40.79C250.747 41.19 250.464 41.5067 250.104 41.74C249.75 41.9667 249.35 42.08 248.904 42.08C248.657 42.08 248.424 42.0433 248.204 41.97C247.99 41.89 247.794 41.79 247.614 41.67C247.44 41.5433 247.294 41.4033 247.174 41.25C247.054 41.09 246.967 40.9333 246.914 40.78L247.134 40.64V43.59C247.134 43.7033 247.097 43.8 247.024 43.88C246.95 43.96 246.854 44 246.734 44C246.62 44 246.524 43.96 246.444 43.88C246.37 43.8067 246.334 43.71 246.334 43.59V37.2C246.334 37.0867 246.37 36.9933 246.444 36.92C246.524 36.84 246.62 36.8 246.734 36.8C246.854 36.8 246.95 36.84 247.024 36.92C247.097 36.9933 247.134 37.0867 247.134 37.2V38.09L246.984 38.01C247.03 37.8433 247.11 37.6833 247.224 37.53C247.344 37.3767 247.487 37.2433 247.654 37.13C247.827 37.01 248.017 36.9167 248.224 36.85C248.437 36.7833 248.657 36.75 248.884 36.75ZM248.794 37.49C248.46 37.49 248.164 37.5733 247.904 37.74C247.65 37.9067 247.45 38.1333 247.304 38.42C247.164 38.7067 247.094 39.0367 247.094 39.41C247.094 39.7767 247.164 40.1067 247.304 40.4C247.45 40.6933 247.65 40.9233 247.904 41.09C248.164 41.2567 248.46 41.34 248.794 41.34C249.127 41.34 249.42 41.2567 249.674 41.09C249.927 40.9233 250.127 40.6933 250.274 40.4C250.42 40.1067 250.494 39.7767 250.494 39.41C250.494 39.0367 250.42 38.7067 250.274 38.42C250.127 38.1333 249.927 37.9067 249.674 37.74C249.42 37.5733 249.127 37.49 248.794 37.49ZM253.246 41.59C253.246 41.7033 253.206 41.8 253.126 41.88C253.053 41.96 252.96 42 252.846 42C252.726 42 252.63 41.96 252.556 41.88C252.483 41.8 252.446 41.7033 252.446 41.59V37.15C252.446 37.0367 252.483 36.9433 252.556 36.87C252.636 36.79 252.733 36.75 252.846 36.75C252.96 36.75 253.053 36.79 253.126 36.87C253.206 36.9433 253.246 37.0367 253.246 37.15V41.59ZM252.846 36.08C252.68 36.08 252.556 36.0467 252.476 35.98C252.396 35.9133 252.356 35.81 252.356 35.67V35.53C252.356 35.39 252.4 35.2867 252.486 35.22C252.573 35.1533 252.696 35.12 252.856 35.12C253.016 35.12 253.136 35.1533 253.216 35.22C253.296 35.2867 253.336 35.39 253.336 35.53V35.67C253.336 35.81 253.293 35.9133 253.206 35.98C253.126 36.0467 253.006 36.08 252.846 36.08ZM259.593 39.4C259.593 39.92 259.477 40.3833 259.243 40.79C259.017 41.1967 258.707 41.5167 258.313 41.75C257.927 41.9833 257.49 42.1 257.003 42.1C256.517 42.1 256.077 41.9833 255.683 41.75C255.29 41.5167 254.977 41.1967 254.743 40.79C254.517 40.3833 254.403 39.92 254.403 39.4C254.403 38.88 254.517 38.4167 254.743 38.01C254.977 37.6033 255.29 37.2833 255.683 37.05C256.077 36.8167 256.517 36.7 257.003 36.7C257.49 36.7 257.927 36.8167 258.313 37.05C258.707 37.2833 259.017 37.6033 259.243 38.01C259.477 38.4167 259.593 38.88 259.593 39.4ZM258.793 39.4C258.793 39.0133 258.713 38.6733 258.553 38.38C258.4 38.0867 258.187 37.8567 257.913 37.69C257.647 37.5233 257.343 37.44 257.003 37.44C256.663 37.44 256.357 37.5233 256.083 37.69C255.817 37.8567 255.603 38.0867 255.443 38.38C255.283 38.6733 255.203 39.0133 255.203 39.4C255.203 39.78 255.283 40.1167 255.443 40.41C255.603 40.7033 255.817 40.9367 256.083 41.11C256.357 41.2767 256.663 41.36 257.003 41.36C257.343 41.36 257.647 41.2767 257.913 41.11C258.187 40.9367 258.4 40.7033 258.553 40.41C258.713 40.1167 258.793 39.78 258.793 39.4ZM263.367 36.7C263.82 36.7 264.177 36.7933 264.437 36.98C264.697 37.1667 264.88 37.4167 264.987 37.73C265.1 38.0433 265.157 38.3933 265.157 38.78V41.59C265.157 41.7033 265.117 41.8 265.037 41.88C264.963 41.96 264.87 42 264.757 42C264.643 42 264.547 41.96 264.467 41.88C264.393 41.8 264.357 41.7033 264.357 41.59V38.8C264.357 38.5467 264.317 38.32 264.237 38.12C264.163 37.9133 264.037 37.75 263.857 37.63C263.683 37.5033 263.443 37.44 263.137 37.44C262.857 37.44 262.6 37.5033 262.367 37.63C262.133 37.75 261.947 37.9133 261.807 38.12C261.667 38.32 261.597 38.5467 261.597 38.8V41.59C261.597 41.7033 261.557 41.8 261.477 41.88C261.403 41.96 261.31 42 261.197 42C261.083 42 260.987 41.96 260.907 41.88C260.833 41.8 260.797 41.7033 260.797 41.59V37.23C260.797 37.1167 260.833 37.0233 260.907 36.95C260.987 36.87 261.083 36.83 261.197 36.83C261.317 36.83 261.413 36.87 261.487 36.95C261.56 37.0233 261.597 37.1167 261.597 37.23V37.94L261.397 38.16C261.43 37.9867 261.507 37.8133 261.627 37.64C261.747 37.46 261.897 37.3 262.077 37.16C262.257 37.02 262.457 36.91 262.677 36.83C262.897 36.7433 263.127 36.7 263.367 36.7Z" fill="#616161"/>
<defs>
<linearGradient id="paint0_linear_182_5019" x1="19" y1="11" x2="146" y2="11" gradientUnits="userSpaceOnUse">
<stop stop-color="#9038FF"/>
<stop offset="1" stop-color="#2F1155"/>
</linearGradient>
</defs>
</svg>
