<svg width="124" height="14" viewBox="0 0 124 14" fill="none" xmlns="http://www.w3.org/2000/svg">
<rect width="124" height="14" rx="7" fill="#90FFEA"/>
<path d="M12.3548 4C12.9415 4 13.3915 4.15333 13.7048 4.46C14.0248 4.76 14.1848 5.18667 14.1848 5.74C14.1848 6.03333 14.1182 6.30333 13.9848 6.55C13.8515 6.79667 13.6548 6.99333 13.3948 7.14C13.1415 7.28667 12.8282 7.36667 12.4548 7.38L12.4348 7.1C12.6682 7.1 12.9082 7.13333 13.1548 7.2C13.4015 7.26667 13.6282 7.37333 13.8348 7.52C14.0482 7.66667 14.2182 7.86 14.3448 8.1C14.4782 8.34 14.5448 8.63667 14.5448 8.99C14.5448 9.37 14.4815 9.69 14.3548 9.95C14.2282 10.2033 14.0582 10.41 13.8448 10.57C13.6382 10.7233 13.4048 10.8333 13.1448 10.9C12.8915 10.9667 12.6348 11 12.3748 11H9.74484C9.63151 11 9.53484 10.96 9.45484 10.88C9.38151 10.8 9.34484 10.7033 9.34484 10.59V4.4C9.34484 4.28667 9.38151 4.19333 9.45484 4.12C9.53484 4.04 9.63151 4 9.74484 4H12.3548ZM12.2348 4.79H10.0848L10.2048 4.61V7.1L10.0948 6.97H12.2548C12.5482 6.97 12.7982 6.87667 13.0048 6.69C13.2182 6.49667 13.3248 6.21333 13.3248 5.84C13.3248 5.50667 13.2282 5.25 13.0348 5.07C12.8415 4.88333 12.5748 4.79 12.2348 4.79ZM12.3148 7.77H10.1348L10.2048 7.7V10.31L10.1248 10.22H12.3448C12.7382 10.22 13.0582 10.12 13.3048 9.92C13.5582 9.72 13.6848 9.41 13.6848 8.99C13.6848 8.66333 13.6182 8.41333 13.4848 8.24C13.3515 8.06 13.1782 7.93667 12.9648 7.87C12.7582 7.80333 12.5415 7.77 12.3148 7.77ZM18.1183 11.1C17.5849 11.1 17.1183 10.9867 16.7183 10.76C16.3183 10.5333 16.0049 10.2233 15.7783 9.83C15.5583 9.43 15.4483 8.97 15.4483 8.45C15.4483 7.87 15.5616 7.37667 15.7883 6.97C16.0216 6.55667 16.3216 6.24333 16.6883 6.03C17.0616 5.81 17.4549 5.7 17.8683 5.7C18.1749 5.7 18.4716 5.75667 18.7583 5.87C19.0449 5.98333 19.2983 6.15 19.5183 6.37C19.7383 6.58333 19.9149 6.84333 20.0483 7.15C20.1816 7.45 20.2516 7.78667 20.2583 8.16C20.2583 8.26667 20.2183 8.35667 20.1383 8.43C20.0583 8.50333 19.9649 8.54 19.8583 8.54H15.9083L15.7283 7.85H19.5783L19.4183 7.99V7.77C19.3916 7.49667 19.2983 7.26333 19.1383 7.07C18.9849 6.87 18.7949 6.71667 18.5683 6.61C18.3483 6.50333 18.1149 6.45 17.8683 6.45C17.6683 6.45 17.4683 6.48667 17.2683 6.56C17.0749 6.62667 16.8983 6.74 16.7383 6.9C16.5849 7.05333 16.4583 7.25333 16.3583 7.5C16.2649 7.74667 16.2183 8.04333 16.2183 8.39C16.2183 8.77667 16.2949 9.11667 16.4483 9.41C16.6083 9.70333 16.8283 9.93667 17.1083 10.11C17.3883 10.2767 17.7149 10.36 18.0883 10.36C18.3216 10.36 18.5249 10.33 18.6983 10.27C18.8716 10.21 19.0216 10.1367 19.1483 10.05C19.2749 9.95667 19.3816 9.86333 19.4683 9.77C19.5549 9.71 19.6383 9.68 19.7183 9.68C19.8183 9.68 19.8983 9.71333 19.9583 9.78C20.0249 9.84667 20.0583 9.92667 20.0583 10.02C20.0583 10.1333 20.0049 10.2333 19.8983 10.32C19.7116 10.5267 19.4583 10.71 19.1383 10.87C18.8183 11.0233 18.4783 11.1 18.1183 11.1ZM23.9607 5.75C24.4007 5.75 24.7474 5.84667 25.0007 6.04C25.2607 6.22667 25.444 6.48 25.5507 6.8C25.664 7.11333 25.7207 7.46333 25.7207 7.85V10.59C25.7207 10.7033 25.6807 10.8 25.6007 10.88C25.5274 10.96 25.434 11 25.3207 11C25.2074 11 25.1107 10.96 25.0307 10.88C24.9574 10.8 24.9207 10.7033 24.9207 10.59V7.85C24.9207 7.59667 24.884 7.37 24.8107 7.17C24.7374 6.96333 24.614 6.8 24.4407 6.68C24.274 6.55333 24.044 6.49 23.7507 6.49C23.4774 6.49 23.2274 6.55333 23.0007 6.68C22.774 6.8 22.594 6.96333 22.4607 7.17C22.3274 7.37 22.2607 7.59667 22.2607 7.85V10.59C22.2607 10.7033 22.2207 10.8 22.1407 10.88C22.0674 10.96 21.974 11 21.8607 11C21.7474 11 21.6507 10.96 21.5707 10.88C21.4974 10.8 21.4607 10.7033 21.4607 10.59V4C21.4607 3.88667 21.4974 3.79333 21.5707 3.72C21.6507 3.64 21.7474 3.6 21.8607 3.6C21.9807 3.6 22.0774 3.64 22.1507 3.72C22.224 3.79333 22.2607 3.88667 22.2607 4V6.99L22.0607 7.21C22.094 7.03667 22.1674 6.86333 22.2807 6.69C22.394 6.51 22.5374 6.35 22.7107 6.21C22.884 6.07 23.0774 5.96 23.2907 5.88C23.504 5.79333 23.7274 5.75 23.9607 5.75ZM31.4629 5.78C31.5762 5.78 31.6696 5.82 31.7429 5.9C31.8229 5.97333 31.8629 6.06667 31.8629 6.18V10.59C31.8629 10.7033 31.8229 10.8 31.7429 10.88C31.6696 10.96 31.5762 11 31.4629 11C31.3429 11 31.2462 10.96 31.1729 10.88C31.0996 10.8 31.0629 10.7033 31.0629 10.59V9.64L31.2529 9.62C31.2529 9.76667 31.2029 9.92667 31.1029 10.1C31.0029 10.2733 30.8662 10.4367 30.6929 10.59C30.5196 10.7367 30.3129 10.86 30.0729 10.96C29.8396 11.0533 29.5862 11.1 29.3129 11.1C28.8596 11.1 28.4529 10.9833 28.0929 10.75C27.7329 10.51 27.4462 10.1867 27.2329 9.78C27.0262 9.37333 26.9229 8.91 26.9229 8.39C26.9229 7.86333 27.0262 7.4 27.2329 7C27.4462 6.59333 27.7329 6.27667 28.0929 6.05C28.4529 5.81667 28.8529 5.7 29.2929 5.7C29.5796 5.7 29.8462 5.74667 30.0929 5.84C30.3396 5.93333 30.5529 6.06 30.7329 6.22C30.9196 6.38 31.0629 6.55667 31.1629 6.75C31.2696 6.94333 31.3229 7.13667 31.3229 7.33L31.0629 7.27V6.18C31.0629 6.06667 31.0996 5.97333 31.1729 5.9C31.2462 5.82 31.3429 5.78 31.4629 5.78ZM29.4029 10.36C29.7362 10.36 30.0296 10.2733 30.2829 10.1C30.5429 9.92667 30.7429 9.69333 30.8829 9.4C31.0296 9.1 31.1029 8.76333 31.1029 8.39C31.1029 8.02333 31.0296 7.69333 30.8829 7.4C30.7429 7.1 30.5429 6.86667 30.2829 6.7C30.0296 6.52667 29.7362 6.44 29.4029 6.44C29.0762 6.44 28.7829 6.52333 28.5229 6.69C28.2696 6.85667 28.0696 7.08667 27.9229 7.38C27.7762 7.67333 27.7029 8.01 27.7029 8.39C27.7029 8.76333 27.7729 9.1 27.9129 9.4C28.0596 9.69333 28.2596 9.92667 28.5129 10.1C28.7729 10.2733 29.0696 10.36 29.4029 10.36ZM33.2283 5.74C33.3083 5.74 33.3849 5.76333 33.4583 5.81C33.5316 5.85 33.5849 5.91 33.6183 5.99L35.2783 9.89L35.1183 9.97L36.8083 6C36.8816 5.82 37.0049 5.73333 37.1783 5.74C37.2783 5.74 37.3649 5.77333 37.4383 5.84C37.5116 5.90667 37.5483 5.99 37.5483 6.09C37.5483 6.13 37.5416 6.17 37.5283 6.21C37.5216 6.24333 37.5116 6.27333 37.4983 6.3L35.5683 10.74C35.4949 10.9067 35.3783 10.9933 35.2183 11C35.1316 11.0067 35.0483 10.99 34.9683 10.95C34.8949 10.9033 34.8416 10.8333 34.8083 10.74L32.8783 6.31C32.8649 6.28333 32.8516 6.25333 32.8383 6.22C32.8316 6.18667 32.8283 6.14667 32.8283 6.1C32.8283 6.01333 32.8616 5.93333 32.9283 5.86C33.0016 5.78 33.1016 5.74 33.2283 5.74ZM39.3987 10.59C39.3987 10.7033 39.3587 10.8 39.2787 10.88C39.2053 10.96 39.112 11 38.9987 11C38.8787 11 38.782 10.96 38.7087 10.88C38.6353 10.8 38.5987 10.7033 38.5987 10.59V6.15C38.5987 6.03667 38.6353 5.94333 38.7087 5.87C38.7887 5.79 38.8853 5.75 38.9987 5.75C39.112 5.75 39.2053 5.79 39.2787 5.87C39.3587 5.94333 39.3987 6.03667 39.3987 6.15V10.59ZM38.9987 5.08C38.832 5.08 38.7087 5.04667 38.6287 4.98C38.5487 4.91333 38.5087 4.81 38.5087 4.67V4.53C38.5087 4.39 38.552 4.28667 38.6387 4.22C38.7253 4.15333 38.8487 4.12 39.0087 4.12C39.1687 4.12 39.2887 4.15333 39.3687 4.22C39.4487 4.28667 39.4887 4.39 39.4887 4.53V4.67C39.4887 4.81 39.4453 4.91333 39.3587 4.98C39.2787 5.04667 39.1587 5.08 38.9987 5.08ZM45.7457 8.4C45.7457 8.92 45.629 9.38333 45.3957 9.79C45.169 10.1967 44.859 10.5167 44.4657 10.75C44.079 10.9833 43.6424 11.1 43.1557 11.1C42.669 11.1 42.229 10.9833 41.8357 10.75C41.4424 10.5167 41.129 10.1967 40.8957 9.79C40.669 9.38333 40.5557 8.92 40.5557 8.4C40.5557 7.88 40.669 7.41667 40.8957 7.01C41.129 6.60333 41.4424 6.28333 41.8357 6.05C42.229 5.81667 42.669 5.7 43.1557 5.7C43.6424 5.7 44.079 5.81667 44.4657 6.05C44.859 6.28333 45.169 6.60333 45.3957 7.01C45.629 7.41667 45.7457 7.88 45.7457 8.4ZM44.9457 8.4C44.9457 8.01333 44.8657 7.67333 44.7057 7.38C44.5524 7.08667 44.339 6.85667 44.0657 6.69C43.799 6.52333 43.4957 6.44 43.1557 6.44C42.8157 6.44 42.509 6.52333 42.2357 6.69C41.969 6.85667 41.7557 7.08667 41.5957 7.38C41.4357 7.67333 41.3557 8.01333 41.3557 8.4C41.3557 8.78 41.4357 9.11667 41.5957 9.41C41.7557 9.70333 41.969 9.93667 42.2357 10.11C42.509 10.2767 42.8157 10.36 43.1557 10.36C43.4957 10.36 43.799 10.2767 44.0657 10.11C44.339 9.93667 44.5524 9.70333 44.7057 9.41C44.8657 9.11667 44.9457 8.78 44.9457 8.4ZM47.349 11C47.2357 11 47.139 10.96 47.059 10.88C46.9857 10.8 46.949 10.7033 46.949 10.59V6.23C46.949 6.11667 46.9857 6.02333 47.059 5.95C47.139 5.87 47.2357 5.83 47.349 5.83C47.469 5.83 47.5657 5.87 47.639 5.95C47.7123 6.02333 47.749 6.11667 47.749 6.23V7.55L47.629 7.34C47.669 7.13333 47.739 6.93333 47.839 6.74C47.9457 6.54 48.079 6.36333 48.239 6.21C48.399 6.05 48.5823 5.92667 48.789 5.84C48.9957 5.74667 49.2223 5.7 49.469 5.7C49.6157 5.7 49.749 5.73667 49.869 5.81C49.9957 5.87667 50.059 5.97333 50.059 6.1C50.059 6.24 50.0223 6.34333 49.949 6.41C49.8757 6.47667 49.7923 6.51 49.699 6.51C49.6123 6.51 49.529 6.49333 49.449 6.46C49.369 6.42 49.269 6.4 49.149 6.4C48.9823 6.4 48.8157 6.44667 48.649 6.54C48.489 6.62667 48.339 6.75333 48.199 6.92C48.0657 7.08667 47.9557 7.27667 47.869 7.49C47.789 7.69667 47.749 7.92 47.749 8.16V10.59C47.749 10.7033 47.709 10.8 47.629 10.88C47.5557 10.96 47.4623 11 47.349 11ZM54.2666 3.99C54.3266 3.99 54.3899 4.00667 54.4566 4.04C54.5299 4.07333 54.5866 4.11667 54.6266 4.17L57.2766 8.18L56.9266 8.17L59.6066 4.17C59.6932 4.04333 59.8066 3.98333 59.9466 3.99C60.0532 3.99667 60.1466 4.03667 60.2266 4.11C60.3066 4.18333 60.3466 4.28 60.3466 4.4V10.59C60.3466 10.7033 60.3066 10.8 60.2266 10.88C60.1466 10.96 60.0466 11 59.9266 11C59.8066 11 59.7066 10.96 59.6266 10.88C59.5466 10.8 59.5066 10.7033 59.5066 10.59V5.16L59.7566 5.21L57.3966 8.8C57.3566 8.84667 57.3066 8.88667 57.2466 8.92C57.1932 8.95333 57.1366 8.97 57.0766 8.97C57.0166 8.97 56.9566 8.95333 56.8966 8.92C56.8366 8.88667 56.7866 8.84667 56.7466 8.8L54.4166 5.21L54.6266 4.95V10.59C54.6266 10.7033 54.5899 10.8 54.5166 10.88C54.4432 10.96 54.3499 11 54.2366 11C54.1232 11 54.0299 10.96 53.9566 10.88C53.8899 10.8 53.8566 10.7033 53.8566 10.59V4.4C53.8566 4.29333 53.8932 4.2 53.9666 4.12C54.0466 4.03333 54.1466 3.99 54.2666 3.99ZM66.2188 5.78C66.3321 5.78 66.4254 5.82 66.4987 5.9C66.5788 5.97333 66.6188 6.06667 66.6188 6.18V10.59C66.6188 10.7033 66.5788 10.8 66.4987 10.88C66.4254 10.96 66.3321 11 66.2188 11C66.0988 11 66.0021 10.96 65.9288 10.88C65.8554 10.8 65.8188 10.7033 65.8188 10.59V9.64L66.0088 9.62C66.0088 9.76667 65.9588 9.92667 65.8588 10.1C65.7588 10.2733 65.6221 10.4367 65.4488 10.59C65.2754 10.7367 65.0688 10.86 64.8288 10.96C64.5954 11.0533 64.3421 11.1 64.0688 11.1C63.6154 11.1 63.2088 10.9833 62.8488 10.75C62.4888 10.51 62.2021 10.1867 61.9888 9.78C61.7821 9.37333 61.6788 8.91 61.6788 8.39C61.6788 7.86333 61.7821 7.4 61.9888 7C62.2021 6.59333 62.4888 6.27667 62.8488 6.05C63.2088 5.81667 63.6088 5.7 64.0488 5.7C64.3354 5.7 64.6021 5.74667 64.8488 5.84C65.0954 5.93333 65.3088 6.06 65.4888 6.22C65.6754 6.38 65.8188 6.55667 65.9188 6.75C66.0254 6.94333 66.0788 7.13667 66.0788 7.33L65.8188 7.27V6.18C65.8188 6.06667 65.8554 5.97333 65.9288 5.9C66.0021 5.82 66.0988 5.78 66.2188 5.78ZM64.1587 10.36C64.4921 10.36 64.7854 10.2733 65.0388 10.1C65.2988 9.92667 65.4988 9.69333 65.6388 9.4C65.7854 9.1 65.8588 8.76333 65.8588 8.39C65.8588 8.02333 65.7854 7.69333 65.6388 7.4C65.4988 7.1 65.2988 6.86667 65.0388 6.7C64.7854 6.52667 64.4921 6.44 64.1587 6.44C63.8321 6.44 63.5388 6.52333 63.2788 6.69C63.0254 6.85667 62.8254 7.08667 62.6788 7.38C62.5321 7.67333 62.4588 8.01 62.4588 8.39C62.4588 8.76333 62.5288 9.1 62.6688 9.4C62.8154 9.69333 63.0154 9.92667 63.2688 10.1C63.5288 10.2733 63.8254 10.36 64.1587 10.36ZM70.6713 5.7C71.1247 5.7 71.4813 5.79333 71.7413 5.98C72.0013 6.16667 72.1847 6.41667 72.2913 6.73C72.4047 7.04333 72.4613 7.39333 72.4613 7.78V10.59C72.4613 10.7033 72.4213 10.8 72.3413 10.88C72.268 10.96 72.1747 11 72.0613 11C71.948 11 71.8513 10.96 71.7713 10.88C71.698 10.8 71.6613 10.7033 71.6613 10.59V7.8C71.6613 7.54667 71.6213 7.32 71.5413 7.12C71.468 6.91333 71.3413 6.75 71.1613 6.63C70.988 6.50333 70.748 6.44 70.4413 6.44C70.1613 6.44 69.9047 6.50333 69.6713 6.63C69.438 6.75 69.2513 6.91333 69.1113 7.12C68.9713 7.32 68.9013 7.54667 68.9013 7.8V10.59C68.9013 10.7033 68.8613 10.8 68.7813 10.88C68.708 10.96 68.6147 11 68.5013 11C68.388 11 68.2913 10.96 68.2113 10.88C68.138 10.8 68.1013 10.7033 68.1013 10.59V6.23C68.1013 6.11667 68.138 6.02333 68.2113 5.95C68.2913 5.87 68.388 5.83 68.5013 5.83C68.6213 5.83 68.718 5.87 68.7913 5.95C68.8647 6.02333 68.9013 6.11667 68.9013 6.23V6.94L68.7013 7.16C68.7347 6.98667 68.8113 6.81333 68.9313 6.64C69.0513 6.46 69.2013 6.3 69.3813 6.16C69.5613 6.02 69.7613 5.91 69.9813 5.83C70.2013 5.74333 70.4313 5.7 70.6713 5.7ZM78.2012 5.78C78.3145 5.78 78.4078 5.82 78.4812 5.9C78.5612 5.97333 78.6012 6.06667 78.6012 6.18V10.59C78.6012 10.7033 78.5612 10.8 78.4812 10.88C78.4078 10.96 78.3145 11 78.2012 11C78.0812 11 77.9845 10.96 77.9112 10.88C77.8378 10.8 77.8012 10.7033 77.8012 10.59V9.64L77.9912 9.62C77.9912 9.76667 77.9412 9.92667 77.8412 10.1C77.7412 10.2733 77.6045 10.4367 77.4312 10.59C77.2578 10.7367 77.0512 10.86 76.8112 10.96C76.5778 11.0533 76.3245 11.1 76.0512 11.1C75.5978 11.1 75.1912 10.9833 74.8312 10.75C74.4712 10.51 74.1845 10.1867 73.9712 9.78C73.7645 9.37333 73.6612 8.91 73.6612 8.39C73.6612 7.86333 73.7645 7.4 73.9712 7C74.1845 6.59333 74.4712 6.27667 74.8312 6.05C75.1912 5.81667 75.5912 5.7 76.0312 5.7C76.3178 5.7 76.5845 5.74667 76.8312 5.84C77.0778 5.93333 77.2912 6.06 77.4712 6.22C77.6578 6.38 77.8012 6.55667 77.9012 6.75C78.0078 6.94333 78.0612 7.13667 78.0612 7.33L77.8012 7.27V6.18C77.8012 6.06667 77.8378 5.97333 77.9112 5.9C77.9845 5.82 78.0812 5.78 78.2012 5.78ZM76.1412 10.36C76.4745 10.36 76.7678 10.2733 77.0212 10.1C77.2812 9.92667 77.4812 9.69333 77.6212 9.4C77.7678 9.1 77.8412 8.76333 77.8412 8.39C77.8412 8.02333 77.7678 7.69333 77.6212 7.4C77.4812 7.1 77.2812 6.86667 77.0212 6.7C76.7678 6.52667 76.4745 6.44 76.1412 6.44C75.8145 6.44 75.5212 6.52333 75.2612 6.69C75.0078 6.85667 74.8078 7.08667 74.6612 7.38C74.5145 7.67333 74.4412 8.01 74.4412 8.39C74.4412 8.76333 74.5112 9.1 74.6512 9.4C74.7978 9.69333 74.9978 9.92667 75.2512 10.1C75.5112 10.2733 75.8078 10.36 76.1412 10.36ZM82.2538 5.7C82.5404 5.7 82.8071 5.75 83.0538 5.85C83.3004 5.94333 83.5138 6.06667 83.6938 6.22C83.8804 6.37333 84.0238 6.53333 84.1238 6.7C84.2304 6.86667 84.2838 7.02333 84.2838 7.17L84.0938 7.05V6.18C84.0938 6.06667 84.1304 5.97333 84.2038 5.9C84.2771 5.82 84.3738 5.78 84.4938 5.78C84.6071 5.78 84.7004 5.82 84.7738 5.9C84.8538 5.97333 84.8938 6.06667 84.8938 6.18V10.56C84.8938 11.1067 84.7771 11.56 84.5438 11.92C84.3171 12.28 84.0104 12.55 83.6238 12.73C83.2371 12.91 82.8038 13 82.3238 13C82.1238 13 81.9038 12.9733 81.6638 12.92C81.4238 12.8667 81.2104 12.8 81.0238 12.72C80.8371 12.6467 80.7171 12.57 80.6637 12.49C80.5638 12.4233 80.5004 12.3467 80.4738 12.26C80.4538 12.18 80.4704 12.1033 80.5238 12.03C80.5838 11.9367 80.6604 11.89 80.7538 11.89C80.8538 11.89 80.9771 11.92 81.1238 11.98C81.1838 12 81.2771 12.0333 81.4038 12.08C81.5371 12.1267 81.6838 12.1667 81.8438 12.2C82.0104 12.24 82.1738 12.26 82.3338 12.26C82.9004 12.26 83.3338 12.11 83.6338 11.81C83.9404 11.5167 84.0938 11.1267 84.0938 10.64V9.71L84.2038 9.76C84.1638 9.94667 84.0804 10.12 83.9538 10.28C83.8338 10.44 83.6838 10.5833 83.5038 10.71C83.3304 10.83 83.1371 10.9267 82.9238 11C82.7104 11.0667 82.4938 11.1 82.2738 11.1C81.8071 11.1 81.3871 10.9833 81.0138 10.75C80.6404 10.5167 80.3438 10.1967 80.1238 9.79C79.9104 9.38333 79.8038 8.92 79.8038 8.4C79.8038 7.87333 79.9104 7.40667 80.1238 7C80.3438 6.59333 80.6371 6.27667 81.0038 6.05C81.3771 5.81667 81.7938 5.7 82.2538 5.7ZM82.3538 6.44C82.0138 6.44 81.7071 6.52667 81.4338 6.7C81.1671 6.86667 80.9571 7.09667 80.8038 7.39C80.6571 7.68333 80.5838 8.02 80.5838 8.4C80.5838 8.76667 80.6571 9.1 80.8038 9.4C80.9571 9.69333 81.1671 9.92667 81.4338 10.1C81.7071 10.2733 82.0138 10.36 82.3538 10.36C82.7004 10.36 83.0071 10.2767 83.2738 10.11C83.5404 9.93667 83.7504 9.70333 83.9038 9.41C84.0571 9.11667 84.1338 8.78 84.1338 8.4C84.1338 8.01333 84.0571 7.67333 83.9038 7.38C83.7504 7.08667 83.5404 6.85667 83.2738 6.69C83.0071 6.52333 82.7004 6.44 82.3538 6.44ZM88.5675 11.1C88.0342 11.1 87.5675 10.9867 87.1675 10.76C86.7675 10.5333 86.4542 10.2233 86.2275 9.83C86.0075 9.43 85.8975 8.97 85.8975 8.45C85.8975 7.87 86.0108 7.37667 86.2375 6.97C86.4708 6.55667 86.7708 6.24333 87.1375 6.03C87.5108 5.81 87.9042 5.7 88.3175 5.7C88.6242 5.7 88.9208 5.75667 89.2075 5.87C89.4942 5.98333 89.7475 6.15 89.9675 6.37C90.1875 6.58333 90.3642 6.84333 90.4975 7.15C90.6308 7.45 90.7008 7.78667 90.7075 8.16C90.7075 8.26667 90.6675 8.35667 90.5875 8.43C90.5075 8.50333 90.4142 8.54 90.3075 8.54H86.3575L86.1775 7.85H90.0275L89.8675 7.99V7.77C89.8408 7.49667 89.7475 7.26333 89.5875 7.07C89.4342 6.87 89.2442 6.71667 89.0175 6.61C88.7975 6.50333 88.5642 6.45 88.3175 6.45C88.1175 6.45 87.9175 6.48667 87.7175 6.56C87.5242 6.62667 87.3475 6.74 87.1875 6.9C87.0342 7.05333 86.9075 7.25333 86.8075 7.5C86.7142 7.74667 86.6675 8.04333 86.6675 8.39C86.6675 8.77667 86.7442 9.11667 86.8975 9.41C87.0575 9.70333 87.2775 9.93667 87.5575 10.11C87.8375 10.2767 88.1642 10.36 88.5375 10.36C88.7708 10.36 88.9742 10.33 89.1475 10.27C89.3208 10.21 89.4708 10.1367 89.5975 10.05C89.7242 9.95667 89.8308 9.86333 89.9175 9.77C90.0042 9.71 90.0875 9.68 90.1675 9.68C90.2675 9.68 90.3475 9.71333 90.4075 9.78C90.4742 9.84667 90.5075 9.92667 90.5075 10.02C90.5075 10.1333 90.4542 10.2333 90.3475 10.32C90.1608 10.5267 89.9075 10.71 89.5875 10.87C89.2675 11.0233 88.9275 11.1 88.5675 11.1ZM94.3799 5.75C94.8333 5.75 95.1999 5.86667 95.4799 6.1C95.7666 6.32667 95.9566 6.65 96.0499 7.07H95.8999L95.9699 6.89C96.0499 6.70333 96.1866 6.52333 96.3799 6.35C96.5733 6.17667 96.7966 6.03333 97.0499 5.92C97.3033 5.80667 97.5666 5.75 97.8399 5.75C98.2799 5.75 98.6266 5.84667 98.8799 6.04C99.1333 6.22667 99.3133 6.48 99.4199 6.8C99.5333 7.11333 99.5899 7.46667 99.5899 7.86V10.59C99.5899 10.7033 99.5499 10.8 99.4699 10.88C99.3966 10.96 99.3033 11 99.1899 11C99.0699 11 98.9733 10.96 98.8999 10.88C98.8266 10.8 98.7899 10.7033 98.7899 10.59V7.88C98.7899 7.62 98.7499 7.38667 98.6699 7.18C98.5966 6.96667 98.4733 6.8 98.2999 6.68C98.1333 6.55333 97.9033 6.49 97.6099 6.49C97.3366 6.49 97.0866 6.55333 96.8599 6.68C96.6333 6.8 96.4533 6.96667 96.3199 7.18C96.1866 7.38667 96.1199 7.62 96.1199 7.88V10.59C96.1199 10.7033 96.0833 10.8 96.0099 10.88C95.9366 10.96 95.8399 11 95.7199 11C95.6066 11 95.5099 10.96 95.4299 10.88C95.3566 10.8 95.3199 10.7033 95.3199 10.59V7.85C95.3199 7.59667 95.2833 7.37 95.2099 7.17C95.1433 6.96333 95.0266 6.8 94.8599 6.68C94.6933 6.55333 94.4633 6.49 94.1699 6.49C93.9033 6.49 93.6599 6.55333 93.4399 6.68C93.2199 6.8 93.0433 6.96333 92.9099 7.17C92.7766 7.37 92.7099 7.59667 92.7099 7.85V10.59C92.7099 10.7033 92.6699 10.8 92.5899 10.88C92.5166 10.96 92.4233 11 92.3099 11C92.1966 11 92.0999 10.96 92.0199 10.88C91.9466 10.8 91.9099 10.7033 91.9099 10.59V6.23C91.9099 6.11667 91.9466 6.02333 92.0199 5.95C92.0999 5.87 92.1966 5.83 92.3099 5.83C92.4299 5.83 92.5266 5.87 92.5999 5.95C92.6733 6.02333 92.7099 6.11667 92.7099 6.23V6.99L92.4899 7.23C92.5166 7.05667 92.5833 6.88333 92.6899 6.71C92.8033 6.53667 92.9466 6.37667 93.1199 6.23C93.2933 6.08333 93.4866 5.96667 93.6999 5.88C93.9133 5.79333 94.1399 5.75 94.3799 5.75ZM103.46 11.1C102.927 11.1 102.46 10.9867 102.06 10.76C101.66 10.5333 101.347 10.2233 101.12 9.83C100.9 9.43 100.79 8.97 100.79 8.45C100.79 7.87 100.903 7.37667 101.13 6.97C101.363 6.55667 101.663 6.24333 102.03 6.03C102.403 5.81 102.797 5.7 103.21 5.7C103.517 5.7 103.813 5.75667 104.1 5.87C104.387 5.98333 104.64 6.15 104.86 6.37C105.08 6.58333 105.257 6.84333 105.39 7.15C105.523 7.45 105.593 7.78667 105.6 8.16C105.6 8.26667 105.56 8.35667 105.48 8.43C105.4 8.50333 105.307 8.54 105.2 8.54H101.25L101.07 7.85H104.92L104.76 7.99V7.77C104.733 7.49667 104.64 7.26333 104.48 7.07C104.327 6.87 104.137 6.71667 103.91 6.61C103.69 6.50333 103.457 6.45 103.21 6.45C103.01 6.45 102.81 6.48667 102.61 6.56C102.417 6.62667 102.24 6.74 102.08 6.9C101.927 7.05333 101.8 7.25333 101.7 7.5C101.607 7.74667 101.56 8.04333 101.56 8.39C101.56 8.77667 101.637 9.11667 101.79 9.41C101.95 9.70333 102.17 9.93667 102.45 10.11C102.73 10.2767 103.057 10.36 103.43 10.36C103.663 10.36 103.867 10.33 104.04 10.27C104.213 10.21 104.363 10.1367 104.49 10.05C104.617 9.95667 104.723 9.86333 104.81 9.77C104.897 9.71 104.98 9.68 105.06 9.68C105.16 9.68 105.24 9.71333 105.3 9.78C105.367 9.84667 105.4 9.92667 105.4 10.02C105.4 10.1333 105.347 10.2333 105.24 10.32C105.053 10.5267 104.8 10.71 104.48 10.87C104.16 11.0233 103.82 11.1 103.46 11.1ZM109.373 5.7C109.826 5.7 110.183 5.79333 110.443 5.98C110.703 6.16667 110.886 6.41667 110.993 6.73C111.106 7.04333 111.163 7.39333 111.163 7.78V10.59C111.163 10.7033 111.123 10.8 111.043 10.88C110.969 10.96 110.876 11 110.763 11C110.649 11 110.553 10.96 110.473 10.88C110.399 10.8 110.363 10.7033 110.363 10.59V7.8C110.363 7.54667 110.323 7.32 110.243 7.12C110.169 6.91333 110.043 6.75 109.863 6.63C109.689 6.50333 109.449 6.44 109.143 6.44C108.863 6.44 108.606 6.50333 108.373 6.63C108.139 6.75 107.953 6.91333 107.813 7.12C107.673 7.32 107.603 7.54667 107.603 7.8V10.59C107.603 10.7033 107.563 10.8 107.483 10.88C107.409 10.96 107.316 11 107.203 11C107.089 11 106.993 10.96 106.913 10.88C106.839 10.8 106.803 10.7033 106.803 10.59V6.23C106.803 6.11667 106.839 6.02333 106.913 5.95C106.993 5.87 107.089 5.83 107.203 5.83C107.323 5.83 107.419 5.87 107.493 5.95C107.566 6.02333 107.603 6.11667 107.603 6.23V6.94L107.403 7.16C107.436 6.98667 107.513 6.81333 107.633 6.64C107.753 6.46 107.903 6.3 108.083 6.16C108.263 6.02 108.463 5.91 108.683 5.83C108.903 5.74333 109.133 5.7 109.373 5.7ZM112.442 5.86H114.792C114.899 5.86 114.986 5.89667 115.052 5.97C115.126 6.04333 115.162 6.13 115.162 6.23C115.162 6.33667 115.126 6.42667 115.052 6.5C114.986 6.56667 114.899 6.6 114.792 6.6H112.442C112.342 6.6 112.256 6.56333 112.182 6.49C112.109 6.41667 112.072 6.32667 112.072 6.22C112.072 6.12 112.109 6.03667 112.182 5.97C112.256 5.89667 112.342 5.86 112.442 5.86ZM113.492 4.5C113.606 4.5 113.699 4.54 113.772 4.62C113.846 4.69333 113.882 4.78667 113.882 4.9V9.73C113.882 9.89 113.906 10.01 113.952 10.09C113.999 10.17 114.059 10.2267 114.132 10.26C114.212 10.2867 114.289 10.3 114.362 10.3C114.429 10.3 114.486 10.29 114.532 10.27C114.586 10.2433 114.646 10.23 114.712 10.23C114.779 10.23 114.839 10.2633 114.892 10.33C114.952 10.39 114.982 10.47 114.982 10.57C114.982 10.69 114.912 10.7933 114.772 10.88C114.632 10.96 114.476 11 114.302 11C114.209 11 114.092 10.9933 113.952 10.98C113.819 10.9667 113.686 10.9233 113.552 10.85C113.419 10.7767 113.306 10.6567 113.212 10.49C113.126 10.3167 113.082 10.0767 113.082 9.77V4.9C113.082 4.78667 113.122 4.69333 113.202 4.62C113.282 4.54 113.379 4.5 113.492 4.5Z" fill="black"/>
</svg>
