<svg width="128" height="14" viewBox="0 0 128 14" fill="none" xmlns="http://www.w3.org/2000/svg">
<rect width="128" height="14" rx="7" fill="#A368FF"/>
<path d="M9.28879 4H12.8488C12.9621 4 13.0588 4.03667 13.1388 4.11C13.2188 4.18333 13.2588 4.27667 13.2588 4.39C13.2588 4.50333 13.2188 4.59667 13.1388 4.67C13.0588 4.73667 12.9621 4.77 12.8488 4.77H9.62879L9.71879 4.6V7.13L9.61879 7.02H12.3988C12.5121 7.02 12.6088 7.05667 12.6888 7.13C12.7688 7.20333 12.8088 7.29667 12.8088 7.41C12.8088 7.52333 12.7688 7.61667 12.6888 7.69C12.6088 7.75667 12.5121 7.79 12.3988 7.79H9.64879L9.71879 7.7V10.29L9.65879 10.22H12.8488C12.9621 10.22 13.0588 10.26 13.1388 10.34C13.2188 10.42 13.2588 10.51 13.2588 10.61C13.2588 10.7233 13.2188 10.8167 13.1388 10.89C13.0588 10.9633 12.9621 11 12.8488 11H9.28879C9.17546 11 9.07879 10.96 8.99879 10.88C8.92546 10.8 8.88879 10.7033 8.88879 10.59V4.4C8.88879 4.28667 8.92546 4.19333 8.99879 4.12C9.07879 4.04 9.17546 4 9.28879 4ZM18.6631 3.6C18.7764 3.6 18.8698 3.64 18.9431 3.72C19.0231 3.79333 19.0631 3.88667 19.0631 4V10.59C19.0631 10.7033 19.0231 10.8 18.9431 10.88C18.8698 10.96 18.7764 11 18.6631 11C18.5431 11 18.4464 10.96 18.3731 10.88C18.2998 10.8 18.2631 10.7033 18.2631 10.59V9.64L18.4531 9.57C18.4531 9.73 18.4031 9.9 18.3031 10.08C18.2031 10.2533 18.0664 10.4167 17.8931 10.57C17.7198 10.7233 17.5131 10.85 17.2731 10.95C17.0398 11.05 16.7864 11.1 16.5131 11.1C16.0664 11.1 15.6598 10.9833 15.2931 10.75C14.9331 10.5167 14.6464 10.1967 14.4331 9.79C14.2264 9.38333 14.1231 8.92 14.1231 8.4C14.1231 7.87333 14.2264 7.40667 14.4331 7C14.6464 6.59333 14.9331 6.27667 15.2931 6.05C15.6531 5.81667 16.0531 5.7 16.4931 5.7C16.7731 5.7 17.0364 5.74667 17.2831 5.84C17.5298 5.93333 17.7431 6.06 17.9231 6.22C18.1098 6.38 18.2564 6.55667 18.3631 6.75C18.4698 6.94333 18.5231 7.13667 18.5231 7.33L18.2631 7.27V4C18.2631 3.88667 18.2998 3.79333 18.3731 3.72C18.4464 3.64 18.5431 3.6 18.6631 3.6ZM16.6031 10.36C16.9364 10.36 17.2298 10.2767 17.4831 10.11C17.7431 9.93667 17.9431 9.70333 18.0831 9.41C18.2298 9.11 18.3031 8.77333 18.3031 8.4C18.3031 8.02 18.2298 7.68333 18.0831 7.39C17.9431 7.09667 17.7431 6.86667 17.4831 6.7C17.2298 6.52667 16.9364 6.44 16.6031 6.44C16.2764 6.44 15.9831 6.52667 15.7231 6.7C15.4698 6.86667 15.2698 7.09667 15.1231 7.39C14.9764 7.68333 14.9031 8.02 14.9031 8.4C14.9031 8.76667 14.9764 9.1 15.1231 9.4C15.2698 9.69333 15.4698 9.92667 15.7231 10.1C15.9831 10.2733 16.2764 10.36 16.6031 10.36ZM24.5719 5.83C24.6919 5.83 24.7886 5.87 24.8619 5.95C24.9352 6.02333 24.9719 6.11667 24.9719 6.23V8.96C24.9719 9.63333 24.7819 10.1567 24.4019 10.53C24.0286 10.8967 23.5052 11.08 22.8319 11.08C22.1652 11.08 21.6419 10.8967 21.2619 10.53C20.8886 10.1567 20.7019 9.63333 20.7019 8.96V6.23C20.7019 6.11667 20.7386 6.02333 20.8119 5.95C20.8919 5.87 20.9886 5.83 21.1019 5.83C21.2219 5.83 21.3186 5.87 21.3919 5.95C21.4652 6.02333 21.5019 6.11667 21.5019 6.23V8.96C21.5019 9.41333 21.6186 9.75667 21.8519 9.99C22.0852 10.2233 22.4119 10.34 22.8319 10.34C23.2652 10.34 23.5952 10.2233 23.8219 9.99C24.0552 9.75667 24.1719 9.41333 24.1719 8.96V6.23C24.1719 6.11667 24.2086 6.02333 24.2819 5.95C24.3619 5.87 24.4586 5.83 24.5719 5.83ZM28.7539 5.7C29.0939 5.7 29.4005 5.73667 29.6739 5.81C29.9472 5.88333 30.1639 5.98333 30.3239 6.11C30.4839 6.23667 30.5639 6.38 30.5639 6.54C30.5639 6.62667 30.5339 6.71 30.4739 6.79C30.4139 6.87 30.3339 6.91 30.2339 6.91C30.1405 6.91 30.0639 6.89333 30.0039 6.86C29.9505 6.82667 29.8972 6.78333 29.8439 6.73C29.7972 6.67667 29.7305 6.63 29.6439 6.59C29.5639 6.54333 29.4472 6.50667 29.2939 6.48C29.1405 6.45333 28.9872 6.44 28.8339 6.44C28.4672 6.44 28.1439 6.52667 27.8639 6.7C27.5905 6.87333 27.3739 7.10667 27.2139 7.4C27.0539 7.69333 26.9739 8.02667 26.9739 8.4C26.9739 8.77333 27.0505 9.10667 27.2039 9.4C27.3572 9.69333 27.5705 9.92667 27.8439 10.1C28.1172 10.2733 28.4339 10.36 28.7939 10.36C29.0272 10.36 29.2139 10.34 29.3539 10.3C29.4939 10.26 29.6105 10.2133 29.7039 10.16C29.8239 10.0933 29.9139 10.0267 29.9739 9.96C30.0405 9.89333 30.1272 9.86 30.2339 9.86C30.3472 9.86 30.4339 9.89667 30.4939 9.97C30.5605 10.0433 30.5939 10.1333 30.5939 10.24C30.5939 10.36 30.5105 10.4867 30.3439 10.62C30.1772 10.7533 29.9505 10.8667 29.6639 10.96C29.3839 11.0533 29.0639 11.1 28.7039 11.1C28.1972 11.1 27.7539 10.9833 27.3739 10.75C26.9939 10.51 26.6972 10.1867 26.4839 9.78C26.2772 9.36667 26.1739 8.90667 26.1739 8.4C26.1739 7.89333 26.2805 7.43667 26.4939 7.03C26.7139 6.62333 27.0172 6.3 27.4039 6.06C27.7905 5.82 28.2405 5.7 28.7539 5.7ZM35.8994 5.78C36.0127 5.78 36.1061 5.82 36.1794 5.9C36.2594 5.97333 36.2994 6.06667 36.2994 6.18V10.59C36.2994 10.7033 36.2594 10.8 36.1794 10.88C36.1061 10.96 36.0127 11 35.8994 11C35.7794 11 35.6827 10.96 35.6094 10.88C35.5361 10.8 35.4994 10.7033 35.4994 10.59V9.64L35.6894 9.62C35.6894 9.76667 35.6394 9.92667 35.5394 10.1C35.4394 10.2733 35.3027 10.4367 35.1294 10.59C34.9561 10.7367 34.7494 10.86 34.5094 10.96C34.2761 11.0533 34.0227 11.1 33.7494 11.1C33.2961 11.1 32.8894 10.9833 32.5294 10.75C32.1694 10.51 31.8827 10.1867 31.6694 9.78C31.4627 9.37333 31.3594 8.91 31.3594 8.39C31.3594 7.86333 31.4627 7.4 31.6694 7C31.8827 6.59333 32.1694 6.27667 32.5294 6.05C32.8894 5.81667 33.2894 5.7 33.7294 5.7C34.0161 5.7 34.2827 5.74667 34.5294 5.84C34.7761 5.93333 34.9894 6.06 35.1694 6.22C35.3561 6.38 35.4994 6.55667 35.5994 6.75C35.7061 6.94333 35.7594 7.13667 35.7594 7.33L35.4994 7.27V6.18C35.4994 6.06667 35.5361 5.97333 35.6094 5.9C35.6827 5.82 35.7794 5.78 35.8994 5.78ZM33.8394 10.36C34.1727 10.36 34.4661 10.2733 34.7194 10.1C34.9794 9.92667 35.1794 9.69333 35.3194 9.4C35.4661 9.1 35.5394 8.76333 35.5394 8.39C35.5394 8.02333 35.4661 7.69333 35.3194 7.4C35.1794 7.1 34.9794 6.86667 34.7194 6.7C34.4661 6.52667 34.1727 6.44 33.8394 6.44C33.5127 6.44 33.2194 6.52333 32.9594 6.69C32.7061 6.85667 32.5061 7.08667 32.3594 7.38C32.2127 7.67333 32.1394 8.01 32.1394 8.39C32.1394 8.76333 32.2094 9.1 32.3494 9.4C32.4961 9.69333 32.6961 9.92667 32.9494 10.1C33.2094 10.2733 33.5061 10.36 33.8394 10.36ZM37.582 5.86H39.932C40.0387 5.86 40.1253 5.89667 40.192 5.97C40.2653 6.04333 40.302 6.13 40.302 6.23C40.302 6.33667 40.2653 6.42667 40.192 6.5C40.1253 6.56667 40.0387 6.6 39.932 6.6H37.582C37.482 6.6 37.3953 6.56333 37.322 6.49C37.2487 6.41667 37.212 6.32667 37.212 6.22C37.212 6.12 37.2487 6.03667 37.322 5.97C37.3953 5.89667 37.482 5.86 37.582 5.86ZM38.632 4.5C38.7453 4.5 38.8387 4.54 38.912 4.62C38.9853 4.69333 39.022 4.78667 39.022 4.9V9.73C39.022 9.89 39.0453 10.01 39.092 10.09C39.1387 10.17 39.1987 10.2267 39.272 10.26C39.352 10.2867 39.4287 10.3 39.502 10.3C39.5687 10.3 39.6253 10.29 39.672 10.27C39.7253 10.2433 39.7853 10.23 39.852 10.23C39.9187 10.23 39.9787 10.2633 40.032 10.33C40.092 10.39 40.122 10.47 40.122 10.57C40.122 10.69 40.052 10.7933 39.912 10.88C39.772 10.96 39.6153 11 39.442 11C39.3487 11 39.232 10.9933 39.092 10.98C38.9587 10.9667 38.8253 10.9233 38.692 10.85C38.5587 10.7767 38.4453 10.6567 38.352 10.49C38.2653 10.3167 38.222 10.0767 38.222 9.77V4.9C38.222 4.78667 38.262 4.69333 38.342 4.62C38.422 4.54 38.5187 4.5 38.632 4.5ZM42.1848 10.59C42.1848 10.7033 42.1448 10.8 42.0648 10.88C41.9915 10.96 41.8981 11 41.7848 11C41.6648 11 41.5681 10.96 41.4948 10.88C41.4215 10.8 41.3848 10.7033 41.3848 10.59V6.15C41.3848 6.03667 41.4215 5.94333 41.4948 5.87C41.5748 5.79 41.6715 5.75 41.7848 5.75C41.8981 5.75 41.9915 5.79 42.0648 5.87C42.1448 5.94333 42.1848 6.03667 42.1848 6.15V10.59ZM41.7848 5.08C41.6181 5.08 41.4948 5.04667 41.4148 4.98C41.3348 4.91333 41.2948 4.81 41.2948 4.67V4.53C41.2948 4.39 41.3381 4.28667 41.4248 4.22C41.5115 4.15333 41.6348 4.12 41.7948 4.12C41.9548 4.12 42.0748 4.15333 42.1548 4.22C42.2348 4.28667 42.2748 4.39 42.2748 4.53V4.67C42.2748 4.81 42.2315 4.91333 42.1448 4.98C42.0648 5.04667 41.9448 5.08 41.7848 5.08ZM48.5318 8.4C48.5318 8.92 48.4152 9.38333 48.1818 9.79C47.9552 10.1967 47.6452 10.5167 47.2518 10.75C46.8652 10.9833 46.4285 11.1 45.9418 11.1C45.4552 11.1 45.0152 10.9833 44.6218 10.75C44.2285 10.5167 43.9152 10.1967 43.6818 9.79C43.4552 9.38333 43.3418 8.92 43.3418 8.4C43.3418 7.88 43.4552 7.41667 43.6818 7.01C43.9152 6.60333 44.2285 6.28333 44.6218 6.05C45.0152 5.81667 45.4552 5.7 45.9418 5.7C46.4285 5.7 46.8652 5.81667 47.2518 6.05C47.6452 6.28333 47.9552 6.60333 48.1818 7.01C48.4152 7.41667 48.5318 7.88 48.5318 8.4ZM47.7318 8.4C47.7318 8.01333 47.6518 7.67333 47.4918 7.38C47.3385 7.08667 47.1252 6.85667 46.8518 6.69C46.5852 6.52333 46.2818 6.44 45.9418 6.44C45.6018 6.44 45.2952 6.52333 45.0218 6.69C44.7552 6.85667 44.5418 7.08667 44.3818 7.38C44.2218 7.67333 44.1418 8.01333 44.1418 8.4C44.1418 8.78 44.2218 9.11667 44.3818 9.41C44.5418 9.70333 44.7552 9.93667 45.0218 10.11C45.2952 10.2767 45.6018 10.36 45.9418 10.36C46.2818 10.36 46.5852 10.2767 46.8518 10.11C47.1252 9.93667 47.3385 9.70333 47.4918 9.41C47.6518 9.11667 47.7318 8.78 47.7318 8.4ZM52.3051 5.7C52.7585 5.7 53.1151 5.79333 53.3751 5.98C53.6351 6.16667 53.8185 6.41667 53.9251 6.73C54.0385 7.04333 54.0951 7.39333 54.0951 7.78V10.59C54.0951 10.7033 54.0551 10.8 53.9751 10.88C53.9018 10.96 53.8085 11 53.6951 11C53.5818 11 53.4851 10.96 53.4051 10.88C53.3318 10.8 53.2951 10.7033 53.2951 10.59V7.8C53.2951 7.54667 53.2551 7.32 53.1751 7.12C53.1018 6.91333 52.9751 6.75 52.7951 6.63C52.6218 6.50333 52.3818 6.44 52.0751 6.44C51.7951 6.44 51.5385 6.50333 51.3051 6.63C51.0718 6.75 50.8851 6.91333 50.7451 7.12C50.6051 7.32 50.5351 7.54667 50.5351 7.8V10.59C50.5351 10.7033 50.4951 10.8 50.4151 10.88C50.3418 10.96 50.2485 11 50.1351 11C50.0218 11 49.9251 10.96 49.8451 10.88C49.7718 10.8 49.7351 10.7033 49.7351 10.59V6.23C49.7351 6.11667 49.7718 6.02333 49.8451 5.95C49.9251 5.87 50.0218 5.83 50.1351 5.83C50.2551 5.83 50.3518 5.87 50.4251 5.95C50.4985 6.02333 50.5351 6.11667 50.5351 6.23V6.94L50.3351 7.16C50.3685 6.98667 50.4451 6.81333 50.5651 6.64C50.6851 6.46 50.8351 6.3 51.0151 6.16C51.1951 6.02 51.3951 5.91 51.6151 5.83C51.8351 5.74333 52.0651 5.7 52.3051 5.7ZM62.5889 5.78C62.7022 5.78 62.7955 5.82 62.8689 5.9C62.9489 5.97333 62.9889 6.06667 62.9889 6.18V10.59C62.9889 10.7033 62.9489 10.8 62.8689 10.88C62.7955 10.96 62.7022 11 62.5889 11C62.4689 11 62.3722 10.96 62.2989 10.88C62.2255 10.8 62.1889 10.7033 62.1889 10.59V9.64L62.3789 9.62C62.3789 9.76667 62.3289 9.92667 62.2289 10.1C62.1289 10.2733 61.9922 10.4367 61.8189 10.59C61.6455 10.7367 61.4389 10.86 61.1989 10.96C60.9655 11.0533 60.7122 11.1 60.4389 11.1C59.9855 11.1 59.5789 10.9833 59.2189 10.75C58.8589 10.51 58.5722 10.1867 58.3589 9.78C58.1522 9.37333 58.0489 8.91 58.0489 8.39C58.0489 7.86333 58.1522 7.4 58.3589 7C58.5722 6.59333 58.8589 6.27667 59.2189 6.05C59.5789 5.81667 59.9789 5.7 60.4189 5.7C60.7055 5.7 60.9722 5.74667 61.2189 5.84C61.4655 5.93333 61.6789 6.06 61.8589 6.22C62.0455 6.38 62.1889 6.55667 62.2889 6.75C62.3955 6.94333 62.4489 7.13667 62.4489 7.33L62.1889 7.27V6.18C62.1889 6.06667 62.2255 5.97333 62.2989 5.9C62.3722 5.82 62.4689 5.78 62.5889 5.78ZM60.5289 10.36C60.8622 10.36 61.1555 10.2733 61.4089 10.1C61.6689 9.92667 61.8689 9.69333 62.0089 9.4C62.1555 9.1 62.2289 8.76333 62.2289 8.39C62.2289 8.02333 62.1555 7.69333 62.0089 7.4C61.8689 7.1 61.6689 6.86667 61.4089 6.7C61.1555 6.52667 60.8622 6.44 60.5289 6.44C60.2022 6.44 59.9089 6.52333 59.6489 6.69C59.3955 6.85667 59.1955 7.08667 59.0489 7.38C58.9022 7.67333 58.8289 8.01 58.8289 8.39C58.8289 8.76333 58.8989 9.1 59.0389 9.4C59.1855 9.69333 59.3855 9.92667 59.6389 10.1C59.8989 10.2733 60.1955 10.36 60.5289 10.36ZM67.0414 5.7C67.4948 5.7 67.8514 5.79333 68.1114 5.98C68.3714 6.16667 68.5548 6.41667 68.6614 6.73C68.7748 7.04333 68.8314 7.39333 68.8314 7.78V10.59C68.8314 10.7033 68.7914 10.8 68.7114 10.88C68.6381 10.96 68.5448 11 68.4314 11C68.3181 11 68.2214 10.96 68.1414 10.88C68.0681 10.8 68.0314 10.7033 68.0314 10.59V7.8C68.0314 7.54667 67.9914 7.32 67.9114 7.12C67.8381 6.91333 67.7114 6.75 67.5314 6.63C67.3581 6.50333 67.1181 6.44 66.8114 6.44C66.5314 6.44 66.2748 6.50333 66.0414 6.63C65.8081 6.75 65.6214 6.91333 65.4814 7.12C65.3414 7.32 65.2714 7.54667 65.2714 7.8V10.59C65.2714 10.7033 65.2314 10.8 65.1514 10.88C65.0781 10.96 64.9848 11 64.8714 11C64.7581 11 64.6614 10.96 64.5814 10.88C64.5081 10.8 64.4714 10.7033 64.4714 10.59V6.23C64.4714 6.11667 64.5081 6.02333 64.5814 5.95C64.6614 5.87 64.7581 5.83 64.8714 5.83C64.9914 5.83 65.0881 5.87 65.1614 5.95C65.2348 6.02333 65.2714 6.11667 65.2714 6.23V6.94L65.0714 7.16C65.1048 6.98667 65.1814 6.81333 65.3014 6.64C65.4214 6.46 65.5714 6.3 65.7514 6.16C65.9314 6.02 66.1314 5.91 66.3514 5.83C66.5714 5.74333 66.8014 5.7 67.0414 5.7ZM74.5713 3.6C74.6846 3.6 74.778 3.64 74.8513 3.72C74.9313 3.79333 74.9713 3.88667 74.9713 4V10.59C74.9713 10.7033 74.9313 10.8 74.8513 10.88C74.778 10.96 74.6846 11 74.5713 11C74.4513 11 74.3546 10.96 74.2813 10.88C74.208 10.8 74.1713 10.7033 74.1713 10.59V9.64L74.3613 9.57C74.3613 9.73 74.3113 9.9 74.2113 10.08C74.1113 10.2533 73.9746 10.4167 73.8013 10.57C73.628 10.7233 73.4213 10.85 73.1813 10.95C72.948 11.05 72.6946 11.1 72.4213 11.1C71.9746 11.1 71.568 10.9833 71.2013 10.75C70.8413 10.5167 70.5546 10.1967 70.3413 9.79C70.1346 9.38333 70.0313 8.92 70.0313 8.4C70.0313 7.87333 70.1346 7.40667 70.3413 7C70.5546 6.59333 70.8413 6.27667 71.2013 6.05C71.5613 5.81667 71.9613 5.7 72.4013 5.7C72.6813 5.7 72.9446 5.74667 73.1913 5.84C73.438 5.93333 73.6513 6.06 73.8313 6.22C74.018 6.38 74.1646 6.55667 74.2713 6.75C74.378 6.94333 74.4313 7.13667 74.4313 7.33L74.1713 7.27V4C74.1713 3.88667 74.208 3.79333 74.2813 3.72C74.3546 3.64 74.4513 3.6 74.5713 3.6ZM72.5113 10.36C72.8446 10.36 73.138 10.2767 73.3913 10.11C73.6513 9.93667 73.8513 9.70333 73.9913 9.41C74.138 9.11 74.2113 8.77333 74.2113 8.4C74.2113 8.02 74.138 7.68333 73.9913 7.39C73.8513 7.09667 73.6513 6.86667 73.3913 6.7C73.138 6.52667 72.8446 6.44 72.5113 6.44C72.1846 6.44 71.8913 6.52667 71.6313 6.7C71.378 6.86667 71.178 7.09667 71.0313 7.39C70.8846 7.68333 70.8113 8.02 70.8113 8.4C70.8113 8.76667 70.8846 9.1 71.0313 9.4C71.178 9.69333 71.378 9.92667 71.6313 10.1C71.8913 10.2733 72.1846 10.36 72.5113 10.36ZM83.2078 10.21C83.3211 10.21 83.4178 10.25 83.4978 10.33C83.5778 10.4033 83.6178 10.4967 83.6178 10.61C83.6178 10.7233 83.5778 10.8167 83.4978 10.89C83.4178 10.9633 83.3211 11 83.2078 11H79.7478C79.6344 11 79.5378 10.96 79.4578 10.88C79.3844 10.8 79.3478 10.7033 79.3478 10.59V4.4C79.3478 4.28667 79.3878 4.19333 79.4678 4.12C79.5478 4.04 79.6478 4 79.7678 4C79.8811 4 79.9778 4.04 80.0578 4.12C80.1378 4.19333 80.1778 4.28667 80.1778 4.4V10.39L79.9778 10.21H83.2078ZM87.0177 11.1C86.4844 11.1 86.0177 10.9867 85.6177 10.76C85.2177 10.5333 84.9044 10.2233 84.6777 9.83C84.4577 9.43 84.3477 8.97 84.3477 8.45C84.3477 7.87 84.461 7.37667 84.6877 6.97C84.921 6.55667 85.221 6.24333 85.5877 6.03C85.961 5.81 86.3544 5.7 86.7677 5.7C87.0744 5.7 87.371 5.75667 87.6577 5.87C87.9444 5.98333 88.1977 6.15 88.4177 6.37C88.6377 6.58333 88.8144 6.84333 88.9477 7.15C89.081 7.45 89.151 7.78667 89.1577 8.16C89.1577 8.26667 89.1177 8.35667 89.0377 8.43C88.9577 8.50333 88.8644 8.54 88.7577 8.54H84.8077L84.6277 7.85H88.4777L88.3177 7.99V7.77C88.291 7.49667 88.1977 7.26333 88.0377 7.07C87.8844 6.87 87.6944 6.71667 87.4677 6.61C87.2477 6.50333 87.0144 6.45 86.7677 6.45C86.5677 6.45 86.3677 6.48667 86.1677 6.56C85.9744 6.62667 85.7977 6.74 85.6377 6.9C85.4844 7.05333 85.3577 7.25333 85.2577 7.5C85.1644 7.74667 85.1177 8.04333 85.1177 8.39C85.1177 8.77667 85.1944 9.11667 85.3477 9.41C85.5077 9.70333 85.7277 9.93667 86.0077 10.11C86.2877 10.2767 86.6144 10.36 86.9877 10.36C87.221 10.36 87.4244 10.33 87.5977 10.27C87.771 10.21 87.921 10.1367 88.0477 10.05C88.1744 9.95667 88.281 9.86333 88.3677 9.77C88.4544 9.71 88.5377 9.68 88.6177 9.68C88.7177 9.68 88.7977 9.71333 88.8577 9.78C88.9244 9.84667 88.9577 9.92667 88.9577 10.02C88.9577 10.1333 88.9044 10.2333 88.7977 10.32C88.611 10.5267 88.3577 10.71 88.0377 10.87C87.7177 11.0233 87.3777 11.1 87.0177 11.1ZM94.6592 5.78C94.7725 5.78 94.8658 5.82 94.9392 5.9C95.0192 5.97333 95.0592 6.06667 95.0592 6.18V10.59C95.0592 10.7033 95.0192 10.8 94.9392 10.88C94.8658 10.96 94.7725 11 94.6592 11C94.5392 11 94.4425 10.96 94.3692 10.88C94.2958 10.8 94.2592 10.7033 94.2592 10.59V9.64L94.4492 9.62C94.4492 9.76667 94.3992 9.92667 94.2992 10.1C94.1992 10.2733 94.0625 10.4367 93.8892 10.59C93.7158 10.7367 93.5092 10.86 93.2692 10.96C93.0358 11.0533 92.7825 11.1 92.5092 11.1C92.0558 11.1 91.6492 10.9833 91.2892 10.75C90.9292 10.51 90.6425 10.1867 90.4292 9.78C90.2225 9.37333 90.1192 8.91 90.1192 8.39C90.1192 7.86333 90.2225 7.4 90.4292 7C90.6425 6.59333 90.9292 6.27667 91.2892 6.05C91.6492 5.81667 92.0492 5.7 92.4892 5.7C92.7758 5.7 93.0425 5.74667 93.2892 5.84C93.5358 5.93333 93.7492 6.06 93.9292 6.22C94.1158 6.38 94.2592 6.55667 94.3592 6.75C94.4658 6.94333 94.5192 7.13667 94.5192 7.33L94.2592 7.27V6.18C94.2592 6.06667 94.2958 5.97333 94.3692 5.9C94.4425 5.82 94.5392 5.78 94.6592 5.78ZM92.5992 10.36C92.9325 10.36 93.2258 10.2733 93.4792 10.1C93.7392 9.92667 93.9392 9.69333 94.0792 9.4C94.2258 9.1 94.2992 8.76333 94.2992 8.39C94.2992 8.02333 94.2258 7.69333 94.0792 7.4C93.9392 7.1 93.7392 6.86667 93.4792 6.7C93.2258 6.52667 92.9325 6.44 92.5992 6.44C92.2725 6.44 91.9792 6.52333 91.7192 6.69C91.4658 6.85667 91.2658 7.08667 91.1192 7.38C90.9725 7.67333 90.8992 8.01 90.8992 8.39C90.8992 8.76333 90.9692 9.1 91.1092 9.4C91.2558 9.69333 91.4558 9.92667 91.7092 10.1C91.9692 10.2733 92.2658 10.36 92.5992 10.36ZM96.9418 11C96.8284 11 96.7318 10.96 96.6518 10.88C96.5784 10.8 96.5418 10.7033 96.5418 10.59V6.23C96.5418 6.11667 96.5784 6.02333 96.6518 5.95C96.7318 5.87 96.8284 5.83 96.9418 5.83C97.0618 5.83 97.1584 5.87 97.2318 5.95C97.3051 6.02333 97.3418 6.11667 97.3418 6.23V7.55L97.2218 7.34C97.2618 7.13333 97.3318 6.93333 97.4318 6.74C97.5384 6.54 97.6718 6.36333 97.8318 6.21C97.9918 6.05 98.1751 5.92667 98.3818 5.84C98.5884 5.74667 98.8151 5.7 99.0618 5.7C99.2084 5.7 99.3418 5.73667 99.4618 5.81C99.5884 5.87667 99.6518 5.97333 99.6518 6.1C99.6518 6.24 99.6151 6.34333 99.5418 6.41C99.4684 6.47667 99.3851 6.51 99.2918 6.51C99.2051 6.51 99.1218 6.49333 99.0418 6.46C98.9618 6.42 98.8618 6.4 98.7418 6.4C98.5751 6.4 98.4084 6.44667 98.2418 6.54C98.0818 6.62667 97.9318 6.75333 97.7918 6.92C97.6584 7.08667 97.5484 7.27667 97.4618 7.49C97.3818 7.69667 97.3418 7.92 97.3418 8.16V10.59C97.3418 10.7033 97.3018 10.8 97.2218 10.88C97.1484 10.96 97.0551 11 96.9418 11ZM103.125 5.7C103.579 5.7 103.935 5.79333 104.195 5.98C104.455 6.16667 104.639 6.41667 104.745 6.73C104.859 7.04333 104.915 7.39333 104.915 7.78V10.59C104.915 10.7033 104.875 10.8 104.795 10.88C104.722 10.96 104.629 11 104.515 11C104.402 11 104.305 10.96 104.225 10.88C104.152 10.8 104.115 10.7033 104.115 10.59V7.8C104.115 7.54667 104.075 7.32 103.995 7.12C103.922 6.91333 103.795 6.75 103.615 6.63C103.442 6.50333 103.202 6.44 102.895 6.44C102.615 6.44 102.359 6.50333 102.125 6.63C101.892 6.75 101.705 6.91333 101.565 7.12C101.425 7.32 101.355 7.54667 101.355 7.8V10.59C101.355 10.7033 101.315 10.8 101.235 10.88C101.162 10.96 101.069 11 100.955 11C100.842 11 100.745 10.96 100.665 10.88C100.592 10.8 100.555 10.7033 100.555 10.59V6.23C100.555 6.11667 100.592 6.02333 100.665 5.95C100.745 5.87 100.842 5.83 100.955 5.83C101.075 5.83 101.172 5.87 101.245 5.95C101.319 6.02333 101.355 6.11667 101.355 6.23V6.94L101.155 7.16C101.189 6.98667 101.265 6.81333 101.385 6.64C101.505 6.46 101.655 6.3 101.835 6.16C102.015 6.02 102.215 5.91 102.435 5.83C102.655 5.74333 102.885 5.7 103.125 5.7ZM107.165 10.59C107.165 10.7033 107.125 10.8 107.045 10.88C106.972 10.96 106.879 11 106.765 11C106.645 11 106.549 10.96 106.475 10.88C106.402 10.8 106.365 10.7033 106.365 10.59V6.15C106.365 6.03667 106.402 5.94333 106.475 5.87C106.555 5.79 106.652 5.75 106.765 5.75C106.879 5.75 106.972 5.79 107.045 5.87C107.125 5.94333 107.165 6.03667 107.165 6.15V10.59ZM106.765 5.08C106.599 5.08 106.475 5.04667 106.395 4.98C106.315 4.91333 106.275 4.81 106.275 4.67V4.53C106.275 4.39 106.319 4.28667 106.405 4.22C106.492 4.15333 106.615 4.12 106.775 4.12C106.935 4.12 107.055 4.15333 107.135 4.22C107.215 4.28667 107.255 4.39 107.255 4.53V4.67C107.255 4.81 107.212 4.91333 107.125 4.98C107.045 5.04667 106.925 5.08 106.765 5.08ZM111.172 5.7C111.626 5.7 111.982 5.79333 112.242 5.98C112.502 6.16667 112.686 6.41667 112.792 6.73C112.906 7.04333 112.962 7.39333 112.962 7.78V10.59C112.962 10.7033 112.922 10.8 112.842 10.88C112.769 10.96 112.676 11 112.562 11C112.449 11 112.352 10.96 112.272 10.88C112.199 10.8 112.162 10.7033 112.162 10.59V7.8C112.162 7.54667 112.122 7.32 112.042 7.12C111.969 6.91333 111.842 6.75 111.662 6.63C111.489 6.50333 111.249 6.44 110.942 6.44C110.662 6.44 110.406 6.50333 110.172 6.63C109.939 6.75 109.752 6.91333 109.612 7.12C109.472 7.32 109.402 7.54667 109.402 7.8V10.59C109.402 10.7033 109.362 10.8 109.282 10.88C109.209 10.96 109.116 11 109.002 11C108.889 11 108.792 10.96 108.712 10.88C108.639 10.8 108.602 10.7033 108.602 10.59V6.23C108.602 6.11667 108.639 6.02333 108.712 5.95C108.792 5.87 108.889 5.83 109.002 5.83C109.122 5.83 109.219 5.87 109.292 5.95C109.366 6.02333 109.402 6.11667 109.402 6.23V6.94L109.202 7.16C109.236 6.98667 109.312 6.81333 109.432 6.64C109.552 6.46 109.702 6.3 109.882 6.16C110.062 6.02 110.262 5.91 110.482 5.83C110.702 5.74333 110.932 5.7 111.172 5.7ZM116.612 5.7C116.899 5.7 117.165 5.75 117.412 5.85C117.659 5.94333 117.872 6.06667 118.052 6.22C118.239 6.37333 118.382 6.53333 118.482 6.7C118.589 6.86667 118.642 7.02333 118.642 7.17L118.452 7.05V6.18C118.452 6.06667 118.489 5.97333 118.562 5.9C118.635 5.82 118.732 5.78 118.852 5.78C118.965 5.78 119.059 5.82 119.132 5.9C119.212 5.97333 119.252 6.06667 119.252 6.18V10.56C119.252 11.1067 119.135 11.56 118.902 11.92C118.675 12.28 118.369 12.55 117.982 12.73C117.595 12.91 117.162 13 116.682 13C116.482 13 116.262 12.9733 116.022 12.92C115.782 12.8667 115.569 12.8 115.382 12.72C115.195 12.6467 115.075 12.57 115.022 12.49C114.922 12.4233 114.859 12.3467 114.832 12.26C114.812 12.18 114.829 12.1033 114.882 12.03C114.942 11.9367 115.019 11.89 115.112 11.89C115.212 11.89 115.335 11.92 115.482 11.98C115.542 12 115.635 12.0333 115.762 12.08C115.895 12.1267 116.042 12.1667 116.202 12.2C116.369 12.24 116.532 12.26 116.692 12.26C117.259 12.26 117.692 12.11 117.992 11.81C118.299 11.5167 118.452 11.1267 118.452 10.64V9.71L118.562 9.76C118.522 9.94667 118.439 10.12 118.312 10.28C118.192 10.44 118.042 10.5833 117.862 10.71C117.689 10.83 117.495 10.9267 117.282 11C117.069 11.0667 116.852 11.1 116.632 11.1C116.165 11.1 115.745 10.9833 115.372 10.75C114.999 10.5167 114.702 10.1967 114.482 9.79C114.269 9.38333 114.162 8.92 114.162 8.4C114.162 7.87333 114.269 7.40667 114.482 7C114.702 6.59333 114.995 6.27667 115.362 6.05C115.735 5.81667 116.152 5.7 116.612 5.7ZM116.712 6.44C116.372 6.44 116.065 6.52667 115.792 6.7C115.525 6.86667 115.315 7.09667 115.162 7.39C115.015 7.68333 114.942 8.02 114.942 8.4C114.942 8.76667 115.015 9.1 115.162 9.4C115.315 9.69333 115.525 9.92667 115.792 10.1C116.065 10.2733 116.372 10.36 116.712 10.36C117.059 10.36 117.365 10.2767 117.632 10.11C117.899 9.93667 118.109 9.70333 118.262 9.41C118.415 9.11667 118.492 8.78 118.492 8.4C118.492 8.01333 118.415 7.67333 118.262 7.38C118.109 7.08667 117.899 6.85667 117.632 6.69C117.365 6.52333 117.059 6.44 116.712 6.44Z" fill="black"/>
</svg>
