<svg width="141" height="14" viewBox="0 0 141 14" fill="none" xmlns="http://www.w3.org/2000/svg">
<rect width="141" height="14" rx="7" fill="#B686FF"/>
<path d="M9.49484 4H13.0548C13.1682 4 13.2648 4.03667 13.3448 4.11C13.4248 4.18333 13.4648 4.27667 13.4648 4.39C13.4648 4.50333 13.4248 4.59667 13.3448 4.67C13.2648 4.73667 13.1682 4.77 13.0548 4.77H9.83484L9.92484 4.6V7.13L9.82484 7.02H12.6048C12.7182 7.02 12.8148 7.05667 12.8948 7.13C12.9748 7.20333 13.0148 7.29667 13.0148 7.41C13.0148 7.52333 12.9748 7.61667 12.8948 7.69C12.8148 7.75667 12.7182 7.79 12.6048 7.79H9.85484L9.92484 7.7V10.29L9.86484 10.22H13.0548C13.1682 10.22 13.2648 10.26 13.3448 10.34C13.4248 10.42 13.4648 10.51 13.4648 10.61C13.4648 10.7233 13.4248 10.8167 13.3448 10.89C13.2648 10.9633 13.1682 11 13.0548 11H9.49484C9.38151 11 9.28484 10.96 9.20484 10.88C9.13151 10.8 9.09484 10.7033 9.09484 10.59V4.4C9.09484 4.28667 9.13151 4.19333 9.20484 4.12C9.28484 4.04 9.38151 4 9.49484 4ZM17.128 5.75C17.5813 5.75 17.948 5.86667 18.228 6.1C18.5146 6.32667 18.7046 6.65 18.798 7.07H18.648L18.718 6.89C18.798 6.70333 18.9346 6.52333 19.128 6.35C19.3213 6.17667 19.5446 6.03333 19.798 5.92C20.0513 5.80667 20.3146 5.75 20.588 5.75C21.028 5.75 21.3746 5.84667 21.628 6.04C21.8813 6.22667 22.0613 6.48 22.168 6.8C22.2813 7.11333 22.338 7.46667 22.338 7.86V10.59C22.338 10.7033 22.298 10.8 22.218 10.88C22.1446 10.96 22.0513 11 21.938 11C21.818 11 21.7213 10.96 21.648 10.88C21.5746 10.8 21.538 10.7033 21.538 10.59V7.88C21.538 7.62 21.498 7.38667 21.418 7.18C21.3446 6.96667 21.2213 6.8 21.048 6.68C20.8813 6.55333 20.6513 6.49 20.358 6.49C20.0846 6.49 19.8346 6.55333 19.608 6.68C19.3813 6.8 19.2013 6.96667 19.068 7.18C18.9346 7.38667 18.868 7.62 18.868 7.88V10.59C18.868 10.7033 18.8313 10.8 18.758 10.88C18.6846 10.96 18.588 11 18.468 11C18.3546 11 18.258 10.96 18.178 10.88C18.1046 10.8 18.068 10.7033 18.068 10.59V7.85C18.068 7.59667 18.0313 7.37 17.958 7.17C17.8913 6.96333 17.7746 6.8 17.608 6.68C17.4413 6.55333 17.2113 6.49 16.918 6.49C16.6513 6.49 16.408 6.55333 16.188 6.68C15.968 6.8 15.7913 6.96333 15.658 7.17C15.5246 7.37 15.458 7.59667 15.458 7.85V10.59C15.458 10.7033 15.418 10.8 15.338 10.88C15.2646 10.96 15.1713 11 15.058 11C14.9446 11 14.848 10.96 14.768 10.88C14.6946 10.8 14.658 10.7033 14.658 10.59V6.23C14.658 6.11667 14.6946 6.02333 14.768 5.95C14.848 5.87 14.9446 5.83 15.058 5.83C15.178 5.83 15.2746 5.87 15.348 5.95C15.4213 6.02333 15.458 6.11667 15.458 6.23V6.99L15.238 7.23C15.2646 7.05667 15.3313 6.88333 15.438 6.71C15.5513 6.53667 15.6946 6.37667 15.868 6.23C16.0413 6.08333 16.2346 5.96667 16.448 5.88C16.6613 5.79333 16.888 5.75 17.128 5.75ZM28.7281 8.4C28.7281 8.92 28.6115 9.38333 28.3781 9.79C28.1515 10.1967 27.8415 10.5167 27.4481 10.75C27.0615 10.9833 26.6248 11.1 26.1381 11.1C25.6515 11.1 25.2115 10.9833 24.8181 10.75C24.4248 10.5167 24.1115 10.1967 23.8781 9.79C23.6515 9.38333 23.5381 8.92 23.5381 8.4C23.5381 7.88 23.6515 7.41667 23.8781 7.01C24.1115 6.60333 24.4248 6.28333 24.8181 6.05C25.2115 5.81667 25.6515 5.7 26.1381 5.7C26.6248 5.7 27.0615 5.81667 27.4481 6.05C27.8415 6.28333 28.1515 6.60333 28.3781 7.01C28.6115 7.41667 28.7281 7.88 28.7281 8.4ZM27.9281 8.4C27.9281 8.01333 27.8481 7.67333 27.6881 7.38C27.5348 7.08667 27.3215 6.85667 27.0481 6.69C26.7815 6.52333 26.4781 6.44 26.1381 6.44C25.7981 6.44 25.4915 6.52333 25.2181 6.69C24.9515 6.85667 24.7381 7.08667 24.5781 7.38C24.4181 7.67333 24.3381 8.01333 24.3381 8.4C24.3381 8.78 24.4181 9.11667 24.5781 9.41C24.7381 9.70333 24.9515 9.93667 25.2181 10.11C25.4915 10.2767 25.7981 10.36 26.1381 10.36C26.4781 10.36 26.7815 10.2767 27.0481 10.11C27.3215 9.93667 27.5348 9.70333 27.6881 9.41C27.8481 9.11667 27.9281 8.78 27.9281 8.4ZM29.7314 5.86H32.0814C32.1881 5.86 32.2747 5.89667 32.3414 5.97C32.4147 6.04333 32.4514 6.13 32.4514 6.23C32.4514 6.33667 32.4147 6.42667 32.3414 6.5C32.2747 6.56667 32.1881 6.6 32.0814 6.6H29.7314C29.6314 6.6 29.5447 6.56333 29.4714 6.49C29.3981 6.41667 29.3614 6.32667 29.3614 6.22C29.3614 6.12 29.3981 6.03667 29.4714 5.97C29.5447 5.89667 29.6314 5.86 29.7314 5.86ZM30.7814 4.5C30.8947 4.5 30.9881 4.54 31.0614 4.62C31.1347 4.69333 31.1714 4.78667 31.1714 4.9V9.73C31.1714 9.89 31.1947 10.01 31.2414 10.09C31.2881 10.17 31.3481 10.2267 31.4214 10.26C31.5014 10.2867 31.5781 10.3 31.6514 10.3C31.7181 10.3 31.7747 10.29 31.8214 10.27C31.8747 10.2433 31.9347 10.23 32.0014 10.23C32.0681 10.23 32.1281 10.2633 32.1814 10.33C32.2414 10.39 32.2714 10.47 32.2714 10.57C32.2714 10.69 32.2014 10.7933 32.0614 10.88C31.9214 10.96 31.7647 11 31.5914 11C31.4981 11 31.3814 10.9933 31.2414 10.98C31.1081 10.9667 30.9747 10.9233 30.8414 10.85C30.7081 10.7767 30.5947 10.6567 30.5014 10.49C30.4147 10.3167 30.3714 10.0767 30.3714 9.77V4.9C30.3714 4.78667 30.4114 4.69333 30.4914 4.62C30.5714 4.54 30.6681 4.5 30.7814 4.5ZM34.3342 10.59C34.3342 10.7033 34.2942 10.8 34.2142 10.88C34.1409 10.96 34.0476 11 33.9342 11C33.8142 11 33.7176 10.96 33.6442 10.88C33.5709 10.8 33.5342 10.7033 33.5342 10.59V6.15C33.5342 6.03667 33.5709 5.94333 33.6442 5.87C33.7242 5.79 33.8209 5.75 33.9342 5.75C34.0476 5.75 34.1409 5.79 34.2142 5.87C34.2942 5.94333 34.3342 6.03667 34.3342 6.15V10.59ZM33.9342 5.08C33.7676 5.08 33.6442 5.04667 33.5642 4.98C33.4842 4.91333 33.4442 4.81 33.4442 4.67V4.53C33.4442 4.39 33.4876 4.28667 33.5742 4.22C33.6609 4.15333 33.7842 4.12 33.9442 4.12C34.1042 4.12 34.2242 4.15333 34.3042 4.22C34.3842 4.28667 34.4242 4.39 34.4242 4.53V4.67C34.4242 4.81 34.3809 4.91333 34.2942 4.98C34.2142 5.04667 34.0942 5.08 33.9342 5.08ZM40.6812 8.4C40.6812 8.92 40.5646 9.38333 40.3313 9.79C40.1046 10.1967 39.7946 10.5167 39.4013 10.75C39.0146 10.9833 38.5779 11.1 38.0913 11.1C37.6046 11.1 37.1646 10.9833 36.7713 10.75C36.3779 10.5167 36.0646 10.1967 35.8313 9.79C35.6046 9.38333 35.4913 8.92 35.4913 8.4C35.4913 7.88 35.6046 7.41667 35.8313 7.01C36.0646 6.60333 36.3779 6.28333 36.7713 6.05C37.1646 5.81667 37.6046 5.7 38.0913 5.7C38.5779 5.7 39.0146 5.81667 39.4013 6.05C39.7946 6.28333 40.1046 6.60333 40.3313 7.01C40.5646 7.41667 40.6812 7.88 40.6812 8.4ZM39.8813 8.4C39.8813 8.01333 39.8013 7.67333 39.6413 7.38C39.4879 7.08667 39.2746 6.85667 39.0013 6.69C38.7346 6.52333 38.4313 6.44 38.0913 6.44C37.7513 6.44 37.4446 6.52333 37.1713 6.69C36.9046 6.85667 36.6913 7.08667 36.5313 7.38C36.3713 7.67333 36.2913 8.01333 36.2913 8.4C36.2913 8.78 36.3713 9.11667 36.5313 9.41C36.6913 9.70333 36.9046 9.93667 37.1713 10.11C37.4446 10.2767 37.7513 10.36 38.0913 10.36C38.4313 10.36 38.7346 10.2767 39.0013 10.11C39.2746 9.93667 39.4879 9.70333 39.6413 9.41C39.8013 9.11667 39.8813 8.78 39.8813 8.4ZM44.4545 5.7C44.9079 5.7 45.2645 5.79333 45.5245 5.98C45.7845 6.16667 45.9679 6.41667 46.0745 6.73C46.1879 7.04333 46.2445 7.39333 46.2445 7.78V10.59C46.2445 10.7033 46.2045 10.8 46.1245 10.88C46.0512 10.96 45.9579 11 45.8445 11C45.7312 11 45.6345 10.96 45.5545 10.88C45.4812 10.8 45.4445 10.7033 45.4445 10.59V7.8C45.4445 7.54667 45.4045 7.32 45.3245 7.12C45.2512 6.91333 45.1245 6.75 44.9445 6.63C44.7712 6.50333 44.5312 6.44 44.2245 6.44C43.9445 6.44 43.6879 6.50333 43.4545 6.63C43.2212 6.75 43.0345 6.91333 42.8945 7.12C42.7545 7.32 42.6845 7.54667 42.6845 7.8V10.59C42.6845 10.7033 42.6445 10.8 42.5645 10.88C42.4912 10.96 42.3979 11 42.2845 11C42.1712 11 42.0745 10.96 41.9945 10.88C41.9212 10.8 41.8845 10.7033 41.8845 10.59V6.23C41.8845 6.11667 41.9212 6.02333 41.9945 5.95C42.0745 5.87 42.1712 5.83 42.2845 5.83C42.4045 5.83 42.5012 5.87 42.5745 5.95C42.6479 6.02333 42.6845 6.11667 42.6845 6.23V6.94L42.4845 7.16C42.5179 6.98667 42.5945 6.81333 42.7145 6.64C42.8345 6.46 42.9845 6.3 43.1645 6.16C43.3445 6.02 43.5445 5.91 43.7645 5.83C43.9845 5.74333 44.2145 5.7 44.4545 5.7ZM51.9844 5.78C52.0977 5.78 52.191 5.82 52.2644 5.9C52.3444 5.97333 52.3844 6.06667 52.3844 6.18V10.59C52.3844 10.7033 52.3444 10.8 52.2644 10.88C52.191 10.96 52.0977 11 51.9844 11C51.8644 11 51.7677 10.96 51.6944 10.88C51.621 10.8 51.5844 10.7033 51.5844 10.59V9.64L51.7744 9.62C51.7744 9.76667 51.7244 9.92667 51.6244 10.1C51.5244 10.2733 51.3877 10.4367 51.2144 10.59C51.041 10.7367 50.8344 10.86 50.5944 10.96C50.361 11.0533 50.1077 11.1 49.8344 11.1C49.381 11.1 48.9744 10.9833 48.6144 10.75C48.2544 10.51 47.9677 10.1867 47.7544 9.78C47.5477 9.37333 47.4444 8.91 47.4444 8.39C47.4444 7.86333 47.5477 7.4 47.7544 7C47.9677 6.59333 48.2544 6.27667 48.6144 6.05C48.9744 5.81667 49.3744 5.7 49.8144 5.7C50.101 5.7 50.3677 5.74667 50.6144 5.84C50.861 5.93333 51.0744 6.06 51.2544 6.22C51.441 6.38 51.5844 6.55667 51.6844 6.75C51.791 6.94333 51.8444 7.13667 51.8444 7.33L51.5844 7.27V6.18C51.5844 6.06667 51.621 5.97333 51.6944 5.9C51.7677 5.82 51.8644 5.78 51.9844 5.78ZM49.9244 10.36C50.2577 10.36 50.551 10.2733 50.8044 10.1C51.0644 9.92667 51.2644 9.69333 51.4044 9.4C51.551 9.1 51.6244 8.76333 51.6244 8.39C51.6244 8.02333 51.551 7.69333 51.4044 7.4C51.2644 7.1 51.0644 6.86667 50.8044 6.7C50.551 6.52667 50.2577 6.44 49.9244 6.44C49.5977 6.44 49.3044 6.52333 49.0444 6.69C48.791 6.85667 48.591 7.08667 48.4444 7.38C48.2977 7.67333 48.2244 8.01 48.2244 8.39C48.2244 8.76333 48.2944 9.1 48.4344 9.4C48.581 9.69333 48.781 9.92667 49.0344 10.1C49.2944 10.2733 49.591 10.36 49.9244 10.36ZM54.747 10.59C54.747 10.7033 54.707 10.8 54.627 10.88C54.547 10.96 54.4503 11 54.337 11C54.2236 11 54.1303 10.96 54.057 10.88C53.9836 10.8 53.947 10.7033 53.947 10.59V4C53.947 3.88667 53.9836 3.79333 54.057 3.72C54.137 3.64 54.2336 3.6 54.347 3.6C54.467 3.6 54.5636 3.64 54.637 3.72C54.7103 3.79333 54.747 3.88667 54.747 4V10.59ZM63.3125 5.78C63.4258 5.78 63.5192 5.82 63.5925 5.9C63.6725 5.97333 63.7125 6.06667 63.7125 6.18V10.59C63.7125 10.7033 63.6725 10.8 63.5925 10.88C63.5192 10.96 63.4258 11 63.3125 11C63.1925 11 63.0958 10.96 63.0225 10.88C62.9492 10.8 62.9125 10.7033 62.9125 10.59V9.64L63.1025 9.62C63.1025 9.76667 63.0525 9.92667 62.9525 10.1C62.8525 10.2733 62.7158 10.4367 62.5425 10.59C62.3692 10.7367 62.1625 10.86 61.9225 10.96C61.6892 11.0533 61.4358 11.1 61.1625 11.1C60.7092 11.1 60.3025 10.9833 59.9425 10.75C59.5825 10.51 59.2958 10.1867 59.0825 9.78C58.8758 9.37333 58.7725 8.91 58.7725 8.39C58.7725 7.86333 58.8758 7.4 59.0825 7C59.2958 6.59333 59.5825 6.27667 59.9425 6.05C60.3025 5.81667 60.7025 5.7 61.1425 5.7C61.4292 5.7 61.6958 5.74667 61.9425 5.84C62.1892 5.93333 62.4025 6.06 62.5825 6.22C62.7692 6.38 62.9125 6.55667 63.0125 6.75C63.1192 6.94333 63.1725 7.13667 63.1725 7.33L62.9125 7.27V6.18C62.9125 6.06667 62.9492 5.97333 63.0225 5.9C63.0958 5.82 63.1925 5.78 63.3125 5.78ZM61.2525 10.36C61.5858 10.36 61.8792 10.2733 62.1325 10.1C62.3925 9.92667 62.5925 9.69333 62.7325 9.4C62.8792 9.1 62.9525 8.76333 62.9525 8.39C62.9525 8.02333 62.8792 7.69333 62.7325 7.4C62.5925 7.1 62.3925 6.86667 62.1325 6.7C61.8792 6.52667 61.5858 6.44 61.2525 6.44C60.9258 6.44 60.6325 6.52333 60.3725 6.69C60.1192 6.85667 59.9192 7.08667 59.7725 7.38C59.6258 7.67333 59.5525 8.01 59.5525 8.39C59.5525 8.76333 59.6225 9.1 59.7625 9.4C59.9092 9.69333 60.1092 9.92667 60.3625 10.1C60.6225 10.2733 60.9192 10.36 61.2525 10.36ZM67.7651 5.7C68.2184 5.7 68.5751 5.79333 68.8351 5.98C69.0951 6.16667 69.2784 6.41667 69.3851 6.73C69.4984 7.04333 69.5551 7.39333 69.5551 7.78V10.59C69.5551 10.7033 69.5151 10.8 69.4351 10.88C69.3617 10.96 69.2684 11 69.1551 11C69.0417 11 68.9451 10.96 68.8651 10.88C68.7917 10.8 68.7551 10.7033 68.7551 10.59V7.8C68.7551 7.54667 68.7151 7.32 68.6351 7.12C68.5617 6.91333 68.4351 6.75 68.2551 6.63C68.0817 6.50333 67.8417 6.44 67.5351 6.44C67.2551 6.44 66.9984 6.50333 66.7651 6.63C66.5317 6.75 66.3451 6.91333 66.2051 7.12C66.0651 7.32 65.9951 7.54667 65.9951 7.8V10.59C65.9951 10.7033 65.9551 10.8 65.8751 10.88C65.8017 10.96 65.7084 11 65.5951 11C65.4817 11 65.3851 10.96 65.3051 10.88C65.2317 10.8 65.1951 10.7033 65.1951 10.59V6.23C65.1951 6.11667 65.2317 6.02333 65.3051 5.95C65.3851 5.87 65.4817 5.83 65.5951 5.83C65.7151 5.83 65.8117 5.87 65.8851 5.95C65.9584 6.02333 65.9951 6.11667 65.9951 6.23V6.94L65.7951 7.16C65.8284 6.98667 65.9051 6.81333 66.0251 6.64C66.1451 6.46 66.2951 6.3 66.4751 6.16C66.6551 6.02 66.8551 5.91 67.0751 5.83C67.2951 5.74333 67.5251 5.7 67.7651 5.7ZM75.2949 3.6C75.4083 3.6 75.5016 3.64 75.5749 3.72C75.6549 3.79333 75.6949 3.88667 75.6949 4V10.59C75.6949 10.7033 75.6549 10.8 75.5749 10.88C75.5016 10.96 75.4083 11 75.2949 11C75.1749 11 75.0783 10.96 75.0049 10.88C74.9316 10.8 74.8949 10.7033 74.8949 10.59V9.64L75.0849 9.57C75.0849 9.73 75.0349 9.9 74.9349 10.08C74.8349 10.2533 74.6983 10.4167 74.5249 10.57C74.3516 10.7233 74.1449 10.85 73.9049 10.95C73.6716 11.05 73.4183 11.1 73.1449 11.1C72.6983 11.1 72.2916 10.9833 71.9249 10.75C71.5649 10.5167 71.2783 10.1967 71.0649 9.79C70.8583 9.38333 70.7549 8.92 70.7549 8.4C70.7549 7.87333 70.8583 7.40667 71.0649 7C71.2783 6.59333 71.5649 6.27667 71.9249 6.05C72.2849 5.81667 72.6849 5.7 73.1249 5.7C73.4049 5.7 73.6683 5.74667 73.9149 5.84C74.1616 5.93333 74.3749 6.06 74.5549 6.22C74.7416 6.38 74.8883 6.55667 74.9949 6.75C75.1016 6.94333 75.1549 7.13667 75.1549 7.33L74.8949 7.27V4C74.8949 3.88667 74.9316 3.79333 75.0049 3.72C75.0783 3.64 75.1749 3.6 75.2949 3.6ZM73.2349 10.36C73.5683 10.36 73.8616 10.2767 74.1149 10.11C74.3749 9.93667 74.5749 9.70333 74.7149 9.41C74.8616 9.11 74.9349 8.77333 74.9349 8.4C74.9349 8.02 74.8616 7.68333 74.7149 7.39C74.5749 7.09667 74.3749 6.86667 74.1149 6.7C73.8616 6.52667 73.5683 6.44 73.2349 6.44C72.9083 6.44 72.6149 6.52667 72.3549 6.7C72.1016 6.86667 71.9016 7.09667 71.7549 7.39C71.6083 7.68333 71.5349 8.02 71.5349 8.4C71.5349 8.76667 71.6083 9.1 71.7549 9.4C71.9016 9.69333 72.1016 9.92667 72.3549 10.1C72.6149 10.2733 72.9083 10.36 73.2349 10.36ZM82.1114 11.1C81.6181 11.1 81.1847 11.0267 80.8114 10.88C80.4381 10.7333 80.0781 10.5 79.7314 10.18C79.6847 10.1333 79.6447 10.0833 79.6114 10.03C79.5847 9.97 79.5714 9.90667 79.5714 9.84C79.5714 9.73333 79.6081 9.64 79.6814 9.56C79.7614 9.47333 79.8581 9.43 79.9714 9.43C80.0647 9.43 80.1481 9.46667 80.2214 9.54C80.4814 9.79333 80.7614 9.98667 81.0614 10.12C81.3681 10.2533 81.7114 10.32 82.0914 10.32C82.3847 10.32 82.6481 10.2733 82.8814 10.18C83.1214 10.0867 83.3114 9.95667 83.4514 9.79C83.5914 9.62333 83.6614 9.43 83.6614 9.21C83.6547 8.94333 83.5747 8.72333 83.4214 8.55C83.2747 8.37667 83.0681 8.23333 82.8014 8.12C82.5414 8 82.2381 7.9 81.8914 7.82C81.5847 7.74667 81.3014 7.65667 81.0414 7.55C80.7881 7.44333 80.5681 7.31333 80.3814 7.16C80.1947 7 80.0481 6.81 79.9414 6.59C79.8414 6.36333 79.7914 6.1 79.7914 5.8C79.7914 5.42 79.8914 5.08667 80.0914 4.8C80.2914 4.51333 80.5681 4.29333 80.9214 4.14C81.2747 3.98 81.6814 3.9 82.1414 3.9C82.5481 3.9 82.9314 3.96667 83.2914 4.1C83.6581 4.23333 83.9514 4.41667 84.1714 4.65C84.3047 4.77667 84.3714 4.9 84.3714 5.02C84.3714 5.12 84.3281 5.21333 84.2414 5.3C84.1614 5.38 84.0681 5.42 83.9614 5.42C83.8881 5.42 83.8214 5.39333 83.7614 5.34C83.6481 5.21333 83.5047 5.1 83.3314 5C83.1581 4.9 82.9681 4.82 82.7614 4.76C82.5547 4.7 82.3481 4.67 82.1414 4.67C81.8347 4.67 81.5647 4.71667 81.3314 4.81C81.0981 4.89667 80.9147 5.02333 80.7814 5.19C80.6547 5.35 80.5914 5.54333 80.5914 5.77C80.5914 6.02333 80.6647 6.23333 80.8114 6.4C80.9581 6.56 81.1547 6.69333 81.4014 6.8C81.6481 6.9 81.9214 6.99 82.2214 7.07C82.5481 7.15 82.8481 7.24333 83.1214 7.35C83.4014 7.45 83.6414 7.57667 83.8414 7.73C84.0414 7.88333 84.1947 8.08 84.3014 8.32C84.4147 8.55333 84.4714 8.84333 84.4714 9.19C84.4714 9.55667 84.3681 9.88333 84.1614 10.17C83.9547 10.4567 83.6714 10.6833 83.3114 10.85C82.9581 11.01 82.5581 11.0933 82.1114 11.1ZM90.5836 8.4C90.5836 8.92 90.4669 9.38333 90.2336 9.79C90.0069 10.1967 89.6969 10.5167 89.3036 10.75C88.9169 10.9833 88.4803 11.1 87.9936 11.1C87.5069 11.1 87.0669 10.9833 86.6736 10.75C86.2803 10.5167 85.9669 10.1967 85.7336 9.79C85.5069 9.38333 85.3936 8.92 85.3936 8.4C85.3936 7.88 85.5069 7.41667 85.7336 7.01C85.9669 6.60333 86.2803 6.28333 86.6736 6.05C87.0669 5.81667 87.5069 5.7 87.9936 5.7C88.4803 5.7 88.9169 5.81667 89.3036 6.05C89.6969 6.28333 90.0069 6.60333 90.2336 7.01C90.4669 7.41667 90.5836 7.88 90.5836 8.4ZM89.7836 8.4C89.7836 8.01333 89.7036 7.67333 89.5436 7.38C89.3903 7.08667 89.1769 6.85667 88.9036 6.69C88.6369 6.52333 88.3336 6.44 87.9936 6.44C87.6536 6.44 87.3469 6.52333 87.0736 6.69C86.8069 6.85667 86.5936 7.08667 86.4336 7.38C86.2736 7.67333 86.1936 8.01333 86.1936 8.4C86.1936 8.78 86.2736 9.11667 86.4336 9.41C86.5936 9.70333 86.8069 9.93667 87.0736 10.11C87.3469 10.2767 87.6536 10.36 87.9936 10.36C88.3336 10.36 88.6369 10.2767 88.9036 10.11C89.1769 9.93667 89.3903 9.70333 89.5436 9.41C89.7036 9.11667 89.7836 8.78 89.7836 8.4ZM94.0869 5.7C94.4269 5.7 94.7335 5.73667 95.0069 5.81C95.2802 5.88333 95.4969 5.98333 95.6569 6.11C95.8169 6.23667 95.8969 6.38 95.8969 6.54C95.8969 6.62667 95.8669 6.71 95.8069 6.79C95.7469 6.87 95.6669 6.91 95.5669 6.91C95.4735 6.91 95.3969 6.89333 95.3369 6.86C95.2835 6.82667 95.2302 6.78333 95.1769 6.73C95.1302 6.67667 95.0635 6.63 94.9769 6.59C94.8969 6.54333 94.7802 6.50667 94.6269 6.48C94.4735 6.45333 94.3202 6.44 94.1669 6.44C93.8002 6.44 93.4769 6.52667 93.1969 6.7C92.9235 6.87333 92.7069 7.10667 92.5469 7.4C92.3869 7.69333 92.3069 8.02667 92.3069 8.4C92.3069 8.77333 92.3835 9.10667 92.5369 9.4C92.6902 9.69333 92.9035 9.92667 93.1769 10.1C93.4502 10.2733 93.7669 10.36 94.1269 10.36C94.3602 10.36 94.5469 10.34 94.6869 10.3C94.8269 10.26 94.9435 10.2133 95.0369 10.16C95.1569 10.0933 95.2469 10.0267 95.3069 9.96C95.3735 9.89333 95.4602 9.86 95.5669 9.86C95.6802 9.86 95.7669 9.89667 95.8269 9.97C95.8935 10.0433 95.9269 10.1333 95.9269 10.24C95.9269 10.36 95.8435 10.4867 95.6769 10.62C95.5102 10.7533 95.2835 10.8667 94.9969 10.96C94.7169 11.0533 94.3969 11.1 94.0369 11.1C93.5302 11.1 93.0869 10.9833 92.7069 10.75C92.3269 10.51 92.0302 10.1867 91.8169 9.78C91.6102 9.36667 91.5069 8.90667 91.5069 8.4C91.5069 7.89333 91.6135 7.43667 91.8269 7.03C92.0469 6.62333 92.3502 6.3 92.7369 6.06C93.1235 5.82 93.5735 5.7 94.0869 5.7ZM97.7424 10.59C97.7424 10.7033 97.7024 10.8 97.6224 10.88C97.5491 10.96 97.4558 11 97.3424 11C97.2224 11 97.1258 10.96 97.0524 10.88C96.9791 10.8 96.9424 10.7033 96.9424 10.59V6.15C96.9424 6.03667 96.9791 5.94333 97.0524 5.87C97.1324 5.79 97.2291 5.75 97.3424 5.75C97.4558 5.75 97.5491 5.79 97.6224 5.87C97.7024 5.94333 97.7424 6.03667 97.7424 6.15V10.59ZM97.3424 5.08C97.1758 5.08 97.0524 5.04667 96.9724 4.98C96.8924 4.91333 96.8524 4.81 96.8524 4.67V4.53C96.8524 4.39 96.8958 4.28667 96.9824 4.22C97.0691 4.15333 97.1924 4.12 97.3524 4.12C97.5124 4.12 97.6324 4.15333 97.7124 4.22C97.7924 4.28667 97.8324 4.39 97.8324 4.53V4.67C97.8324 4.81 97.7891 4.91333 97.7024 4.98C97.6224 5.04667 97.5024 5.08 97.3424 5.08ZM103.439 5.78C103.553 5.78 103.646 5.82 103.719 5.9C103.799 5.97333 103.839 6.06667 103.839 6.18V10.59C103.839 10.7033 103.799 10.8 103.719 10.88C103.646 10.96 103.553 11 103.439 11C103.319 11 103.223 10.96 103.149 10.88C103.076 10.8 103.039 10.7033 103.039 10.59V9.64L103.229 9.62C103.229 9.76667 103.179 9.92667 103.079 10.1C102.979 10.2733 102.843 10.4367 102.669 10.59C102.496 10.7367 102.289 10.86 102.049 10.96C101.816 11.0533 101.563 11.1 101.289 11.1C100.836 11.1 100.429 10.9833 100.069 10.75C99.7095 10.51 99.4228 10.1867 99.2095 9.78C99.0028 9.37333 98.8995 8.91 98.8995 8.39C98.8995 7.86333 99.0028 7.4 99.2095 7C99.4228 6.59333 99.7095 6.27667 100.069 6.05C100.429 5.81667 100.829 5.7 101.269 5.7C101.556 5.7 101.823 5.74667 102.069 5.84C102.316 5.93333 102.529 6.06 102.709 6.22C102.896 6.38 103.039 6.55667 103.139 6.75C103.246 6.94333 103.299 7.13667 103.299 7.33L103.039 7.27V6.18C103.039 6.06667 103.076 5.97333 103.149 5.9C103.223 5.82 103.319 5.78 103.439 5.78ZM101.379 10.36C101.713 10.36 102.006 10.2733 102.259 10.1C102.519 9.92667 102.719 9.69333 102.859 9.4C103.006 9.1 103.079 8.76333 103.079 8.39C103.079 8.02333 103.006 7.69333 102.859 7.4C102.719 7.1 102.519 6.86667 102.259 6.7C102.006 6.52667 101.713 6.44 101.379 6.44C101.053 6.44 100.759 6.52333 100.499 6.69C100.246 6.85667 100.046 7.08667 99.8995 7.38C99.7528 7.67333 99.6795 8.01 99.6795 8.39C99.6795 8.76333 99.7495 9.1 99.8895 9.4C100.036 9.69333 100.236 9.92667 100.489 10.1C100.749 10.2733 101.046 10.36 101.379 10.36ZM106.202 10.59C106.202 10.7033 106.162 10.8 106.082 10.88C106.002 10.96 105.905 11 105.792 11C105.679 11 105.585 10.96 105.512 10.88C105.439 10.8 105.402 10.7033 105.402 10.59V4C105.402 3.88667 105.439 3.79333 105.512 3.72C105.592 3.64 105.689 3.6 105.802 3.6C105.922 3.6 106.019 3.64 106.092 3.72C106.165 3.79333 106.202 3.88667 106.202 4V10.59ZM112.688 11.1C112.194 11.1 111.761 11.0267 111.388 10.88C111.014 10.7333 110.654 10.5 110.308 10.18C110.261 10.1333 110.221 10.0833 110.188 10.03C110.161 9.97 110.148 9.90667 110.148 9.84C110.148 9.73333 110.184 9.64 110.258 9.56C110.338 9.47333 110.434 9.43 110.548 9.43C110.641 9.43 110.724 9.46667 110.798 9.54C111.058 9.79333 111.338 9.98667 111.638 10.12C111.944 10.2533 112.288 10.32 112.668 10.32C112.961 10.32 113.224 10.2733 113.458 10.18C113.698 10.0867 113.888 9.95667 114.028 9.79C114.168 9.62333 114.238 9.43 114.238 9.21C114.231 8.94333 114.151 8.72333 113.998 8.55C113.851 8.37667 113.644 8.23333 113.378 8.12C113.118 8 112.814 7.9 112.468 7.82C112.161 7.74667 111.878 7.65667 111.618 7.55C111.364 7.44333 111.144 7.31333 110.958 7.16C110.771 7 110.624 6.81 110.518 6.59C110.418 6.36333 110.368 6.1 110.368 5.8C110.368 5.42 110.468 5.08667 110.668 4.8C110.868 4.51333 111.144 4.29333 111.498 4.14C111.851 3.98 112.258 3.9 112.718 3.9C113.124 3.9 113.508 3.96667 113.868 4.1C114.234 4.23333 114.528 4.41667 114.748 4.65C114.881 4.77667 114.948 4.9 114.948 5.02C114.948 5.12 114.904 5.21333 114.818 5.3C114.738 5.38 114.644 5.42 114.538 5.42C114.464 5.42 114.398 5.39333 114.338 5.34C114.224 5.21333 114.081 5.1 113.908 5C113.734 4.9 113.544 4.82 113.338 4.76C113.131 4.7 112.924 4.67 112.718 4.67C112.411 4.67 112.141 4.71667 111.908 4.81C111.674 4.89667 111.491 5.02333 111.358 5.19C111.231 5.35 111.168 5.54333 111.168 5.77C111.168 6.02333 111.241 6.23333 111.388 6.4C111.534 6.56 111.731 6.69333 111.978 6.8C112.224 6.9 112.498 6.99 112.798 7.07C113.124 7.15 113.424 7.24333 113.698 7.35C113.978 7.45 114.218 7.57667 114.418 7.73C114.618 7.88333 114.771 8.08 114.878 8.32C114.991 8.55333 115.048 8.84333 115.048 9.19C115.048 9.55667 114.944 9.88333 114.738 10.17C114.531 10.4567 114.248 10.6833 113.888 10.85C113.534 11.01 113.134 11.0933 112.688 11.1ZM116.73 11C116.61 11 116.513 10.96 116.44 10.88C116.366 10.8 116.33 10.7033 116.33 10.59V4C116.33 3.88667 116.366 3.79333 116.44 3.72C116.513 3.64 116.61 3.6 116.73 3.6C116.843 3.6 116.936 3.64 117.01 3.72C117.09 3.79333 117.13 3.88667 117.13 4V10.59C117.13 10.7033 117.09 10.8 117.01 10.88C116.936 10.96 116.843 11 116.73 11ZM120.05 5.8C120.156 5.8 120.246 5.84333 120.32 5.93C120.4 6.01 120.44 6.09333 120.44 6.18C120.44 6.29333 120.386 6.39333 120.28 6.48L117.04 9.31L117.01 8.38L119.77 5.92C119.85 5.84 119.943 5.8 120.05 5.8ZM120.16 10.99C120.046 10.99 119.946 10.9467 119.86 10.86L117.73 8.59L118.33 8.04L120.44 10.3C120.52 10.3867 120.56 10.4867 120.56 10.6C120.56 10.72 120.513 10.8167 120.42 10.89C120.326 10.9567 120.24 10.99 120.16 10.99ZM122.489 10.59C122.489 10.7033 122.449 10.8 122.369 10.88C122.295 10.96 122.202 11 122.089 11C121.969 11 121.872 10.96 121.799 10.88C121.725 10.8 121.689 10.7033 121.689 10.59V6.15C121.689 6.03667 121.725 5.94333 121.799 5.87C121.879 5.79 121.975 5.75 122.089 5.75C122.202 5.75 122.295 5.79 122.369 5.87C122.449 5.94333 122.489 6.03667 122.489 6.15V10.59ZM122.089 5.08C121.922 5.08 121.799 5.04667 121.719 4.98C121.639 4.91333 121.599 4.81 121.599 4.67V4.53C121.599 4.39 121.642 4.28667 121.729 4.22C121.815 4.15333 121.939 4.12 122.099 4.12C122.259 4.12 122.379 4.15333 122.459 4.22C122.539 4.28667 122.579 4.39 122.579 4.53V4.67C122.579 4.81 122.535 4.91333 122.449 4.98C122.369 5.04667 122.249 5.08 122.089 5.08ZM124.806 10.59C124.806 10.7033 124.766 10.8 124.686 10.88C124.606 10.96 124.509 11 124.396 11C124.282 11 124.189 10.96 124.116 10.88C124.042 10.8 124.006 10.7033 124.006 10.59V4C124.006 3.88667 124.042 3.79333 124.116 3.72C124.196 3.64 124.292 3.6 124.406 3.6C124.526 3.6 124.622 3.64 124.696 3.72C124.769 3.79333 124.806 3.88667 124.806 4V10.59ZM127.237 10.59C127.237 10.7033 127.197 10.8 127.117 10.88C127.037 10.96 126.941 11 126.827 11C126.714 11 126.621 10.96 126.547 10.88C126.474 10.8 126.437 10.7033 126.437 10.59V4C126.437 3.88667 126.474 3.79333 126.547 3.72C126.627 3.64 126.724 3.6 126.837 3.6C126.957 3.6 127.054 3.64 127.127 3.72C127.201 3.79333 127.237 3.88667 127.237 4V10.59ZM128.499 10.18C128.439 10.0933 128.412 10.0033 128.419 9.91C128.425 9.81 128.482 9.72333 128.589 9.65C128.655 9.60333 128.732 9.58333 128.819 9.59C128.912 9.59667 128.995 9.64 129.069 9.72C129.255 9.94 129.469 10.1167 129.709 10.25C129.949 10.3767 130.242 10.44 130.589 10.44C130.749 10.4333 130.909 10.4067 131.069 10.36C131.229 10.3133 131.362 10.2333 131.469 10.12C131.582 10 131.639 9.84333 131.639 9.65C131.639 9.46333 131.582 9.31667 131.469 9.21C131.355 9.09667 131.209 9.00667 131.029 8.94C130.849 8.86667 130.652 8.80333 130.439 8.75C130.219 8.69 130.002 8.62333 129.789 8.55C129.575 8.47 129.382 8.37333 129.209 8.26C129.042 8.14 128.905 7.99333 128.799 7.82C128.699 7.64 128.649 7.42333 128.649 7.17C128.649 6.87 128.729 6.61 128.889 6.39C129.055 6.17 129.275 6 129.549 5.88C129.829 5.76 130.132 5.7 130.459 5.7C130.645 5.7 130.839 5.72333 131.039 5.77C131.245 5.81 131.445 5.88333 131.639 5.99C131.832 6.09 132.002 6.23 132.149 6.41C132.209 6.47667 132.242 6.56 132.249 6.66C132.255 6.76 132.212 6.85 132.119 6.93C132.045 6.98333 131.962 7.00667 131.869 7C131.782 6.99333 131.709 6.96 131.649 6.9C131.509 6.73333 131.332 6.60667 131.119 6.52C130.912 6.42667 130.682 6.38 130.429 6.38C130.269 6.38 130.112 6.40333 129.959 6.45C129.805 6.49667 129.675 6.57667 129.569 6.69C129.469 6.79667 129.419 6.94667 129.419 7.14C129.425 7.32 129.485 7.46667 129.599 7.58C129.712 7.69333 129.865 7.78667 130.059 7.86C130.252 7.92667 130.465 7.99333 130.699 8.06C130.912 8.11333 131.115 8.17667 131.309 8.25C131.509 8.31667 131.689 8.40667 131.849 8.52C132.009 8.63333 132.135 8.78 132.229 8.96C132.322 9.13333 132.369 9.35333 132.369 9.62C132.369 9.92667 132.282 10.1933 132.109 10.42C131.935 10.64 131.705 10.81 131.419 10.93C131.139 11.0433 130.835 11.1 130.509 11.1C130.142 11.1 129.779 11.03 129.419 10.89C129.065 10.75 128.759 10.5133 128.499 10.18Z" fill="black"/>
</svg>
