<svg width="82" height="14" viewBox="0 0 82 14" fill="none" xmlns="http://www.w3.org/2000/svg">
<rect width="82" height="14" rx="7" fill="#50FF8A"/>
<path d="M9.45797 3.99C9.51797 3.99 9.5813 4.00667 9.64797 4.04C9.7213 4.07333 9.77797 4.11667 9.81797 4.17L12.468 8.18L12.118 8.17L14.798 4.17C14.8846 4.04333 14.998 3.98333 15.138 3.99C15.2446 3.99667 15.338 4.03667 15.418 4.11C15.498 4.18333 15.538 4.28 15.538 4.4V10.59C15.538 10.7033 15.498 10.8 15.418 10.88C15.338 10.96 15.238 11 15.118 11C14.998 11 14.898 10.96 14.818 10.88C14.738 10.8 14.698 10.7033 14.698 10.59V5.16L14.948 5.21L12.588 8.8C12.548 8.84667 12.498 8.88667 12.438 8.92C12.3846 8.95333 12.328 8.97 12.268 8.97C12.208 8.97 12.148 8.95333 12.088 8.92C12.028 8.88667 11.978 8.84667 11.938 8.8L9.60797 5.21L9.81797 4.95V10.59C9.81797 10.7033 9.7813 10.8 9.70797 10.88C9.63464 10.96 9.5413 11 9.42797 11C9.31464 11 9.2213 10.96 9.14797 10.88C9.0813 10.8 9.04797 10.7033 9.04797 10.59V4.4C9.04797 4.29333 9.08464 4.2 9.15797 4.12C9.23797 4.03333 9.33797 3.99 9.45797 3.99ZM19.5402 11.1C19.0068 11.1 18.5402 10.9867 18.1402 10.76C17.7402 10.5333 17.4268 10.2233 17.2002 9.83C16.9802 9.43 16.8702 8.97 16.8702 8.45C16.8702 7.87 16.9835 7.37667 17.2102 6.97C17.4435 6.55667 17.7435 6.24333 18.1102 6.03C18.4835 5.81 18.8768 5.7 19.2902 5.7C19.5968 5.7 19.8935 5.75667 20.1802 5.87C20.4668 5.98333 20.7202 6.15 20.9402 6.37C21.1602 6.58333 21.3368 6.84333 21.4702 7.15C21.6035 7.45 21.6735 7.78667 21.6802 8.16C21.6802 8.26667 21.6402 8.35667 21.5602 8.43C21.4802 8.50333 21.3868 8.54 21.2802 8.54H17.3302L17.1502 7.85H21.0002L20.8402 7.99V7.77C20.8135 7.49667 20.7202 7.26333 20.5602 7.07C20.4068 6.87 20.2168 6.71667 19.9902 6.61C19.7702 6.50333 19.5368 6.45 19.2902 6.45C19.0902 6.45 18.8902 6.48667 18.6902 6.56C18.4968 6.62667 18.3202 6.74 18.1602 6.9C18.0068 7.05333 17.8802 7.25333 17.7802 7.5C17.6868 7.74667 17.6402 8.04333 17.6402 8.39C17.6402 8.77667 17.7168 9.11667 17.8702 9.41C18.0302 9.70333 18.2502 9.93667 18.5302 10.11C18.8102 10.2767 19.1368 10.36 19.5102 10.36C19.7435 10.36 19.9468 10.33 20.1202 10.27C20.2935 10.21 20.4435 10.1367 20.5702 10.05C20.6968 9.95667 20.8035 9.86333 20.8902 9.77C20.9768 9.71 21.0602 9.68 21.1402 9.68C21.2402 9.68 21.3202 9.71333 21.3802 9.78C21.4468 9.84667 21.4802 9.92667 21.4802 10.02C21.4802 10.1333 21.4268 10.2333 21.3202 10.32C21.1335 10.5267 20.8802 10.71 20.5602 10.87C20.2402 11.0233 19.9002 11.1 19.5402 11.1ZM25.4526 5.7C25.9059 5.7 26.2626 5.79333 26.5226 5.98C26.7826 6.16667 26.9659 6.41667 27.0726 6.73C27.1859 7.04333 27.2426 7.39333 27.2426 7.78V10.59C27.2426 10.7033 27.2026 10.8 27.1226 10.88C27.0492 10.96 26.9559 11 26.8426 11C26.7292 11 26.6326 10.96 26.5526 10.88C26.4792 10.8 26.4426 10.7033 26.4426 10.59V7.8C26.4426 7.54667 26.4026 7.32 26.3226 7.12C26.2492 6.91333 26.1226 6.75 25.9426 6.63C25.7692 6.50333 25.5292 6.44 25.2226 6.44C24.9426 6.44 24.6859 6.50333 24.4526 6.63C24.2192 6.75 24.0326 6.91333 23.8926 7.12C23.7526 7.32 23.6826 7.54667 23.6826 7.8V10.59C23.6826 10.7033 23.6426 10.8 23.5626 10.88C23.4892 10.96 23.3959 11 23.2826 11C23.1692 11 23.0726 10.96 22.9926 10.88C22.9192 10.8 22.8826 10.7033 22.8826 10.59V6.23C22.8826 6.11667 22.9192 6.02333 22.9926 5.95C23.0726 5.87 23.1692 5.83 23.2826 5.83C23.4026 5.83 23.4992 5.87 23.5726 5.95C23.6459 6.02333 23.6826 6.11667 23.6826 6.23V6.94L23.4826 7.16C23.5159 6.98667 23.5926 6.81333 23.7126 6.64C23.8326 6.46 23.9826 6.3 24.1626 6.16C24.3426 6.02 24.5426 5.91 24.7626 5.83C24.9826 5.74333 25.2126 5.7 25.4526 5.7ZM28.5224 5.86H30.8724C30.9791 5.86 31.0658 5.89667 31.1324 5.97C31.2058 6.04333 31.2424 6.13 31.2424 6.23C31.2424 6.33667 31.2058 6.42667 31.1324 6.5C31.0658 6.56667 30.9791 6.6 30.8724 6.6H28.5224C28.4224 6.6 28.3358 6.56333 28.2624 6.49C28.1891 6.41667 28.1524 6.32667 28.1524 6.22C28.1524 6.12 28.1891 6.03667 28.2624 5.97C28.3358 5.89667 28.4224 5.86 28.5224 5.86ZM29.5724 4.5C29.6858 4.5 29.7791 4.54 29.8524 4.62C29.9258 4.69333 29.9624 4.78667 29.9624 4.9V9.73C29.9624 9.89 29.9858 10.01 30.0324 10.09C30.0791 10.17 30.1391 10.2267 30.2124 10.26C30.2924 10.2867 30.3691 10.3 30.4424 10.3C30.5091 10.3 30.5658 10.29 30.6124 10.27C30.6658 10.2433 30.7258 10.23 30.7924 10.23C30.8591 10.23 30.9191 10.2633 30.9724 10.33C31.0324 10.39 31.0624 10.47 31.0624 10.57C31.0624 10.69 30.9924 10.7933 30.8524 10.88C30.7124 10.96 30.5558 11 30.3824 11C30.2891 11 30.1724 10.9933 30.0324 10.98C29.8991 10.9667 29.7658 10.9233 29.6324 10.85C29.4991 10.7767 29.3858 10.6567 29.2924 10.49C29.2058 10.3167 29.1624 10.0767 29.1624 9.77V4.9C29.1624 4.78667 29.2024 4.69333 29.2824 4.62C29.3624 4.54 29.4591 4.5 29.5724 4.5ZM36.6152 5.78C36.7286 5.78 36.8219 5.82 36.8952 5.9C36.9752 5.97333 37.0152 6.06667 37.0152 6.18V10.59C37.0152 10.7033 36.9752 10.8 36.8952 10.88C36.8219 10.96 36.7286 11 36.6152 11C36.4952 11 36.3986 10.96 36.3252 10.88C36.2519 10.8 36.2152 10.7033 36.2152 10.59V9.64L36.4052 9.62C36.4052 9.76667 36.3552 9.92667 36.2552 10.1C36.1552 10.2733 36.0186 10.4367 35.8452 10.59C35.6719 10.7367 35.4652 10.86 35.2252 10.96C34.9919 11.0533 34.7386 11.1 34.4652 11.1C34.0119 11.1 33.6052 10.9833 33.2452 10.75C32.8852 10.51 32.5986 10.1867 32.3852 9.78C32.1786 9.37333 32.0752 8.91 32.0752 8.39C32.0752 7.86333 32.1786 7.4 32.3852 7C32.5986 6.59333 32.8852 6.27667 33.2452 6.05C33.6052 5.81667 34.0052 5.7 34.4452 5.7C34.7319 5.7 34.9986 5.74667 35.2452 5.84C35.4919 5.93333 35.7052 6.06 35.8852 6.22C36.0719 6.38 36.2152 6.55667 36.3152 6.75C36.4219 6.94333 36.4752 7.13667 36.4752 7.33L36.2152 7.27V6.18C36.2152 6.06667 36.2519 5.97333 36.3252 5.9C36.3986 5.82 36.4952 5.78 36.6152 5.78ZM34.5552 10.36C34.8886 10.36 35.1819 10.2733 35.4352 10.1C35.6952 9.92667 35.8952 9.69333 36.0352 9.4C36.1819 9.1 36.2552 8.76333 36.2552 8.39C36.2552 8.02333 36.1819 7.69333 36.0352 7.4C35.8952 7.1 35.6952 6.86667 35.4352 6.7C35.1819 6.52667 34.8886 6.44 34.5552 6.44C34.2286 6.44 33.9352 6.52333 33.6752 6.69C33.4219 6.85667 33.2219 7.08667 33.0752 7.38C32.9286 7.67333 32.8552 8.01 32.8552 8.39C32.8552 8.76333 32.9252 9.1 33.0652 9.4C33.2119 9.69333 33.4119 9.92667 33.6652 10.1C33.9252 10.2733 34.2219 10.36 34.5552 10.36ZM39.3778 10.59C39.3778 10.7033 39.3378 10.8 39.2578 10.88C39.1778 10.96 39.0811 11 38.9678 11C38.8545 11 38.7611 10.96 38.6878 10.88C38.6145 10.8 38.5778 10.7033 38.5778 10.59V4C38.5778 3.88667 38.6145 3.79333 38.6878 3.72C38.7678 3.64 38.8645 3.6 38.9778 3.6C39.0978 3.6 39.1945 3.64 39.2678 3.72C39.3411 3.79333 39.3778 3.88667 39.3778 4V10.59ZM44.2434 4C44.3567 4 44.4534 4.04 44.5334 4.12C44.6134 4.19333 44.6534 4.29 44.6534 4.41V10.59C44.6534 10.7033 44.61 10.8 44.5234 10.88C44.4434 10.96 44.3467 11 44.2334 11C44.1067 11 44.0067 10.96 43.9334 10.88C43.86 10.8 43.8234 10.7033 43.8234 10.59V4.41C43.8234 4.29 43.8634 4.19333 43.9434 4.12C44.0234 4.04 44.1234 4 44.2434 4ZM48.8534 4C48.9734 4 49.07 4.04 49.1434 4.12C49.2234 4.19333 49.2634 4.29 49.2634 4.41V10.59C49.2634 10.7033 49.2234 10.8 49.1434 10.88C49.0634 10.96 48.9634 11 48.8434 11C48.73 11 48.6334 10.96 48.5534 10.88C48.4734 10.8 48.4334 10.7033 48.4334 10.59V4.41C48.4334 4.29 48.4734 4.19333 48.5534 4.12C48.64 4.04 48.74 4 48.8534 4ZM44.2034 7.05H48.8634L48.8534 7.83H44.1734L44.2034 7.05ZM53.2706 11.1C52.7373 11.1 52.2706 10.9867 51.8706 10.76C51.4706 10.5333 51.1573 10.2233 50.9306 9.83C50.7106 9.43 50.6006 8.97 50.6006 8.45C50.6006 7.87 50.714 7.37667 50.9406 6.97C51.174 6.55667 51.474 6.24333 51.8406 6.03C52.214 5.81 52.6073 5.7 53.0206 5.7C53.3273 5.7 53.624 5.75667 53.9106 5.87C54.1973 5.98333 54.4506 6.15 54.6706 6.37C54.8906 6.58333 55.0673 6.84333 55.2006 7.15C55.334 7.45 55.404 7.78667 55.4106 8.16C55.4106 8.26667 55.3706 8.35667 55.2906 8.43C55.2106 8.50333 55.1173 8.54 55.0106 8.54H51.0606L50.8806 7.85H54.7306L54.5706 7.99V7.77C54.544 7.49667 54.4506 7.26333 54.2906 7.07C54.1373 6.87 53.9473 6.71667 53.7206 6.61C53.5006 6.50333 53.2673 6.45 53.0206 6.45C52.8206 6.45 52.6206 6.48667 52.4206 6.56C52.2273 6.62667 52.0506 6.74 51.8906 6.9C51.7373 7.05333 51.6106 7.25333 51.5106 7.5C51.4173 7.74667 51.3706 8.04333 51.3706 8.39C51.3706 8.77667 51.4473 9.11667 51.6006 9.41C51.7606 9.70333 51.9806 9.93667 52.2606 10.11C52.5406 10.2767 52.8673 10.36 53.2406 10.36C53.474 10.36 53.6773 10.33 53.8506 10.27C54.024 10.21 54.174 10.1367 54.3006 10.05C54.4273 9.95667 54.534 9.86333 54.6206 9.77C54.7073 9.71 54.7906 9.68 54.8706 9.68C54.9706 9.68 55.0506 9.71333 55.1106 9.78C55.1773 9.84667 55.2106 9.92667 55.2106 10.02C55.2106 10.1333 55.1573 10.2333 55.0506 10.32C54.864 10.5267 54.6106 10.71 54.2906 10.87C53.9706 11.0233 53.6306 11.1 53.2706 11.1ZM60.9121 5.78C61.0254 5.78 61.1188 5.82 61.1921 5.9C61.2721 5.97333 61.3121 6.06667 61.3121 6.18V10.59C61.3121 10.7033 61.2721 10.8 61.1921 10.88C61.1188 10.96 61.0254 11 60.9121 11C60.7921 11 60.6954 10.96 60.6221 10.88C60.5488 10.8 60.5121 10.7033 60.5121 10.59V9.64L60.7021 9.62C60.7021 9.76667 60.6521 9.92667 60.5521 10.1C60.4521 10.2733 60.3154 10.4367 60.1421 10.59C59.9688 10.7367 59.7621 10.86 59.5221 10.96C59.2888 11.0533 59.0354 11.1 58.7621 11.1C58.3088 11.1 57.9021 10.9833 57.5421 10.75C57.1821 10.51 56.8954 10.1867 56.6821 9.78C56.4754 9.37333 56.3721 8.91 56.3721 8.39C56.3721 7.86333 56.4754 7.4 56.6821 7C56.8954 6.59333 57.1821 6.27667 57.5421 6.05C57.9021 5.81667 58.3021 5.7 58.7421 5.7C59.0288 5.7 59.2954 5.74667 59.5421 5.84C59.7888 5.93333 60.0021 6.06 60.1821 6.22C60.3688 6.38 60.5121 6.55667 60.6121 6.75C60.7188 6.94333 60.7721 7.13667 60.7721 7.33L60.5121 7.27V6.18C60.5121 6.06667 60.5488 5.97333 60.6221 5.9C60.6954 5.82 60.7921 5.78 60.9121 5.78ZM58.8521 10.36C59.1854 10.36 59.4788 10.2733 59.7321 10.1C59.9921 9.92667 60.1921 9.69333 60.3321 9.4C60.4788 9.1 60.5521 8.76333 60.5521 8.39C60.5521 8.02333 60.4788 7.69333 60.3321 7.4C60.1921 7.1 59.9921 6.86667 59.7321 6.7C59.4788 6.52667 59.1854 6.44 58.8521 6.44C58.5254 6.44 58.2321 6.52333 57.9721 6.69C57.7188 6.85667 57.5188 7.08667 57.3721 7.38C57.2254 7.67333 57.1521 8.01 57.1521 8.39C57.1521 8.76333 57.2221 9.1 57.3621 9.4C57.5088 9.69333 57.7088 9.92667 57.9621 10.1C58.2221 10.2733 58.5188 10.36 58.8521 10.36ZM63.6747 10.59C63.6747 10.7033 63.6347 10.8 63.5547 10.88C63.4747 10.96 63.378 11 63.2647 11C63.1514 11 63.058 10.96 62.9847 10.88C62.9114 10.8 62.8747 10.7033 62.8747 10.59V4C62.8747 3.88667 62.9114 3.79333 62.9847 3.72C63.0647 3.64 63.1614 3.6 63.2747 3.6C63.3947 3.6 63.4914 3.64 63.5647 3.72C63.638 3.79333 63.6747 3.88667 63.6747 4V10.59ZM64.997 5.86H67.347C67.4537 5.86 67.5404 5.89667 67.607 5.97C67.6804 6.04333 67.717 6.13 67.717 6.23C67.717 6.33667 67.6804 6.42667 67.607 6.5C67.5404 6.56667 67.4537 6.6 67.347 6.6H64.997C64.897 6.6 64.8104 6.56333 64.737 6.49C64.6637 6.41667 64.627 6.32667 64.627 6.22C64.627 6.12 64.6637 6.03667 64.737 5.97C64.8104 5.89667 64.897 5.86 64.997 5.86ZM66.047 4.5C66.1604 4.5 66.2537 4.54 66.327 4.62C66.4004 4.69333 66.437 4.78667 66.437 4.9V9.73C66.437 9.89 66.4604 10.01 66.507 10.09C66.5537 10.17 66.6137 10.2267 66.687 10.26C66.767 10.2867 66.8437 10.3 66.917 10.3C66.9837 10.3 67.0404 10.29 67.087 10.27C67.1404 10.2433 67.2004 10.23 67.267 10.23C67.3337 10.23 67.3937 10.2633 67.447 10.33C67.507 10.39 67.537 10.47 67.537 10.57C67.537 10.69 67.467 10.7933 67.327 10.88C67.187 10.96 67.0304 11 66.857 11C66.7637 11 66.647 10.9933 66.507 10.98C66.3737 10.9667 66.2404 10.9233 66.107 10.85C65.9737 10.7767 65.8604 10.6567 65.767 10.49C65.6804 10.3167 65.637 10.0767 65.637 9.77V4.9C65.637 4.78667 65.677 4.69333 65.757 4.62C65.837 4.54 65.9337 4.5 66.047 4.5ZM71.3298 5.75C71.7698 5.75 72.1165 5.84667 72.3698 6.04C72.6298 6.22667 72.8132 6.48 72.9198 6.8C73.0332 7.11333 73.0898 7.46333 73.0898 7.85V10.59C73.0898 10.7033 73.0498 10.8 72.9698 10.88C72.8965 10.96 72.8032 11 72.6898 11C72.5765 11 72.4798 10.96 72.3998 10.88C72.3265 10.8 72.2898 10.7033 72.2898 10.59V7.85C72.2898 7.59667 72.2532 7.37 72.1798 7.17C72.1065 6.96333 71.9832 6.8 71.8098 6.68C71.6432 6.55333 71.4132 6.49 71.1198 6.49C70.8465 6.49 70.5965 6.55333 70.3698 6.68C70.1432 6.8 69.9632 6.96333 69.8298 7.17C69.6965 7.37 69.6298 7.59667 69.6298 7.85V10.59C69.6298 10.7033 69.5898 10.8 69.5098 10.88C69.4365 10.96 69.3432 11 69.2298 11C69.1165 11 69.0198 10.96 68.9398 10.88C68.8665 10.8 68.8298 10.7033 68.8298 10.59V4C68.8298 3.88667 68.8665 3.79333 68.9398 3.72C69.0198 3.64 69.1165 3.6 69.2298 3.6C69.3498 3.6 69.4465 3.64 69.5198 3.72C69.5932 3.79333 69.6298 3.88667 69.6298 4V6.99L69.4298 7.21C69.4632 7.03667 69.5365 6.86333 69.6498 6.69C69.7632 6.51 69.9065 6.35 70.0798 6.21C70.2532 6.07 70.4465 5.96 70.6598 5.88C70.8732 5.79333 71.0965 5.75 71.3298 5.75Z" fill="black"/>
</svg>
