<svg width="84" height="14" viewBox="0 0 84 14" fill="none" xmlns="http://www.w3.org/2000/svg">
<rect width="84" height="14" rx="7" fill="#EFDFFF"/>
<path d="M14.2709 4C14.3843 4 14.4743 4.03667 14.5409 4.11C14.6076 4.17667 14.6409 4.26333 14.6409 4.37V10.58C14.6409 10.7067 14.6009 10.81 14.5209 10.89C14.4409 10.9633 14.3443 11 14.2309 11C14.1709 11 14.1109 10.99 14.0509 10.97C13.9909 10.9433 13.9443 10.91 13.9109 10.87L9.63094 5.21L9.83094 5.09V10.63C9.83094 10.7367 9.79427 10.8267 9.72094 10.9C9.65427 10.9667 9.56427 11 9.45094 11C9.34427 11 9.2576 10.9667 9.19094 10.9C9.12427 10.8267 9.09094 10.7367 9.09094 10.63V4.4C9.09094 4.28 9.1276 4.18333 9.20094 4.11C9.28094 4.03667 9.37427 4 9.48094 4C9.54094 4 9.60094 4.01333 9.66094 4.04C9.7276 4.06 9.7776 4.09333 9.81094 4.14L14.0309 9.72L13.9009 9.88V4.37C13.9009 4.26333 13.9343 4.17667 14.0009 4.11C14.0743 4.03667 14.1643 4 14.2709 4ZM18.6456 11.1C18.1123 11.1 17.6456 10.9867 17.2456 10.76C16.8456 10.5333 16.5323 10.2233 16.3056 9.83C16.0856 9.43 15.9756 8.97 15.9756 8.45C15.9756 7.87 16.089 7.37667 16.3156 6.97C16.549 6.55667 16.849 6.24333 17.2156 6.03C17.589 5.81 17.9823 5.7 18.3956 5.7C18.7023 5.7 18.999 5.75667 19.2856 5.87C19.5723 5.98333 19.8256 6.15 20.0456 6.37C20.2656 6.58333 20.4423 6.84333 20.5756 7.15C20.709 7.45 20.779 7.78667 20.7856 8.16C20.7856 8.26667 20.7456 8.35667 20.6656 8.43C20.5856 8.50333 20.4923 8.54 20.3856 8.54H16.4356L16.2556 7.85H20.1056L19.9456 7.99V7.77C19.919 7.49667 19.8256 7.26333 19.6656 7.07C19.5123 6.87 19.3223 6.71667 19.0956 6.61C18.8756 6.50333 18.6423 6.45 18.3956 6.45C18.1956 6.45 17.9956 6.48667 17.7956 6.56C17.6023 6.62667 17.4256 6.74 17.2656 6.9C17.1123 7.05333 16.9856 7.25333 16.8856 7.5C16.7923 7.74667 16.7456 8.04333 16.7456 8.39C16.7456 8.77667 16.8223 9.11667 16.9756 9.41C17.1356 9.70333 17.3556 9.93667 17.6356 10.11C17.9156 10.2767 18.2423 10.36 18.6156 10.36C18.849 10.36 19.0523 10.33 19.2256 10.27C19.399 10.21 19.549 10.1367 19.6756 10.05C19.8023 9.95667 19.909 9.86333 19.9956 9.77C20.0823 9.71 20.1656 9.68 20.2456 9.68C20.3456 9.68 20.4256 9.71333 20.4856 9.78C20.5523 9.84667 20.5856 9.92667 20.5856 10.02C20.5856 10.1333 20.5323 10.2333 20.4256 10.32C20.239 10.5267 19.9856 10.71 19.6656 10.87C19.3456 11.0233 19.0056 11.1 18.6456 11.1ZM28.088 5.74C28.1947 5.74 28.2847 5.77667 28.358 5.85C28.438 5.92333 28.478 6.02 28.478 6.14C28.478 6.16667 28.4747 6.19667 28.468 6.23C28.468 6.25667 28.4614 6.28333 28.448 6.31L26.908 10.74C26.8747 10.8267 26.818 10.8933 26.738 10.94C26.6647 10.9867 26.5847 11.0067 26.498 11C26.3447 10.9933 26.228 10.9067 26.148 10.74L24.888 7.58L25.088 7.61L23.948 10.74C23.8747 10.9067 23.758 10.9933 23.598 11C23.5114 11.0067 23.428 10.9867 23.348 10.94C23.268 10.8933 23.2147 10.8267 23.188 10.74L21.618 6.31C21.598 6.25 21.588 6.19333 21.588 6.14C21.588 6.03333 21.6247 5.94 21.698 5.86C21.7714 5.78 21.8714 5.74 21.998 5.74C22.078 5.74 22.1514 5.76 22.218 5.8C22.2847 5.84 22.3314 5.90333 22.358 5.99L23.708 9.93L23.498 9.92L24.668 6.92C24.7347 6.75333 24.858 6.67 25.038 6.67C25.1314 6.67 25.2047 6.69333 25.258 6.74C25.318 6.78 25.3614 6.84 25.388 6.92L26.608 9.92L26.358 9.94L27.708 5.99C27.768 5.82333 27.8947 5.74 28.088 5.74ZM32.1064 5.7C32.5597 5.7 32.9664 5.81667 33.3264 6.05C33.6864 6.27667 33.9697 6.59 34.1764 6.99C34.3897 7.39 34.4964 7.85333 34.4964 8.38C34.4964 8.90667 34.3897 9.37333 34.1764 9.78C33.9697 10.1867 33.6864 10.51 33.3264 10.75C32.9731 10.9833 32.5731 11.1 32.1264 11.1C31.8797 11.1 31.6464 11.0633 31.4264 10.99C31.2131 10.91 31.0164 10.8067 30.8364 10.68C30.6631 10.5467 30.5164 10.4033 30.3964 10.25C30.2764 10.09 30.1897 9.93333 30.1364 9.78L30.3564 9.64V10.64C30.3564 10.7533 30.3197 10.85 30.2464 10.93C30.1731 11.01 30.0764 11.05 29.9564 11.05C29.8431 11.05 29.7464 11.0133 29.6664 10.94C29.5931 10.86 29.5564 10.76 29.5564 10.64V4.01C29.5564 3.89667 29.5931 3.8 29.6664 3.72C29.7464 3.64 29.8431 3.6 29.9564 3.6C30.0764 3.6 30.1731 3.64 30.2464 3.72C30.3197 3.8 30.3564 3.89667 30.3564 4.01V7.09L30.2064 7.01C30.2531 6.84333 30.3331 6.68333 30.4464 6.53C30.5664 6.37 30.7097 6.23 30.8764 6.11C31.0497 5.98333 31.2397 5.88333 31.4464 5.81C31.6597 5.73667 31.8797 5.7 32.1064 5.7ZM32.0164 6.44C31.6831 6.44 31.3864 6.52333 31.1264 6.69C30.8731 6.85667 30.6731 7.08667 30.5264 7.38C30.3864 7.67333 30.3164 8.00667 30.3164 8.38C30.3164 8.75333 30.3864 9.09 30.5264 9.39C30.6731 9.69 30.8731 9.92667 31.1264 10.1C31.3864 10.2733 31.6831 10.36 32.0164 10.36C32.3497 10.36 32.6431 10.2733 32.8964 10.1C33.1497 9.92667 33.3497 9.69 33.4964 9.39C33.6431 9.09 33.7164 8.75333 33.7164 8.38C33.7164 8.00667 33.6431 7.67333 33.4964 7.38C33.3497 7.08667 33.1497 6.85667 32.8964 6.69C32.6431 6.52333 32.3497 6.44 32.0164 6.44ZM40.609 8.4C40.609 8.92 40.4923 9.38333 40.259 9.79C40.0323 10.1967 39.7223 10.5167 39.329 10.75C38.9423 10.9833 38.5057 11.1 38.019 11.1C37.5323 11.1 37.0923 10.9833 36.699 10.75C36.3057 10.5167 35.9923 10.1967 35.759 9.79C35.5323 9.38333 35.419 8.92 35.419 8.4C35.419 7.88 35.5323 7.41667 35.759 7.01C35.9923 6.60333 36.3057 6.28333 36.699 6.05C37.0923 5.81667 37.5323 5.7 38.019 5.7C38.5057 5.7 38.9423 5.81667 39.329 6.05C39.7223 6.28333 40.0323 6.60333 40.259 7.01C40.4923 7.41667 40.609 7.88 40.609 8.4ZM39.809 8.4C39.809 8.01333 39.729 7.67333 39.569 7.38C39.4157 7.08667 39.2023 6.85667 38.929 6.69C38.6623 6.52333 38.359 6.44 38.019 6.44C37.679 6.44 37.3723 6.52333 37.099 6.69C36.8323 6.85667 36.619 7.08667 36.459 7.38C36.299 7.67333 36.219 8.01333 36.219 8.4C36.219 8.78 36.299 9.11667 36.459 9.41C36.619 9.70333 36.8323 9.93667 37.099 10.11C37.3723 10.2767 37.679 10.36 38.019 10.36C38.359 10.36 38.6623 10.2767 38.929 10.11C39.2023 9.93667 39.4157 9.70333 39.569 9.41C39.729 9.11667 39.809 8.78 39.809 8.4ZM42.2123 11C42.0989 11 42.0023 10.96 41.9223 10.88C41.8489 10.8 41.8123 10.7033 41.8123 10.59V6.23C41.8123 6.11667 41.8489 6.02333 41.9223 5.95C42.0023 5.87 42.0989 5.83 42.2123 5.83C42.3323 5.83 42.4289 5.87 42.5023 5.95C42.5756 6.02333 42.6123 6.11667 42.6123 6.23V7.55L42.4923 7.34C42.5323 7.13333 42.6023 6.93333 42.7023 6.74C42.8089 6.54 42.9423 6.36333 43.1023 6.21C43.2623 6.05 43.4456 5.92667 43.6523 5.84C43.8589 5.74667 44.0856 5.7 44.3323 5.7C44.4789 5.7 44.6123 5.73667 44.7323 5.81C44.8589 5.87667 44.9223 5.97333 44.9223 6.1C44.9223 6.24 44.8856 6.34333 44.8123 6.41C44.7389 6.47667 44.6556 6.51 44.5623 6.51C44.4756 6.51 44.3923 6.49333 44.3123 6.46C44.2323 6.42 44.1323 6.4 44.0123 6.4C43.8456 6.4 43.6789 6.44667 43.5123 6.54C43.3523 6.62667 43.2023 6.75333 43.0623 6.92C42.9289 7.08667 42.8189 7.27667 42.7323 7.49C42.6523 7.69667 42.6123 7.92 42.6123 8.16V10.59C42.6123 10.7033 42.5723 10.8 42.4923 10.88C42.4189 10.96 42.3256 11 42.2123 11ZM48.3959 5.7C48.8493 5.7 49.2059 5.79333 49.4659 5.98C49.7259 6.16667 49.9093 6.41667 50.0159 6.73C50.1293 7.04333 50.1859 7.39333 50.1859 7.78V10.59C50.1859 10.7033 50.1459 10.8 50.0659 10.88C49.9926 10.96 49.8993 11 49.7859 11C49.6726 11 49.5759 10.96 49.4959 10.88C49.4226 10.8 49.3859 10.7033 49.3859 10.59V7.8C49.3859 7.54667 49.3459 7.32 49.2659 7.12C49.1926 6.91333 49.0659 6.75 48.8859 6.63C48.7126 6.50333 48.4726 6.44 48.1659 6.44C47.8859 6.44 47.6293 6.50333 47.3959 6.63C47.1626 6.75 46.9759 6.91333 46.8359 7.12C46.6959 7.32 46.6259 7.54667 46.6259 7.8V10.59C46.6259 10.7033 46.5859 10.8 46.5059 10.88C46.4326 10.96 46.3393 11 46.2259 11C46.1126 11 46.0159 10.96 45.9359 10.88C45.8626 10.8 45.8259 10.7033 45.8259 10.59V6.23C45.8259 6.11667 45.8626 6.02333 45.9359 5.95C46.0159 5.87 46.1126 5.83 46.2259 5.83C46.3459 5.83 46.4426 5.87 46.5159 5.95C46.5893 6.02333 46.6259 6.11667 46.6259 6.23V6.94L46.4259 7.16C46.4593 6.98667 46.5359 6.81333 46.6559 6.64C46.7759 6.46 46.9259 6.3 47.1059 6.16C47.2859 6.02 47.4859 5.91 47.7059 5.83C47.9259 5.74333 48.1559 5.7 48.3959 5.7ZM59.5997 4.46C59.713 4.52 59.7764 4.61 59.7897 4.73C59.8097 4.85 59.7797 4.96 59.6997 5.06C59.6397 5.14667 59.563 5.19333 59.4697 5.2C59.3764 5.20667 59.283 5.18667 59.1897 5.14C58.9697 5.00667 58.733 4.90333 58.4797 4.83C58.2264 4.75 57.9597 4.71 57.6797 4.71C57.2864 4.71 56.9264 4.78 56.5997 4.92C56.273 5.05333 55.9897 5.24333 55.7497 5.49C55.5097 5.73667 55.323 6.03 55.1897 6.37C55.0564 6.71 54.9897 7.08667 54.9897 7.5C54.9897 7.94 55.0597 8.33333 55.1997 8.68C55.3397 9.02667 55.5297 9.32333 55.7697 9.57C56.0164 9.81 56.2997 9.99333 56.6197 10.12C56.9464 10.2467 57.2997 10.31 57.6797 10.31C57.953 10.31 58.2164 10.2733 58.4697 10.2C58.723 10.1267 58.963 10.02 59.1897 9.88C59.283 9.83333 59.3764 9.81667 59.4697 9.83C59.563 9.84333 59.643 9.89 59.7097 9.97C59.7897 10.0767 59.8197 10.19 59.7997 10.31C59.7797 10.4233 59.7164 10.5067 59.6097 10.56C59.443 10.66 59.253 10.7533 59.0397 10.84C58.8264 10.92 58.603 10.9833 58.3697 11.03C58.143 11.0767 57.913 11.1 57.6797 11.1C57.1997 11.1 56.7464 11.0167 56.3197 10.85C55.893 10.6833 55.5164 10.4433 55.1897 10.13C54.863 9.81667 54.603 9.44 54.4097 9C54.223 8.55333 54.1297 8.05333 54.1297 7.5C54.1297 6.98 54.2197 6.50333 54.3997 6.07C54.5797 5.63667 54.8297 5.26 55.1497 4.94C55.4764 4.62 55.853 4.37 56.2797 4.19C56.713 4.01 57.1797 3.92 57.6797 3.92C58.0264 3.92 58.363 3.96667 58.6897 4.06C59.023 4.15333 59.3264 4.28667 59.5997 4.46ZM65.125 5.78C65.2383 5.78 65.3317 5.82 65.405 5.9C65.485 5.97333 65.525 6.06667 65.525 6.18V10.59C65.525 10.7033 65.485 10.8 65.405 10.88C65.3317 10.96 65.2383 11 65.125 11C65.005 11 64.9083 10.96 64.835 10.88C64.7617 10.8 64.725 10.7033 64.725 10.59V9.64L64.915 9.62C64.915 9.76667 64.865 9.92667 64.765 10.1C64.665 10.2733 64.5283 10.4367 64.355 10.59C64.1817 10.7367 63.975 10.86 63.735 10.96C63.5017 11.0533 63.2483 11.1 62.975 11.1C62.5217 11.1 62.115 10.9833 61.755 10.75C61.395 10.51 61.1083 10.1867 60.895 9.78C60.6883 9.37333 60.585 8.91 60.585 8.39C60.585 7.86333 60.6883 7.4 60.895 7C61.1083 6.59333 61.395 6.27667 61.755 6.05C62.115 5.81667 62.515 5.7 62.955 5.7C63.2417 5.7 63.5083 5.74667 63.755 5.84C64.0017 5.93333 64.215 6.06 64.395 6.22C64.5817 6.38 64.725 6.55667 64.825 6.75C64.9317 6.94333 64.985 7.13667 64.985 7.33L64.725 7.27V6.18C64.725 6.06667 64.7617 5.97333 64.835 5.9C64.9083 5.82 65.005 5.78 65.125 5.78ZM63.065 10.36C63.3983 10.36 63.6917 10.2733 63.945 10.1C64.205 9.92667 64.405 9.69333 64.545 9.4C64.6917 9.1 64.765 8.76333 64.765 8.39C64.765 8.02333 64.6917 7.69333 64.545 7.4C64.405 7.1 64.205 6.86667 63.945 6.7C63.6917 6.52667 63.3983 6.44 63.065 6.44C62.7383 6.44 62.445 6.52333 62.185 6.69C61.9317 6.85667 61.7317 7.08667 61.585 7.38C61.4383 7.67333 61.365 8.01 61.365 8.39C61.365 8.76333 61.435 9.1 61.575 9.4C61.7217 9.69333 61.9217 9.92667 62.175 10.1C62.435 10.2733 62.7317 10.36 63.065 10.36ZM67.4076 11C67.2942 11 67.1976 10.96 67.1176 10.88C67.0442 10.8 67.0076 10.7033 67.0076 10.59V6.23C67.0076 6.11667 67.0442 6.02333 67.1176 5.95C67.1976 5.87 67.2942 5.83 67.4076 5.83C67.5276 5.83 67.6242 5.87 67.6976 5.95C67.7709 6.02333 67.8076 6.11667 67.8076 6.23V7.55L67.6876 7.34C67.7276 7.13333 67.7976 6.93333 67.8976 6.74C68.0042 6.54 68.1376 6.36333 68.2976 6.21C68.4576 6.05 68.6409 5.92667 68.8476 5.84C69.0542 5.74667 69.2809 5.7 69.5276 5.7C69.6742 5.7 69.8076 5.73667 69.9276 5.81C70.0542 5.87667 70.1176 5.97333 70.1176 6.1C70.1176 6.24 70.0809 6.34333 70.0076 6.41C69.9342 6.47667 69.8509 6.51 69.7576 6.51C69.6709 6.51 69.5876 6.49333 69.5076 6.46C69.4276 6.42 69.3276 6.4 69.2076 6.4C69.0409 6.4 68.8742 6.44667 68.7076 6.54C68.5476 6.62667 68.3976 6.75333 68.2576 6.92C68.1242 7.08667 68.0142 7.27667 67.9276 7.49C67.8476 7.69667 67.8076 7.92 67.8076 8.16V10.59C67.8076 10.7033 67.7676 10.8 67.6876 10.88C67.6142 10.96 67.5209 11 67.4076 11ZM73.1866 11.1C72.6533 11.1 72.1866 10.9867 71.7866 10.76C71.3866 10.5333 71.0733 10.2233 70.8466 9.83C70.6266 9.43 70.5166 8.97 70.5166 8.45C70.5166 7.87 70.63 7.37667 70.8566 6.97C71.09 6.55667 71.39 6.24333 71.7566 6.03C72.13 5.81 72.5233 5.7 72.9366 5.7C73.2433 5.7 73.54 5.75667 73.8266 5.87C74.1133 5.98333 74.3666 6.15 74.5866 6.37C74.8066 6.58333 74.9833 6.84333 75.1166 7.15C75.25 7.45 75.32 7.78667 75.3266 8.16C75.3266 8.26667 75.2866 8.35667 75.2066 8.43C75.1266 8.50333 75.0333 8.54 74.9266 8.54H70.9766L70.7966 7.85H74.6466L74.4866 7.99V7.77C74.46 7.49667 74.3666 7.26333 74.2066 7.07C74.0533 6.87 73.8633 6.71667 73.6366 6.61C73.4166 6.50333 73.1833 6.45 72.9366 6.45C72.7366 6.45 72.5366 6.48667 72.3366 6.56C72.1433 6.62667 71.9666 6.74 71.8066 6.9C71.6533 7.05333 71.5266 7.25333 71.4266 7.5C71.3333 7.74667 71.2866 8.04333 71.2866 8.39C71.2866 8.77667 71.3633 9.11667 71.5166 9.41C71.6766 9.70333 71.8966 9.93667 72.1766 10.11C72.4566 10.2767 72.7833 10.36 73.1566 10.36C73.39 10.36 73.5933 10.33 73.7666 10.27C73.94 10.21 74.09 10.1367 74.2166 10.05C74.3433 9.95667 74.45 9.86333 74.5366 9.77C74.6233 9.71 74.7066 9.68 74.7866 9.68C74.8866 9.68 74.9666 9.71333 75.0266 9.78C75.0933 9.84667 75.1266 9.92667 75.1266 10.02C75.1266 10.1333 75.0733 10.2333 74.9666 10.32C74.78 10.5267 74.5266 10.71 74.2066 10.87C73.8866 11.0233 73.5466 11.1 73.1866 11.1Z" fill="black"/>
</svg>
