<svg width="112" height="14" viewBox="0 0 112 14" fill="none" xmlns="http://www.w3.org/2000/svg">
<rect width="112" height="14" rx="7" fill="#C9A4FF"/>
<path d="M14.4477 4C14.561 4 14.651 4.03667 14.7177 4.11C14.7844 4.17667 14.8177 4.26333 14.8177 4.37V10.58C14.8177 10.7067 14.7777 10.81 14.6977 10.89C14.6177 10.9633 14.521 11 14.4077 11C14.3477 11 14.2877 10.99 14.2277 10.97C14.1677 10.9433 14.121 10.91 14.0877 10.87L9.8077 5.21L10.0077 5.09V10.63C10.0077 10.7367 9.97103 10.8267 9.8977 10.9C9.83103 10.9667 9.74103 11 9.6277 11C9.52103 11 9.43436 10.9667 9.3677 10.9C9.30103 10.8267 9.2677 10.7367 9.2677 10.63V4.4C9.2677 4.28 9.30436 4.18333 9.3777 4.11C9.4577 4.03667 9.55103 4 9.6577 4C9.7177 4 9.7777 4.01333 9.8377 4.04C9.90436 4.06 9.95436 4.09333 9.9877 4.14L14.2077 9.72L14.0777 9.88V4.37C14.0777 4.26333 14.111 4.17667 14.1777 4.11C14.251 4.03667 14.341 4 14.4477 4ZM20.3024 5.83C20.4224 5.83 20.519 5.87 20.5924 5.95C20.6657 6.02333 20.7024 6.11667 20.7024 6.23V8.96C20.7024 9.63333 20.5124 10.1567 20.1324 10.53C19.759 10.8967 19.2357 11.08 18.5624 11.08C17.8957 11.08 17.3724 10.8967 16.9924 10.53C16.619 10.1567 16.4324 9.63333 16.4324 8.96V6.23C16.4324 6.11667 16.469 6.02333 16.5424 5.95C16.6224 5.87 16.719 5.83 16.8324 5.83C16.9524 5.83 17.049 5.87 17.1224 5.95C17.1957 6.02333 17.2324 6.11667 17.2324 6.23V8.96C17.2324 9.41333 17.349 9.75667 17.5824 9.99C17.8157 10.2233 18.1424 10.34 18.5624 10.34C18.9957 10.34 19.3257 10.2233 19.5524 9.99C19.7857 9.75667 19.9024 9.41333 19.9024 8.96V6.23C19.9024 6.11667 19.939 6.02333 20.0124 5.95C20.0924 5.87 20.189 5.83 20.3024 5.83ZM21.9843 5.86H24.3343C24.441 5.86 24.5277 5.89667 24.5943 5.97C24.6677 6.04333 24.7043 6.13 24.7043 6.23C24.7043 6.33667 24.6677 6.42667 24.5943 6.5C24.5277 6.56667 24.441 6.6 24.3343 6.6H21.9843C21.8843 6.6 21.7977 6.56333 21.7243 6.49C21.651 6.41667 21.6143 6.32667 21.6143 6.22C21.6143 6.12 21.651 6.03667 21.7243 5.97C21.7977 5.89667 21.8843 5.86 21.9843 5.86ZM23.0343 4.5C23.1477 4.5 23.241 4.54 23.3143 4.62C23.3877 4.69333 23.4243 4.78667 23.4243 4.9V9.73C23.4243 9.89 23.4477 10.01 23.4943 10.09C23.541 10.17 23.601 10.2267 23.6743 10.26C23.7543 10.2867 23.831 10.3 23.9043 10.3C23.971 10.3 24.0277 10.29 24.0743 10.27C24.1277 10.2433 24.1877 10.23 24.2543 10.23C24.321 10.23 24.381 10.2633 24.4343 10.33C24.4943 10.39 24.5243 10.47 24.5243 10.57C24.5243 10.69 24.4543 10.7933 24.3143 10.88C24.1743 10.96 24.0177 11 23.8443 11C23.751 11 23.6343 10.9933 23.4943 10.98C23.361 10.9667 23.2277 10.9233 23.0943 10.85C22.961 10.7767 22.8477 10.6567 22.7543 10.49C22.6677 10.3167 22.6243 10.0767 22.6243 9.77V4.9C22.6243 4.78667 22.6643 4.69333 22.7443 4.62C22.8243 4.54 22.921 4.5 23.0343 4.5ZM26.2171 11C26.1038 11 26.0071 10.96 25.9271 10.88C25.8538 10.8 25.8171 10.7033 25.8171 10.59V6.23C25.8171 6.11667 25.8538 6.02333 25.9271 5.95C26.0071 5.87 26.1038 5.83 26.2171 5.83C26.3371 5.83 26.4338 5.87 26.5071 5.95C26.5805 6.02333 26.6171 6.11667 26.6171 6.23V7.55L26.4971 7.34C26.5371 7.13333 26.6071 6.93333 26.7071 6.74C26.8138 6.54 26.9471 6.36333 27.1071 6.21C27.2671 6.05 27.4505 5.92667 27.6571 5.84C27.8638 5.74667 28.0905 5.7 28.3371 5.7C28.4838 5.7 28.6171 5.73667 28.7371 5.81C28.8638 5.87667 28.9271 5.97333 28.9271 6.1C28.9271 6.24 28.8905 6.34333 28.8171 6.41C28.7438 6.47667 28.6605 6.51 28.5671 6.51C28.4805 6.51 28.3971 6.49333 28.3171 6.46C28.2371 6.42 28.1371 6.4 28.0171 6.4C27.8505 6.4 27.6838 6.44667 27.5171 6.54C27.3571 6.62667 27.2071 6.75333 27.0671 6.92C26.9338 7.08667 26.8238 7.27667 26.7371 7.49C26.6571 7.69667 26.6171 7.92 26.6171 8.16V10.59C26.6171 10.7033 26.5771 10.8 26.4971 10.88C26.4238 10.96 26.3305 11 26.2171 11ZM30.6008 10.59C30.6008 10.7033 30.5608 10.8 30.4808 10.88C30.4075 10.96 30.3142 11 30.2008 11C30.0808 11 29.9842 10.96 29.9108 10.88C29.8375 10.8 29.8008 10.7033 29.8008 10.59V6.15C29.8008 6.03667 29.8375 5.94333 29.9108 5.87C29.9908 5.79 30.0875 5.75 30.2008 5.75C30.3142 5.75 30.4075 5.79 30.4808 5.87C30.5608 5.94333 30.6008 6.03667 30.6008 6.15V10.59ZM30.2008 5.08C30.0342 5.08 29.9108 5.04667 29.8308 4.98C29.7508 4.91333 29.7108 4.81 29.7108 4.67V4.53C29.7108 4.39 29.7542 4.28667 29.8408 4.22C29.9275 4.15333 30.0508 4.12 30.2108 4.12C30.3708 4.12 30.4908 4.15333 30.5708 4.22C30.6508 4.28667 30.6908 4.39 30.6908 4.53V4.67C30.6908 4.81 30.6475 4.91333 30.5608 4.98C30.4808 5.04667 30.3608 5.08 30.2008 5.08ZM31.8379 5.86H34.1879C34.2945 5.86 34.3812 5.89667 34.4479 5.97C34.5212 6.04333 34.5579 6.13 34.5579 6.23C34.5579 6.33667 34.5212 6.42667 34.4479 6.5C34.3812 6.56667 34.2945 6.6 34.1879 6.6H31.8379C31.7379 6.6 31.6512 6.56333 31.5779 6.49C31.5045 6.41667 31.4679 6.32667 31.4679 6.22C31.4679 6.12 31.5045 6.03667 31.5779 5.97C31.6512 5.89667 31.7379 5.86 31.8379 5.86ZM32.8879 4.5C33.0012 4.5 33.0945 4.54 33.1679 4.62C33.2412 4.69333 33.2779 4.78667 33.2779 4.9V9.73C33.2779 9.89 33.3012 10.01 33.3479 10.09C33.3945 10.17 33.4545 10.2267 33.5279 10.26C33.6079 10.2867 33.6845 10.3 33.7579 10.3C33.8245 10.3 33.8812 10.29 33.9279 10.27C33.9812 10.2433 34.0412 10.23 34.1079 10.23C34.1745 10.23 34.2345 10.2633 34.2879 10.33C34.3479 10.39 34.3779 10.47 34.3779 10.57C34.3779 10.69 34.3079 10.7933 34.1679 10.88C34.0279 10.96 33.8712 11 33.6979 11C33.6045 11 33.4879 10.9933 33.3479 10.98C33.2145 10.9667 33.0812 10.9233 32.9479 10.85C32.8145 10.7767 32.7012 10.6567 32.6079 10.49C32.5212 10.3167 32.4779 10.0767 32.4779 9.77V4.9C32.4779 4.78667 32.5179 4.69333 32.5979 4.62C32.6779 4.54 32.7745 4.5 32.8879 4.5ZM36.4407 10.59C36.4407 10.7033 36.4007 10.8 36.3207 10.88C36.2473 10.96 36.154 11 36.0407 11C35.9207 11 35.824 10.96 35.7507 10.88C35.6773 10.8 35.6407 10.7033 35.6407 10.59V6.15C35.6407 6.03667 35.6773 5.94333 35.7507 5.87C35.8307 5.79 35.9273 5.75 36.0407 5.75C36.154 5.75 36.2473 5.79 36.3207 5.87C36.4007 5.94333 36.4407 6.03667 36.4407 6.15V10.59ZM36.0407 5.08C35.874 5.08 35.7507 5.04667 35.6707 4.98C35.5907 4.91333 35.5507 4.81 35.5507 4.67V4.53C35.5507 4.39 35.594 4.28667 35.6807 4.22C35.7673 4.15333 35.8907 4.12 36.0507 4.12C36.2107 4.12 36.3307 4.15333 36.4107 4.22C36.4907 4.28667 36.5307 4.39 36.5307 4.53V4.67C36.5307 4.81 36.4873 4.91333 36.4007 4.98C36.3207 5.04667 36.2007 5.08 36.0407 5.08ZM42.7877 8.4C42.7877 8.92 42.671 9.38333 42.4377 9.79C42.211 10.1967 41.901 10.5167 41.5077 10.75C41.121 10.9833 40.6844 11.1 40.1977 11.1C39.711 11.1 39.271 10.9833 38.8777 10.75C38.4844 10.5167 38.171 10.1967 37.9377 9.79C37.711 9.38333 37.5977 8.92 37.5977 8.4C37.5977 7.88 37.711 7.41667 37.9377 7.01C38.171 6.60333 38.4844 6.28333 38.8777 6.05C39.271 5.81667 39.711 5.7 40.1977 5.7C40.6844 5.7 41.121 5.81667 41.5077 6.05C41.901 6.28333 42.211 6.60333 42.4377 7.01C42.671 7.41667 42.7877 7.88 42.7877 8.4ZM41.9877 8.4C41.9877 8.01333 41.9077 7.67333 41.7477 7.38C41.5944 7.08667 41.381 6.85667 41.1077 6.69C40.841 6.52333 40.5377 6.44 40.1977 6.44C39.8577 6.44 39.551 6.52333 39.2777 6.69C39.011 6.85667 38.7977 7.08667 38.6377 7.38C38.4777 7.67333 38.3977 8.01333 38.3977 8.4C38.3977 8.78 38.4777 9.11667 38.6377 9.41C38.7977 9.70333 39.011 9.93667 39.2777 10.11C39.551 10.2767 39.8577 10.36 40.1977 10.36C40.5377 10.36 40.841 10.2767 41.1077 10.11C41.381 9.93667 41.5944 9.70333 41.7477 9.41C41.9077 9.11667 41.9877 8.78 41.9877 8.4ZM46.561 5.7C47.0143 5.7 47.371 5.79333 47.631 5.98C47.891 6.16667 48.0743 6.41667 48.181 6.73C48.2943 7.04333 48.351 7.39333 48.351 7.78V10.59C48.351 10.7033 48.311 10.8 48.231 10.88C48.1576 10.96 48.0643 11 47.951 11C47.8376 11 47.741 10.96 47.661 10.88C47.5876 10.8 47.551 10.7033 47.551 10.59V7.8C47.551 7.54667 47.511 7.32 47.431 7.12C47.3576 6.91333 47.231 6.75 47.051 6.63C46.8776 6.50333 46.6376 6.44 46.331 6.44C46.051 6.44 45.7943 6.50333 45.561 6.63C45.3276 6.75 45.141 6.91333 45.001 7.12C44.861 7.32 44.791 7.54667 44.791 7.8V10.59C44.791 10.7033 44.751 10.8 44.671 10.88C44.5976 10.96 44.5043 11 44.391 11C44.2776 11 44.181 10.96 44.101 10.88C44.0276 10.8 43.991 10.7033 43.991 10.59V6.23C43.991 6.11667 44.0276 6.02333 44.101 5.95C44.181 5.87 44.2776 5.83 44.391 5.83C44.511 5.83 44.6076 5.87 44.681 5.95C44.7543 6.02333 44.791 6.11667 44.791 6.23V6.94L44.591 7.16C44.6243 6.98667 44.701 6.81333 44.821 6.64C44.941 6.46 45.091 6.3 45.271 6.16C45.451 6.02 45.651 5.91 45.871 5.83C46.091 5.74333 46.321 5.7 46.561 5.7ZM56.8447 5.78C56.9581 5.78 57.0514 5.82 57.1247 5.9C57.2047 5.97333 57.2447 6.06667 57.2447 6.18V10.59C57.2447 10.7033 57.2047 10.8 57.1247 10.88C57.0514 10.96 56.9581 11 56.8447 11C56.7247 11 56.6281 10.96 56.5547 10.88C56.4814 10.8 56.4447 10.7033 56.4447 10.59V9.64L56.6347 9.62C56.6347 9.76667 56.5847 9.92667 56.4847 10.1C56.3847 10.2733 56.2481 10.4367 56.0747 10.59C55.9014 10.7367 55.6947 10.86 55.4547 10.96C55.2214 11.0533 54.9681 11.1 54.6947 11.1C54.2414 11.1 53.8347 10.9833 53.4747 10.75C53.1147 10.51 52.8281 10.1867 52.6147 9.78C52.4081 9.37333 52.3047 8.91 52.3047 8.39C52.3047 7.86333 52.4081 7.4 52.6147 7C52.8281 6.59333 53.1147 6.27667 53.4747 6.05C53.8347 5.81667 54.2347 5.7 54.6747 5.7C54.9614 5.7 55.2281 5.74667 55.4747 5.84C55.7214 5.93333 55.9347 6.06 56.1147 6.22C56.3014 6.38 56.4447 6.55667 56.5447 6.75C56.6514 6.94333 56.7047 7.13667 56.7047 7.33L56.4447 7.27V6.18C56.4447 6.06667 56.4814 5.97333 56.5547 5.9C56.6281 5.82 56.7247 5.78 56.8447 5.78ZM54.7847 10.36C55.1181 10.36 55.4114 10.2733 55.6647 10.1C55.9247 9.92667 56.1247 9.69333 56.2647 9.4C56.4114 9.1 56.4847 8.76333 56.4847 8.39C56.4847 8.02333 56.4114 7.69333 56.2647 7.4C56.1247 7.1 55.9247 6.86667 55.6647 6.7C55.4114 6.52667 55.1181 6.44 54.7847 6.44C54.4581 6.44 54.1647 6.52333 53.9047 6.69C53.6514 6.85667 53.4514 7.08667 53.3047 7.38C53.1581 7.67333 53.0847 8.01 53.0847 8.39C53.0847 8.76333 53.1547 9.1 53.2947 9.4C53.4414 9.69333 53.6414 9.92667 53.8947 10.1C54.1547 10.2733 54.4514 10.36 54.7847 10.36ZM61.2973 5.7C61.7506 5.7 62.1073 5.79333 62.3673 5.98C62.6273 6.16667 62.8106 6.41667 62.9173 6.73C63.0306 7.04333 63.0873 7.39333 63.0873 7.78V10.59C63.0873 10.7033 63.0473 10.8 62.9673 10.88C62.894 10.96 62.8006 11 62.6873 11C62.574 11 62.4773 10.96 62.3973 10.88C62.324 10.8 62.2873 10.7033 62.2873 10.59V7.8C62.2873 7.54667 62.2473 7.32 62.1673 7.12C62.094 6.91333 61.9673 6.75 61.7873 6.63C61.614 6.50333 61.374 6.44 61.0673 6.44C60.7873 6.44 60.5306 6.50333 60.2973 6.63C60.064 6.75 59.8773 6.91333 59.7373 7.12C59.5973 7.32 59.5273 7.54667 59.5273 7.8V10.59C59.5273 10.7033 59.4873 10.8 59.4073 10.88C59.334 10.96 59.2406 11 59.1273 11C59.014 11 58.9173 10.96 58.8373 10.88C58.764 10.8 58.7273 10.7033 58.7273 10.59V6.23C58.7273 6.11667 58.764 6.02333 58.8373 5.95C58.9173 5.87 59.014 5.83 59.1273 5.83C59.2473 5.83 59.344 5.87 59.4173 5.95C59.4906 6.02333 59.5273 6.11667 59.5273 6.23V6.94L59.3273 7.16C59.3606 6.98667 59.4373 6.81333 59.5573 6.64C59.6773 6.46 59.8273 6.3 60.0073 6.16C60.1873 6.02 60.3873 5.91 60.6073 5.83C60.8273 5.74333 61.0573 5.7 61.2973 5.7ZM68.8271 3.6C68.9405 3.6 69.0338 3.64 69.1071 3.72C69.1871 3.79333 69.2271 3.88667 69.2271 4V10.59C69.2271 10.7033 69.1871 10.8 69.1071 10.88C69.0338 10.96 68.9405 11 68.8271 11C68.7071 11 68.6105 10.96 68.5371 10.88C68.4638 10.8 68.4271 10.7033 68.4271 10.59V9.64L68.6171 9.57C68.6171 9.73 68.5671 9.9 68.4671 10.08C68.3671 10.2533 68.2305 10.4167 68.0571 10.57C67.8838 10.7233 67.6771 10.85 67.4371 10.95C67.2038 11.05 66.9505 11.1 66.6771 11.1C66.2305 11.1 65.8238 10.9833 65.4571 10.75C65.0971 10.5167 64.8105 10.1967 64.5971 9.79C64.3905 9.38333 64.2871 8.92 64.2871 8.4C64.2871 7.87333 64.3905 7.40667 64.5971 7C64.8105 6.59333 65.0971 6.27667 65.4571 6.05C65.8171 5.81667 66.2171 5.7 66.6571 5.7C66.9371 5.7 67.2005 5.74667 67.4471 5.84C67.6938 5.93333 67.9071 6.06 68.0871 6.22C68.2738 6.38 68.4205 6.55667 68.5271 6.75C68.6338 6.94333 68.6871 7.13667 68.6871 7.33L68.4271 7.27V4C68.4271 3.88667 68.4638 3.79333 68.5371 3.72C68.6105 3.64 68.7071 3.6 68.8271 3.6ZM66.7671 10.36C67.1005 10.36 67.3938 10.2767 67.6471 10.11C67.9071 9.93667 68.1071 9.70333 68.2471 9.41C68.3938 9.11 68.4671 8.77333 68.4671 8.4C68.4671 8.02 68.3938 7.68333 68.2471 7.39C68.1071 7.09667 67.9071 6.86667 67.6471 6.7C67.3938 6.52667 67.1005 6.44 66.7671 6.44C66.4405 6.44 66.1471 6.52667 65.8871 6.7C65.6338 6.86667 65.4338 7.09667 65.2871 7.39C65.1405 7.68333 65.0671 8.02 65.0671 8.4C65.0671 8.76667 65.1405 9.1 65.2871 9.4C65.4338 9.69333 65.6338 9.92667 65.8871 10.1C66.1471 10.2733 66.4405 10.36 66.7671 10.36ZM74.0236 4C74.137 4 74.2336 4.04 74.3136 4.12C74.3936 4.19333 74.4336 4.29 74.4336 4.41V10.59C74.4336 10.7033 74.3903 10.8 74.3036 10.88C74.2236 10.96 74.127 11 74.0136 11C73.887 11 73.787 10.96 73.7136 10.88C73.6403 10.8 73.6036 10.7033 73.6036 10.59V4.41C73.6036 4.29 73.6436 4.19333 73.7236 4.12C73.8036 4.04 73.9036 4 74.0236 4ZM78.6336 4C78.7536 4 78.8503 4.04 78.9236 4.12C79.0036 4.19333 79.0436 4.29 79.0436 4.41V10.59C79.0436 10.7033 79.0036 10.8 78.9236 10.88C78.8436 10.96 78.7436 11 78.6236 11C78.5103 11 78.4136 10.96 78.3336 10.88C78.2536 10.8 78.2136 10.7033 78.2136 10.59V4.41C78.2136 4.29 78.2536 4.19333 78.3336 4.12C78.4203 4.04 78.5203 4 78.6336 4ZM73.9836 7.05H78.6436L78.6336 7.83H73.9536L73.9836 7.05ZM83.0509 11.1C82.5176 11.1 82.0509 10.9867 81.6509 10.76C81.2509 10.5333 80.9376 10.2233 80.7109 9.83C80.4909 9.43 80.3809 8.97 80.3809 8.45C80.3809 7.87 80.4942 7.37667 80.7209 6.97C80.9542 6.55667 81.2542 6.24333 81.6209 6.03C81.9942 5.81 82.3876 5.7 82.8009 5.7C83.1076 5.7 83.4042 5.75667 83.6909 5.87C83.9776 5.98333 84.2309 6.15 84.4509 6.37C84.6709 6.58333 84.8476 6.84333 84.9809 7.15C85.1142 7.45 85.1842 7.78667 85.1909 8.16C85.1909 8.26667 85.1509 8.35667 85.0709 8.43C84.9909 8.50333 84.8976 8.54 84.7909 8.54H80.8409L80.6609 7.85H84.5109L84.3509 7.99V7.77C84.3242 7.49667 84.2309 7.26333 84.0709 7.07C83.9176 6.87 83.7276 6.71667 83.5009 6.61C83.2809 6.50333 83.0476 6.45 82.8009 6.45C82.6009 6.45 82.4009 6.48667 82.2009 6.56C82.0076 6.62667 81.8309 6.74 81.6709 6.9C81.5176 7.05333 81.3909 7.25333 81.2909 7.5C81.1976 7.74667 81.1509 8.04333 81.1509 8.39C81.1509 8.77667 81.2276 9.11667 81.3809 9.41C81.5409 9.70333 81.7609 9.93667 82.0409 10.11C82.3209 10.2767 82.6476 10.36 83.0209 10.36C83.2542 10.36 83.4576 10.33 83.6309 10.27C83.8042 10.21 83.9542 10.1367 84.0809 10.05C84.2076 9.95667 84.3142 9.86333 84.4009 9.77C84.4876 9.71 84.5709 9.68 84.6509 9.68C84.7509 9.68 84.8309 9.71333 84.8909 9.78C84.9576 9.84667 84.9909 9.92667 84.9909 10.02C84.9909 10.1333 84.9376 10.2333 84.8309 10.32C84.6442 10.5267 84.3909 10.71 84.0709 10.87C83.7509 11.0233 83.4109 11.1 83.0509 11.1ZM90.6924 5.78C90.8057 5.78 90.899 5.82 90.9724 5.9C91.0524 5.97333 91.0924 6.06667 91.0924 6.18V10.59C91.0924 10.7033 91.0524 10.8 90.9724 10.88C90.899 10.96 90.8057 11 90.6924 11C90.5724 11 90.4757 10.96 90.4024 10.88C90.329 10.8 90.2924 10.7033 90.2924 10.59V9.64L90.4824 9.62C90.4824 9.76667 90.4324 9.92667 90.3324 10.1C90.2324 10.2733 90.0957 10.4367 89.9224 10.59C89.749 10.7367 89.5424 10.86 89.3024 10.96C89.069 11.0533 88.8157 11.1 88.5424 11.1C88.089 11.1 87.6824 10.9833 87.3224 10.75C86.9624 10.51 86.6757 10.1867 86.4624 9.78C86.2557 9.37333 86.1524 8.91 86.1524 8.39C86.1524 7.86333 86.2557 7.4 86.4624 7C86.6757 6.59333 86.9624 6.27667 87.3224 6.05C87.6824 5.81667 88.0824 5.7 88.5224 5.7C88.809 5.7 89.0757 5.74667 89.3224 5.84C89.569 5.93333 89.7824 6.06 89.9624 6.22C90.149 6.38 90.2924 6.55667 90.3924 6.75C90.499 6.94333 90.5524 7.13667 90.5524 7.33L90.2924 7.27V6.18C90.2924 6.06667 90.329 5.97333 90.4024 5.9C90.4757 5.82 90.5724 5.78 90.6924 5.78ZM88.6324 10.36C88.9657 10.36 89.259 10.2733 89.5124 10.1C89.7724 9.92667 89.9724 9.69333 90.1124 9.4C90.259 9.1 90.3324 8.76333 90.3324 8.39C90.3324 8.02333 90.259 7.69333 90.1124 7.4C89.9724 7.1 89.7724 6.86667 89.5124 6.7C89.259 6.52667 88.9657 6.44 88.6324 6.44C88.3057 6.44 88.0124 6.52333 87.7524 6.69C87.499 6.85667 87.299 7.08667 87.1524 7.38C87.0057 7.67333 86.9324 8.01 86.9324 8.39C86.9324 8.76333 87.0024 9.1 87.1424 9.4C87.289 9.69333 87.489 9.92667 87.7424 10.1C88.0024 10.2733 88.299 10.36 88.6324 10.36ZM93.455 10.59C93.455 10.7033 93.415 10.8 93.335 10.88C93.255 10.96 93.1583 11 93.045 11C92.9316 11 92.8383 10.96 92.765 10.88C92.6916 10.8 92.655 10.7033 92.655 10.59V4C92.655 3.88667 92.6916 3.79333 92.765 3.72C92.845 3.64 92.9416 3.6 93.055 3.6C93.175 3.6 93.2716 3.64 93.345 3.72C93.4183 3.79333 93.455 3.88667 93.455 4V10.59ZM94.7773 5.86H97.1273C97.234 5.86 97.3206 5.89667 97.3873 5.97C97.4606 6.04333 97.4973 6.13 97.4973 6.23C97.4973 6.33667 97.4606 6.42667 97.3873 6.5C97.3206 6.56667 97.234 6.6 97.1273 6.6H94.7773C94.6773 6.6 94.5906 6.56333 94.5173 6.49C94.444 6.41667 94.4073 6.32667 94.4073 6.22C94.4073 6.12 94.444 6.03667 94.5173 5.97C94.5906 5.89667 94.6773 5.86 94.7773 5.86ZM95.8273 4.5C95.9406 4.5 96.034 4.54 96.1073 4.62C96.1806 4.69333 96.2173 4.78667 96.2173 4.9V9.73C96.2173 9.89 96.2406 10.01 96.2873 10.09C96.334 10.17 96.394 10.2267 96.4673 10.26C96.5473 10.2867 96.624 10.3 96.6973 10.3C96.764 10.3 96.8206 10.29 96.8673 10.27C96.9206 10.2433 96.9806 10.23 97.0473 10.23C97.114 10.23 97.174 10.2633 97.2273 10.33C97.2873 10.39 97.3173 10.47 97.3173 10.57C97.3173 10.69 97.2473 10.7933 97.1073 10.88C96.9673 10.96 96.8106 11 96.6373 11C96.544 11 96.4273 10.9933 96.2873 10.98C96.154 10.9667 96.0206 10.9233 95.8873 10.85C95.754 10.7767 95.6406 10.6567 95.5473 10.49C95.4606 10.3167 95.4173 10.0767 95.4173 9.77V4.9C95.4173 4.78667 95.4573 4.69333 95.5373 4.62C95.6173 4.54 95.714 4.5 95.8273 4.5ZM101.11 5.75C101.55 5.75 101.897 5.84667 102.15 6.04C102.41 6.22667 102.593 6.48 102.7 6.8C102.813 7.11333 102.87 7.46333 102.87 7.85V10.59C102.87 10.7033 102.83 10.8 102.75 10.88C102.677 10.96 102.583 11 102.47 11C102.357 11 102.26 10.96 102.18 10.88C102.107 10.8 102.07 10.7033 102.07 10.59V7.85C102.07 7.59667 102.033 7.37 101.96 7.17C101.887 6.96333 101.763 6.8 101.59 6.68C101.423 6.55333 101.193 6.49 100.9 6.49C100.627 6.49 100.377 6.55333 100.15 6.68C99.9235 6.8 99.7435 6.96333 99.6101 7.17C99.4768 7.37 99.4101 7.59667 99.4101 7.85V10.59C99.4101 10.7033 99.3701 10.8 99.2901 10.88C99.2168 10.96 99.1235 11 99.0101 11C98.8968 11 98.8001 10.96 98.7201 10.88C98.6468 10.8 98.6101 10.7033 98.6101 10.59V4C98.6101 3.88667 98.6468 3.79333 98.7201 3.72C98.8001 3.64 98.8968 3.6 99.0101 3.6C99.1301 3.6 99.2268 3.64 99.3001 3.72C99.3735 3.79333 99.4101 3.88667 99.4101 4V6.99L99.2101 7.21C99.2435 7.03667 99.3168 6.86333 99.4301 6.69C99.5435 6.51 99.6868 6.35 99.8601 6.21C100.033 6.07 100.227 5.96 100.44 5.88C100.653 5.79333 100.877 5.75 101.11 5.75Z" fill="black"/>
</svg>
