<svg width="121" height="14" viewBox="0 0 121 14" fill="none" xmlns="http://www.w3.org/2000/svg">
<rect width="121" height="14" rx="7" fill="#30FF5A"/>
<path d="M11.2667 11.1C10.7733 11.1 10.34 11.0267 9.96668 10.88C9.59335 10.7333 9.23335 10.5 8.88668 10.18C8.84001 10.1333 8.80001 10.0833 8.76668 10.03C8.74001 9.97 8.72668 9.90667 8.72668 9.84C8.72668 9.73333 8.76335 9.64 8.83668 9.56C8.91668 9.47333 9.01335 9.43 9.12668 9.43C9.22001 9.43 9.30335 9.46667 9.37668 9.54C9.63668 9.79333 9.91668 9.98667 10.2167 10.12C10.5233 10.2533 10.8667 10.32 11.2467 10.32C11.54 10.32 11.8033 10.2733 12.0367 10.18C12.2767 10.0867 12.4667 9.95667 12.6067 9.79C12.7467 9.62333 12.8167 9.43 12.8167 9.21C12.81 8.94333 12.73 8.72333 12.5767 8.55C12.43 8.37667 12.2233 8.23333 11.9567 8.12C11.6967 8 11.3933 7.9 11.0467 7.82C10.74 7.74667 10.4567 7.65667 10.1967 7.55C9.94335 7.44333 9.72335 7.31333 9.53668 7.16C9.35001 7 9.20335 6.81 9.09668 6.59C8.99668 6.36333 8.94668 6.1 8.94668 5.8C8.94668 5.42 9.04668 5.08667 9.24668 4.8C9.44668 4.51333 9.72335 4.29333 10.0767 4.14C10.43 3.98 10.8367 3.9 11.2967 3.9C11.7033 3.9 12.0867 3.96667 12.4467 4.1C12.8133 4.23333 13.1067 4.41667 13.3267 4.65C13.46 4.77667 13.5267 4.9 13.5267 5.02C13.5267 5.12 13.4833 5.21333 13.3967 5.3C13.3167 5.38 13.2233 5.42 13.1167 5.42C13.0433 5.42 12.9767 5.39333 12.9167 5.34C12.8033 5.21333 12.66 5.1 12.4867 5C12.3133 4.9 12.1233 4.82 11.9167 4.76C11.71 4.7 11.5033 4.67 11.2967 4.67C10.99 4.67 10.72 4.71667 10.4867 4.81C10.2533 4.89667 10.07 5.02333 9.93668 5.19C9.81001 5.35 9.74668 5.54333 9.74668 5.77C9.74668 6.02333 9.82001 6.23333 9.96668 6.4C10.1133 6.56 10.31 6.69333 10.5567 6.8C10.8033 6.9 11.0767 6.99 11.3767 7.07C11.7033 7.15 12.0033 7.24333 12.2767 7.35C12.5567 7.45 12.7967 7.57667 12.9967 7.73C13.1967 7.88333 13.35 8.08 13.4567 8.32C13.57 8.55333 13.6267 8.84333 13.6267 9.19C13.6267 9.55667 13.5233 9.88333 13.3167 10.17C13.11 10.4567 12.8267 10.6833 12.4667 10.85C12.1133 11.01 11.7133 11.0933 11.2667 11.1ZM19.0889 5.78C19.2022 5.78 19.2955 5.82 19.3689 5.9C19.4489 5.97333 19.4889 6.06667 19.4889 6.18V10.59C19.4889 10.7033 19.4489 10.8 19.3689 10.88C19.2955 10.96 19.2022 11 19.0889 11C18.9689 11 18.8722 10.96 18.7989 10.88C18.7255 10.8 18.6889 10.7033 18.6889 10.59V9.64L18.8789 9.62C18.8789 9.76667 18.8289 9.92667 18.7289 10.1C18.6289 10.2733 18.4922 10.4367 18.3189 10.59C18.1455 10.7367 17.9389 10.86 17.6989 10.96C17.4655 11.0533 17.2122 11.1 16.9389 11.1C16.4855 11.1 16.0789 10.9833 15.7189 10.75C15.3589 10.51 15.0722 10.1867 14.8589 9.78C14.6522 9.37333 14.5489 8.91 14.5489 8.39C14.5489 7.86333 14.6522 7.4 14.8589 7C15.0722 6.59333 15.3589 6.27667 15.7189 6.05C16.0789 5.81667 16.4789 5.7 16.9189 5.7C17.2055 5.7 17.4722 5.74667 17.7189 5.84C17.9655 5.93333 18.1789 6.06 18.3589 6.22C18.5455 6.38 18.6889 6.55667 18.7889 6.75C18.8955 6.94333 18.9489 7.13667 18.9489 7.33L18.6889 7.27V6.18C18.6889 6.06667 18.7255 5.97333 18.7989 5.9C18.8722 5.82 18.9689 5.78 19.0889 5.78ZM17.0289 10.36C17.3622 10.36 17.6555 10.2733 17.9089 10.1C18.1689 9.92667 18.3689 9.69333 18.5089 9.4C18.6555 9.1 18.7289 8.76333 18.7289 8.39C18.7289 8.02333 18.6555 7.69333 18.5089 7.4C18.3689 7.1 18.1689 6.86667 17.9089 6.7C17.6555 6.52667 17.3622 6.44 17.0289 6.44C16.7022 6.44 16.4089 6.52333 16.1489 6.69C15.8955 6.85667 15.6955 7.08667 15.5489 7.38C15.4022 7.67333 15.3289 8.01 15.3289 8.39C15.3289 8.76333 15.3989 9.1 15.5389 9.4C15.6855 9.69333 15.8855 9.92667 16.1389 10.1C16.3989 10.2733 16.6955 10.36 17.0289 10.36ZM23.1314 3.62C23.2448 3.62 23.3614 3.63333 23.4814 3.66C23.6081 3.68667 23.7148 3.73333 23.8014 3.8C23.8948 3.86667 23.9414 3.95667 23.9414 4.07C23.9414 4.17667 23.9081 4.26667 23.8414 4.34C23.7748 4.40667 23.6948 4.44 23.6014 4.44C23.5414 4.44 23.4581 4.42333 23.3514 4.39C23.2448 4.35 23.1348 4.33 23.0214 4.33C22.8681 4.33 22.7414 4.36333 22.6414 4.43C22.5481 4.49667 22.4781 4.58667 22.4314 4.7C22.3914 4.80667 22.3714 4.92667 22.3714 5.06V10.59C22.3714 10.7033 22.3314 10.8 22.2514 10.88C22.1781 10.96 22.0848 11 21.9714 11C21.8514 11 21.7548 10.96 21.6814 10.88C21.6081 10.8 21.5714 10.7033 21.5714 10.59V5.07C21.5714 4.62333 21.7081 4.27 21.9814 4.01C22.2614 3.75 22.6448 3.62 23.1314 3.62ZM23.4114 5.91C23.5181 5.91 23.6081 5.94667 23.6814 6.02C23.7548 6.08667 23.7914 6.17333 23.7914 6.28C23.7914 6.38667 23.7548 6.47667 23.6814 6.55C23.6081 6.61667 23.5181 6.65 23.4114 6.65H20.9014C20.7948 6.65 20.7048 6.61333 20.6314 6.54C20.5581 6.46667 20.5214 6.38 20.5214 6.28C20.5214 6.16667 20.5581 6.07667 20.6314 6.01C20.7048 5.94333 20.7948 5.91 20.9014 5.91H23.4114ZM26.8673 11.1C26.334 11.1 25.8673 10.9867 25.4673 10.76C25.0673 10.5333 24.754 10.2233 24.5273 9.83C24.3073 9.43 24.1973 8.97 24.1973 8.45C24.1973 7.87 24.3106 7.37667 24.5373 6.97C24.7706 6.55667 25.0706 6.24333 25.4373 6.03C25.8106 5.81 26.204 5.7 26.6173 5.7C26.924 5.7 27.2206 5.75667 27.5073 5.87C27.794 5.98333 28.0473 6.15 28.2673 6.37C28.4873 6.58333 28.664 6.84333 28.7973 7.15C28.9306 7.45 29.0006 7.78667 29.0073 8.16C29.0073 8.26667 28.9673 8.35667 28.8873 8.43C28.8073 8.50333 28.714 8.54 28.6073 8.54H24.6573L24.4773 7.85H28.3273L28.1673 7.99V7.77C28.1406 7.49667 28.0473 7.26333 27.8873 7.07C27.734 6.87 27.544 6.71667 27.3173 6.61C27.0973 6.50333 26.864 6.45 26.6173 6.45C26.4173 6.45 26.2173 6.48667 26.0173 6.56C25.824 6.62667 25.6473 6.74 25.4873 6.9C25.334 7.05333 25.2073 7.25333 25.1073 7.5C25.014 7.74667 24.9673 8.04333 24.9673 8.39C24.9673 8.77667 25.044 9.11667 25.1973 9.41C25.3573 9.70333 25.5773 9.93667 25.8573 10.11C26.1373 10.2767 26.464 10.36 26.8373 10.36C27.0706 10.36 27.274 10.33 27.4473 10.27C27.6206 10.21 27.7706 10.1367 27.8973 10.05C28.024 9.95667 28.1306 9.86333 28.2173 9.77C28.304 9.71 28.3873 9.68 28.4673 9.68C28.5673 9.68 28.6473 9.71333 28.7073 9.78C28.774 9.84667 28.8073 9.92667 28.8073 10.02C28.8073 10.1333 28.754 10.2333 28.6473 10.32C28.4606 10.5267 28.2073 10.71 27.8873 10.87C27.5673 11.0233 27.2273 11.1 26.8673 11.1ZM30.0097 5.86H32.3597C32.4664 5.86 32.5531 5.89667 32.6197 5.97C32.6931 6.04333 32.7297 6.13 32.7297 6.23C32.7297 6.33667 32.6931 6.42667 32.6197 6.5C32.5531 6.56667 32.4664 6.6 32.3597 6.6H30.0097C29.9097 6.6 29.8231 6.56333 29.7497 6.49C29.6764 6.41667 29.6397 6.32667 29.6397 6.22C29.6397 6.12 29.6764 6.03667 29.7497 5.97C29.8231 5.89667 29.9097 5.86 30.0097 5.86ZM31.0597 4.5C31.1731 4.5 31.2664 4.54 31.3397 4.62C31.4131 4.69333 31.4497 4.78667 31.4497 4.9V9.73C31.4497 9.89 31.4731 10.01 31.5197 10.09C31.5664 10.17 31.6264 10.2267 31.6997 10.26C31.7797 10.2867 31.8564 10.3 31.9297 10.3C31.9964 10.3 32.0531 10.29 32.0997 10.27C32.1531 10.2433 32.2131 10.23 32.2797 10.23C32.3464 10.23 32.4064 10.2633 32.4597 10.33C32.5197 10.39 32.5497 10.47 32.5497 10.57C32.5497 10.69 32.4797 10.7933 32.3397 10.88C32.1997 10.96 32.0431 11 31.8697 11C31.7764 11 31.6597 10.9933 31.5197 10.98C31.3864 10.9667 31.2531 10.9233 31.1197 10.85C30.9864 10.7767 30.8731 10.6567 30.7797 10.49C30.6931 10.3167 30.6497 10.0767 30.6497 9.77V4.9C30.6497 4.78667 30.6897 4.69333 30.7697 4.62C30.8497 4.54 30.9464 4.5 31.0597 4.5ZM37.7125 5.75C37.8259 5.75 37.9192 5.79 37.9925 5.87C38.0725 5.94333 38.1125 6.03667 38.1125 6.15V10.51C38.1125 11.07 38.0025 11.5333 37.7825 11.9C37.5625 12.2733 37.2659 12.55 36.8925 12.73C36.5259 12.91 36.1092 13 35.6425 13C35.3825 13 35.1325 12.9733 34.8925 12.92C34.6525 12.8667 34.4559 12.7967 34.3025 12.71C34.1759 12.65 34.0859 12.5733 34.0325 12.48C33.9859 12.3933 33.9792 12.3 34.0125 12.2C34.0592 12.08 34.1259 11.9967 34.2125 11.95C34.3059 11.9033 34.4025 11.9033 34.5025 11.95C34.6092 11.9967 34.7625 12.06 34.9625 12.14C35.1692 12.2267 35.3992 12.27 35.6525 12.27C35.9992 12.27 36.2959 12.2033 36.5425 12.07C36.7892 11.9367 36.9792 11.74 37.1125 11.48C37.2459 11.2267 37.3125 10.91 37.3125 10.53V9.82L37.4325 10.07C37.3259 10.2767 37.1825 10.4567 37.0025 10.61C36.8225 10.7633 36.6159 10.8833 36.3825 10.97C36.1492 11.0567 35.8925 11.1 35.6125 11.1C35.2325 11.1 34.9092 11.02 34.6425 10.86C34.3825 10.6933 34.1825 10.4667 34.0425 10.18C33.9092 9.88667 33.8425 9.55 33.8425 9.17V6.15C33.8425 6.03667 33.8792 5.94333 33.9525 5.87C34.0325 5.79 34.1292 5.75 34.2425 5.75C34.3625 5.75 34.4592 5.79 34.5325 5.87C34.6059 5.94333 34.6425 6.03667 34.6425 6.15V8.99C34.6425 9.44333 34.7425 9.78667 34.9425 10.02C35.1425 10.2467 35.4525 10.36 35.8725 10.36C36.1392 10.36 36.3792 10.3 36.5925 10.18C36.8125 10.06 36.9859 9.89667 37.1125 9.69C37.2459 9.47667 37.3125 9.24333 37.3125 8.99V6.15C37.3125 6.03667 37.3492 5.94333 37.4225 5.87C37.4959 5.79 37.5925 5.75 37.7125 5.75ZM46.6084 5.78C46.7217 5.78 46.8151 5.82 46.8884 5.9C46.9684 5.97333 47.0084 6.06667 47.0084 6.18V10.59C47.0084 10.7033 46.9684 10.8 46.8884 10.88C46.8151 10.96 46.7217 11 46.6084 11C46.4884 11 46.3917 10.96 46.3184 10.88C46.2451 10.8 46.2084 10.7033 46.2084 10.59V9.64L46.3984 9.62C46.3984 9.76667 46.3484 9.92667 46.2484 10.1C46.1484 10.2733 46.0117 10.4367 45.8384 10.59C45.6651 10.7367 45.4584 10.86 45.2184 10.96C44.9851 11.0533 44.7317 11.1 44.4584 11.1C44.0051 11.1 43.5984 10.9833 43.2384 10.75C42.8784 10.51 42.5917 10.1867 42.3784 9.78C42.1717 9.37333 42.0684 8.91 42.0684 8.39C42.0684 7.86333 42.1717 7.4 42.3784 7C42.5917 6.59333 42.8784 6.27667 43.2384 6.05C43.5984 5.81667 43.9984 5.7 44.4384 5.7C44.7251 5.7 44.9917 5.74667 45.2384 5.84C45.4851 5.93333 45.6984 6.06 45.8784 6.22C46.0651 6.38 46.2084 6.55667 46.3084 6.75C46.4151 6.94333 46.4684 7.13667 46.4684 7.33L46.2084 7.27V6.18C46.2084 6.06667 46.2451 5.97333 46.3184 5.9C46.3917 5.82 46.4884 5.78 46.6084 5.78ZM44.5484 10.36C44.8817 10.36 45.1751 10.2733 45.4284 10.1C45.6884 9.92667 45.8884 9.69333 46.0284 9.4C46.1751 9.1 46.2484 8.76333 46.2484 8.39C46.2484 8.02333 46.1751 7.69333 46.0284 7.4C45.8884 7.1 45.6884 6.86667 45.4284 6.7C45.1751 6.52667 44.8817 6.44 44.5484 6.44C44.2217 6.44 43.9284 6.52333 43.6684 6.69C43.4151 6.85667 43.2151 7.08667 43.0684 7.38C42.9217 7.67333 42.8484 8.01 42.8484 8.39C42.8484 8.76333 42.9184 9.1 43.0584 9.4C43.2051 9.69333 43.4051 9.92667 43.6584 10.1C43.9184 10.2733 44.2151 10.36 44.5484 10.36ZM51.061 5.7C51.5143 5.7 51.871 5.79333 52.131 5.98C52.391 6.16667 52.5743 6.41667 52.681 6.73C52.7943 7.04333 52.851 7.39333 52.851 7.78V10.59C52.851 10.7033 52.811 10.8 52.731 10.88C52.6576 10.96 52.5643 11 52.451 11C52.3376 11 52.241 10.96 52.161 10.88C52.0876 10.8 52.051 10.7033 52.051 10.59V7.8C52.051 7.54667 52.011 7.32 51.931 7.12C51.8576 6.91333 51.731 6.75 51.551 6.63C51.3776 6.50333 51.1376 6.44 50.831 6.44C50.551 6.44 50.2943 6.50333 50.061 6.63C49.8276 6.75 49.641 6.91333 49.501 7.12C49.361 7.32 49.291 7.54667 49.291 7.8V10.59C49.291 10.7033 49.251 10.8 49.171 10.88C49.0976 10.96 49.0043 11 48.891 11C48.7776 11 48.681 10.96 48.601 10.88C48.5276 10.8 48.491 10.7033 48.491 10.59V6.23C48.491 6.11667 48.5276 6.02333 48.601 5.95C48.681 5.87 48.7776 5.83 48.891 5.83C49.011 5.83 49.1076 5.87 49.181 5.95C49.2543 6.02333 49.291 6.11667 49.291 6.23V6.94L49.091 7.16C49.1243 6.98667 49.201 6.81333 49.321 6.64C49.441 6.46 49.591 6.3 49.771 6.16C49.951 6.02 50.151 5.91 50.371 5.83C50.591 5.74333 50.821 5.7 51.061 5.7ZM58.5908 3.6C58.7042 3.6 58.7975 3.64 58.8708 3.72C58.9508 3.79333 58.9908 3.88667 58.9908 4V10.59C58.9908 10.7033 58.9508 10.8 58.8708 10.88C58.7975 10.96 58.7042 11 58.5908 11C58.4708 11 58.3742 10.96 58.3008 10.88C58.2275 10.8 58.1908 10.7033 58.1908 10.59V9.64L58.3808 9.57C58.3808 9.73 58.3308 9.9 58.2308 10.08C58.1308 10.2533 57.9942 10.4167 57.8208 10.57C57.6475 10.7233 57.4408 10.85 57.2008 10.95C56.9675 11.05 56.7142 11.1 56.4408 11.1C55.9942 11.1 55.5875 10.9833 55.2208 10.75C54.8608 10.5167 54.5742 10.1967 54.3608 9.79C54.1542 9.38333 54.0508 8.92 54.0508 8.4C54.0508 7.87333 54.1542 7.40667 54.3608 7C54.5742 6.59333 54.8608 6.27667 55.2208 6.05C55.5808 5.81667 55.9808 5.7 56.4208 5.7C56.7008 5.7 56.9642 5.74667 57.2108 5.84C57.4575 5.93333 57.6708 6.06 57.8508 6.22C58.0375 6.38 58.1842 6.55667 58.2908 6.75C58.3975 6.94333 58.4508 7.13667 58.4508 7.33L58.1908 7.27V4C58.1908 3.88667 58.2275 3.79333 58.3008 3.72C58.3742 3.64 58.4708 3.6 58.5908 3.6ZM56.5308 10.36C56.8642 10.36 57.1575 10.2767 57.4108 10.11C57.6708 9.93667 57.8708 9.70333 58.0108 9.41C58.1575 9.11 58.2308 8.77333 58.2308 8.4C58.2308 8.02 58.1575 7.68333 58.0108 7.39C57.8708 7.09667 57.6708 6.86667 57.4108 6.7C57.1575 6.52667 56.8642 6.44 56.5308 6.44C56.2042 6.44 55.9108 6.52667 55.6508 6.7C55.3975 6.86667 55.1975 7.09667 55.0508 7.39C54.9042 7.68333 54.8308 8.02 54.8308 8.4C54.8308 8.76667 54.9042 9.1 55.0508 9.4C55.1975 9.69333 55.3975 9.92667 55.6508 10.1C55.9108 10.2733 56.2042 10.36 56.5308 10.36ZM71.3873 3.97C71.494 3.97 71.5906 4.00667 71.6773 4.08C71.7706 4.15333 71.8173 4.25667 71.8173 4.39C71.8173 4.43667 71.8106 4.48667 71.7973 4.54L69.6673 10.74C69.6406 10.82 69.5906 10.8833 69.5173 10.93C69.4506 10.97 69.3806 10.9933 69.3073 11C69.2273 11 69.1506 10.98 69.0773 10.94C69.004 10.8933 68.9473 10.8267 68.9073 10.74L67.2373 6.7L67.3173 6.73L65.6573 10.74C65.6173 10.8267 65.5606 10.8933 65.4873 10.94C65.414 10.98 65.3373 11 65.2573 11C65.184 10.9933 65.1106 10.97 65.0373 10.93C64.9706 10.8833 64.924 10.82 64.8973 10.74L62.7673 4.54C62.754 4.48667 62.7473 4.44 62.7473 4.4C62.7473 4.26667 62.794 4.16333 62.8873 4.09C62.9873 4.01 63.0873 3.97 63.1873 3.97C63.2673 3.97 63.344 3.99333 63.4173 4.04C63.4906 4.08667 63.5406 4.15 63.5673 4.23L65.4373 9.75H65.2973L66.9273 5.72C66.9606 5.64 67.0106 5.57667 67.0773 5.53C67.144 5.48333 67.2206 5.46 67.3073 5.46C67.3873 5.46 67.4606 5.48333 67.5273 5.53C67.6006 5.57667 67.6506 5.64 67.6773 5.72L69.2573 9.69L69.1373 9.74L70.9973 4.23C71.024 4.15 71.074 4.08667 71.1473 4.04C71.2206 3.99333 71.3006 3.97 71.3873 3.97ZM75.0607 11.1C74.5273 11.1 74.0607 10.9867 73.6607 10.76C73.2607 10.5333 72.9473 10.2233 72.7207 9.83C72.5007 9.43 72.3907 8.97 72.3907 8.45C72.3907 7.87 72.504 7.37667 72.7307 6.97C72.964 6.55667 73.264 6.24333 73.6307 6.03C74.004 5.81 74.3973 5.7 74.8107 5.7C75.1173 5.7 75.414 5.75667 75.7007 5.87C75.9873 5.98333 76.2407 6.15 76.4607 6.37C76.6807 6.58333 76.8573 6.84333 76.9907 7.15C77.124 7.45 77.194 7.78667 77.2007 8.16C77.2007 8.26667 77.1607 8.35667 77.0807 8.43C77.0007 8.50333 76.9073 8.54 76.8007 8.54H72.8507L72.6707 7.85H76.5207L76.3607 7.99V7.77C76.334 7.49667 76.2407 7.26333 76.0807 7.07C75.9273 6.87 75.7373 6.71667 75.5107 6.61C75.2907 6.50333 75.0573 6.45 74.8107 6.45C74.6107 6.45 74.4107 6.48667 74.2107 6.56C74.0173 6.62667 73.8407 6.74 73.6807 6.9C73.5273 7.05333 73.4007 7.25333 73.3007 7.5C73.2073 7.74667 73.1607 8.04333 73.1607 8.39C73.1607 8.77667 73.2373 9.11667 73.3907 9.41C73.5507 9.70333 73.7707 9.93667 74.0507 10.11C74.3307 10.2767 74.6573 10.36 75.0307 10.36C75.264 10.36 75.4673 10.33 75.6407 10.27C75.814 10.21 75.964 10.1367 76.0907 10.05C76.2173 9.95667 76.324 9.86333 76.4107 9.77C76.4973 9.71 76.5807 9.68 76.6607 9.68C76.7607 9.68 76.8407 9.71333 76.9007 9.78C76.9673 9.84667 77.0007 9.92667 77.0007 10.02C77.0007 10.1333 76.9473 10.2333 76.8407 10.32C76.654 10.5267 76.4007 10.71 76.0807 10.87C75.7607 11.0233 75.4207 11.1 75.0607 11.1ZM79.2831 10.59C79.2831 10.7033 79.2431 10.8 79.1631 10.88C79.0831 10.96 78.9864 11 78.8731 11C78.7598 11 78.6664 10.96 78.5931 10.88C78.5198 10.8 78.4831 10.7033 78.4831 10.59V4C78.4831 3.88667 78.5198 3.79333 78.5931 3.72C78.6731 3.64 78.7698 3.6 78.8831 3.6C79.0031 3.6 79.0998 3.64 79.1731 3.72C79.2464 3.79333 79.2831 3.88667 79.2831 4V10.59ZM81.7147 10.59C81.7147 10.7033 81.6747 10.8 81.5947 10.88C81.5147 10.96 81.4181 11 81.3047 11C81.1914 11 81.0981 10.96 81.0247 10.88C80.9514 10.8 80.9147 10.7033 80.9147 10.59V4C80.9147 3.88667 80.9514 3.79333 81.0247 3.72C81.1047 3.64 81.2014 3.6 81.3147 3.6C81.4347 3.6 81.5314 3.64 81.6047 3.72C81.6781 3.79333 81.7147 3.88667 81.7147 4V10.59ZM83.4764 8.29C83.363 8.29 83.2664 8.25333 83.1864 8.18C83.113 8.1 83.0764 8 83.0764 7.88C83.0764 7.76667 83.113 7.67333 83.1864 7.6C83.2664 7.52667 83.363 7.49 83.4764 7.49H85.4964C85.6097 7.49 85.703 7.53 85.7764 7.61C85.8564 7.69 85.8964 7.78667 85.8964 7.9C85.8964 8.01333 85.8564 8.10667 85.7764 8.18C85.703 8.25333 85.6097 8.29 85.4964 8.29H83.4764ZM89.7324 5.7C90.1857 5.7 90.5924 5.81667 90.9524 6.05C91.3124 6.27667 91.5957 6.59 91.8024 6.99C92.0157 7.39 92.1224 7.85333 92.1224 8.38C92.1224 8.90667 92.0157 9.37333 91.8024 9.78C91.5957 10.1867 91.3124 10.51 90.9524 10.75C90.599 10.9833 90.199 11.1 89.7524 11.1C89.5057 11.1 89.2724 11.0633 89.0524 10.99C88.839 10.91 88.6424 10.8067 88.4624 10.68C88.289 10.5467 88.1424 10.4033 88.0224 10.25C87.9024 10.09 87.8157 9.93333 87.7624 9.78L87.9824 9.64V10.64C87.9824 10.7533 87.9457 10.85 87.8724 10.93C87.799 11.01 87.7024 11.05 87.5824 11.05C87.469 11.05 87.3724 11.0133 87.2924 10.94C87.219 10.86 87.1824 10.76 87.1824 10.64V4.01C87.1824 3.89667 87.219 3.8 87.2924 3.72C87.3724 3.64 87.469 3.6 87.5824 3.6C87.7024 3.6 87.799 3.64 87.8724 3.72C87.9457 3.8 87.9824 3.89667 87.9824 4.01V7.09L87.8324 7.01C87.879 6.84333 87.959 6.68333 88.0724 6.53C88.1924 6.37 88.3357 6.23 88.5024 6.11C88.6757 5.98333 88.8657 5.88333 89.0724 5.81C89.2857 5.73667 89.5057 5.7 89.7324 5.7ZM89.6424 6.44C89.309 6.44 89.0124 6.52333 88.7524 6.69C88.499 6.85667 88.299 7.08667 88.1524 7.38C88.0124 7.67333 87.9424 8.00667 87.9424 8.38C87.9424 8.75333 88.0124 9.09 88.1524 9.39C88.299 9.69 88.499 9.92667 88.7524 10.1C89.0124 10.2733 89.309 10.36 89.6424 10.36C89.9757 10.36 90.269 10.2733 90.5224 10.1C90.7757 9.92667 90.9757 9.69 91.1224 9.39C91.269 9.09 91.3424 8.75333 91.3424 8.38C91.3424 8.00667 91.269 7.67333 91.1224 7.38C90.9757 7.08667 90.7757 6.85667 90.5224 6.69C90.269 6.52333 89.9757 6.44 89.6424 6.44ZM95.715 11.1C95.1816 11.1 94.715 10.9867 94.315 10.76C93.915 10.5333 93.6016 10.2233 93.375 9.83C93.155 9.43 93.045 8.97 93.045 8.45C93.045 7.87 93.1583 7.37667 93.385 6.97C93.6183 6.55667 93.9183 6.24333 94.285 6.03C94.6583 5.81 95.0516 5.7 95.465 5.7C95.7716 5.7 96.0683 5.75667 96.355 5.87C96.6416 5.98333 96.895 6.15 97.115 6.37C97.335 6.58333 97.5116 6.84333 97.645 7.15C97.7783 7.45 97.8483 7.78667 97.855 8.16C97.855 8.26667 97.815 8.35667 97.735 8.43C97.655 8.50333 97.5616 8.54 97.455 8.54H93.505L93.325 7.85H97.175L97.015 7.99V7.77C96.9883 7.49667 96.895 7.26333 96.735 7.07C96.5816 6.87 96.3916 6.71667 96.165 6.61C95.945 6.50333 95.7116 6.45 95.465 6.45C95.265 6.45 95.065 6.48667 94.865 6.56C94.6716 6.62667 94.495 6.74 94.335 6.9C94.1816 7.05333 94.055 7.25333 93.955 7.5C93.8616 7.74667 93.815 8.04333 93.815 8.39C93.815 8.77667 93.8916 9.11667 94.045 9.41C94.205 9.70333 94.425 9.93667 94.705 10.11C94.985 10.2767 95.3116 10.36 95.685 10.36C95.9183 10.36 96.1216 10.33 96.295 10.27C96.4683 10.21 96.6183 10.1367 96.745 10.05C96.8716 9.95667 96.9783 9.86333 97.065 9.77C97.1516 9.71 97.235 9.68 97.315 9.68C97.415 9.68 97.495 9.71333 97.555 9.78C97.6216 9.84667 97.655 9.92667 97.655 10.02C97.655 10.1333 97.6016 10.2333 97.495 10.32C97.3083 10.5267 97.055 10.71 96.735 10.87C96.415 11.0233 96.075 11.1 95.715 11.1ZM99.8274 10.59C99.8274 10.7033 99.7874 10.8 99.7074 10.88C99.634 10.96 99.5407 11 99.4274 11C99.3074 11 99.2107 10.96 99.1374 10.88C99.064 10.8 99.0274 10.7033 99.0274 10.59V6.15C99.0274 6.03667 99.064 5.94333 99.1374 5.87C99.2174 5.79 99.314 5.75 99.4274 5.75C99.5407 5.75 99.634 5.79 99.7074 5.87C99.7874 5.94333 99.8274 6.03667 99.8274 6.15V10.59ZM99.4274 5.08C99.2607 5.08 99.1374 5.04667 99.0574 4.98C98.9774 4.91333 98.9374 4.81 98.9374 4.67V4.53C98.9374 4.39 98.9807 4.28667 99.0674 4.22C99.154 4.15333 99.2774 4.12 99.4374 4.12C99.5974 4.12 99.7174 4.15333 99.7974 4.22C99.8774 4.28667 99.9174 4.39 99.9174 4.53V4.67C99.9174 4.81 99.874 4.91333 99.7874 4.98C99.7074 5.04667 99.5874 5.08 99.4274 5.08ZM103.834 5.7C104.288 5.7 104.644 5.79333 104.904 5.98C105.164 6.16667 105.348 6.41667 105.454 6.73C105.568 7.04333 105.624 7.39333 105.624 7.78V10.59C105.624 10.7033 105.584 10.8 105.504 10.88C105.431 10.96 105.338 11 105.224 11C105.111 11 105.014 10.96 104.934 10.88C104.861 10.8 104.824 10.7033 104.824 10.59V7.8C104.824 7.54667 104.784 7.32 104.704 7.12C104.631 6.91333 104.504 6.75 104.324 6.63C104.151 6.50333 103.911 6.44 103.604 6.44C103.324 6.44 103.068 6.50333 102.834 6.63C102.601 6.75 102.414 6.91333 102.274 7.12C102.134 7.32 102.064 7.54667 102.064 7.8V10.59C102.064 10.7033 102.024 10.8 101.944 10.88C101.871 10.96 101.778 11 101.664 11C101.551 11 101.454 10.96 101.374 10.88C101.301 10.8 101.264 10.7033 101.264 10.59V6.23C101.264 6.11667 101.301 6.02333 101.374 5.95C101.454 5.87 101.551 5.83 101.664 5.83C101.784 5.83 101.881 5.87 101.954 5.95C102.028 6.02333 102.064 6.11667 102.064 6.23V6.94L101.864 7.16C101.898 6.98667 101.974 6.81333 102.094 6.64C102.214 6.46 102.364 6.3 102.544 6.16C102.724 6.02 102.924 5.91 103.144 5.83C103.364 5.74333 103.594 5.7 103.834 5.7ZM109.274 5.7C109.561 5.7 109.828 5.75 110.074 5.85C110.321 5.94333 110.534 6.06667 110.714 6.22C110.901 6.37333 111.044 6.53333 111.144 6.7C111.251 6.86667 111.304 7.02333 111.304 7.17L111.114 7.05V6.18C111.114 6.06667 111.151 5.97333 111.224 5.9C111.298 5.82 111.394 5.78 111.514 5.78C111.628 5.78 111.721 5.82 111.794 5.9C111.874 5.97333 111.914 6.06667 111.914 6.18V10.56C111.914 11.1067 111.798 11.56 111.564 11.92C111.338 12.28 111.031 12.55 110.644 12.73C110.258 12.91 109.824 13 109.344 13C109.144 13 108.924 12.9733 108.684 12.92C108.444 12.8667 108.231 12.8 108.044 12.72C107.858 12.6467 107.738 12.57 107.684 12.49C107.584 12.4233 107.521 12.3467 107.494 12.26C107.474 12.18 107.491 12.1033 107.544 12.03C107.604 11.9367 107.681 11.89 107.774 11.89C107.874 11.89 107.998 11.92 108.144 11.98C108.204 12 108.298 12.0333 108.424 12.08C108.558 12.1267 108.704 12.1667 108.864 12.2C109.031 12.24 109.194 12.26 109.354 12.26C109.921 12.26 110.354 12.11 110.654 11.81C110.961 11.5167 111.114 11.1267 111.114 10.64V9.71L111.224 9.76C111.184 9.94667 111.101 10.12 110.974 10.28C110.854 10.44 110.704 10.5833 110.524 10.71C110.351 10.83 110.158 10.9267 109.944 11C109.731 11.0667 109.514 11.1 109.294 11.1C108.828 11.1 108.408 10.9833 108.034 10.75C107.661 10.5167 107.364 10.1967 107.144 9.79C106.931 9.38333 106.824 8.92 106.824 8.4C106.824 7.87333 106.931 7.40667 107.144 7C107.364 6.59333 107.658 6.27667 108.024 6.05C108.398 5.81667 108.814 5.7 109.274 5.7ZM109.374 6.44C109.034 6.44 108.728 6.52667 108.454 6.7C108.188 6.86667 107.978 7.09667 107.824 7.39C107.678 7.68333 107.604 8.02 107.604 8.4C107.604 8.76667 107.678 9.1 107.824 9.4C107.978 9.69333 108.188 9.92667 108.454 10.1C108.728 10.2733 109.034 10.36 109.374 10.36C109.721 10.36 110.028 10.2767 110.294 10.11C110.561 9.93667 110.771 9.70333 110.924 9.41C111.078 9.11667 111.154 8.78 111.154 8.4C111.154 8.01333 111.078 7.67333 110.924 7.38C110.771 7.08667 110.561 6.85667 110.294 6.69C110.028 6.52333 109.721 6.44 109.374 6.44Z" fill="black"/>
</svg>
