<svg width="82" height="14" viewBox="0 0 82 14" fill="none" xmlns="http://www.w3.org/2000/svg">
<rect width="82" height="14" rx="7" fill="#70FFBA"/>
<path d="M10.9268 11.1C10.4335 11.1 10.0002 11.0267 9.62684 10.88C9.2535 10.7333 8.8935 10.5 8.54684 10.18C8.50017 10.1333 8.46017 10.0833 8.42684 10.03C8.40017 9.97 8.38684 9.90667 8.38684 9.84C8.38684 9.73333 8.4235 9.64 8.49684 9.56C8.57684 9.47333 8.6735 9.43 8.78684 9.43C8.88017 9.43 8.9635 9.46667 9.03684 9.54C9.29684 9.79333 9.57684 9.98667 9.87684 10.12C10.1835 10.2533 10.5268 10.32 10.9068 10.32C11.2002 10.32 11.4635 10.2733 11.6968 10.18C11.9368 10.0867 12.1268 9.95667 12.2668 9.79C12.4068 9.62333 12.4768 9.43 12.4768 9.21C12.4702 8.94333 12.3902 8.72333 12.2368 8.55C12.0902 8.37667 11.8835 8.23333 11.6168 8.12C11.3568 8 11.0535 7.9 10.7068 7.82C10.4002 7.74667 10.1168 7.65667 9.85684 7.55C9.6035 7.44333 9.3835 7.31333 9.19684 7.16C9.01017 7 8.8635 6.81 8.75684 6.59C8.65684 6.36333 8.60684 6.1 8.60684 5.8C8.60684 5.42 8.70684 5.08667 8.90684 4.8C9.10684 4.51333 9.3835 4.29333 9.73684 4.14C10.0902 3.98 10.4968 3.9 10.9568 3.9C11.3635 3.9 11.7468 3.96667 12.1068 4.1C12.4735 4.23333 12.7668 4.41667 12.9868 4.65C13.1202 4.77667 13.1868 4.9 13.1868 5.02C13.1868 5.12 13.1435 5.21333 13.0568 5.3C12.9768 5.38 12.8835 5.42 12.7768 5.42C12.7035 5.42 12.6368 5.39333 12.5768 5.34C12.4635 5.21333 12.3202 5.1 12.1468 5C11.9735 4.9 11.7835 4.82 11.5768 4.76C11.3702 4.7 11.1635 4.67 10.9568 4.67C10.6502 4.67 10.3802 4.71667 10.1468 4.81C9.9135 4.89667 9.73017 5.02333 9.59684 5.19C9.47017 5.35 9.40684 5.54333 9.40684 5.77C9.40684 6.02333 9.48017 6.23333 9.62684 6.4C9.7735 6.56 9.97017 6.69333 10.2168 6.8C10.4635 6.9 10.7368 6.99 11.0368 7.07C11.3635 7.15 11.6635 7.24333 11.9368 7.35C12.2168 7.45 12.4568 7.57667 12.6568 7.73C12.8568 7.88333 13.0102 8.08 13.1168 8.32C13.2302 8.55333 13.2868 8.84333 13.2868 9.19C13.2868 9.55667 13.1835 9.88333 12.9768 10.17C12.7702 10.4567 12.4868 10.6833 12.1268 10.85C11.7735 11.01 11.3735 11.0933 10.9268 11.1ZM17.039 5.75C17.4924 5.75 17.899 5.86333 18.259 6.09C18.619 6.31667 18.9024 6.63 19.109 7.03C19.3224 7.43 19.429 7.89 19.429 8.41C19.429 8.92333 19.3224 9.38333 19.109 9.79C18.9024 10.19 18.619 10.5067 18.259 10.74C17.9057 10.9667 17.5057 11.08 17.059 11.08C16.8124 11.08 16.579 11.0433 16.359 10.97C16.1457 10.89 15.949 10.79 15.769 10.67C15.5957 10.5433 15.449 10.4033 15.329 10.25C15.209 10.09 15.1224 9.93333 15.069 9.78L15.289 9.64V12.59C15.289 12.7033 15.2524 12.8 15.179 12.88C15.1057 12.96 15.009 13 14.889 13C14.7757 13 14.679 12.96 14.599 12.88C14.5257 12.8067 14.489 12.71 14.489 12.59V6.2C14.489 6.08667 14.5257 5.99333 14.599 5.92C14.679 5.84 14.7757 5.8 14.889 5.8C15.009 5.8 15.1057 5.84 15.179 5.92C15.2524 5.99333 15.289 6.08667 15.289 6.2V7.09L15.139 7.01C15.1857 6.84333 15.2657 6.68333 15.379 6.53C15.499 6.37667 15.6424 6.24333 15.809 6.13C15.9824 6.01 16.1724 5.91667 16.379 5.85C16.5924 5.78333 16.8124 5.75 17.039 5.75ZM16.949 6.49C16.6157 6.49 16.319 6.57333 16.059 6.74C15.8057 6.90667 15.6057 7.13333 15.459 7.42C15.319 7.70667 15.249 8.03667 15.249 8.41C15.249 8.77667 15.319 9.10667 15.459 9.4C15.6057 9.69333 15.8057 9.92333 16.059 10.09C16.319 10.2567 16.6157 10.34 16.949 10.34C17.2824 10.34 17.5757 10.2567 17.829 10.09C18.0824 9.92333 18.2824 9.69333 18.429 9.4C18.5757 9.10667 18.649 8.77667 18.649 8.41C18.649 8.03667 18.5757 7.70667 18.429 7.42C18.2824 7.13333 18.0824 6.90667 17.829 6.74C17.5757 6.57333 17.2824 6.49 16.949 6.49ZM23.0216 11.1C22.4883 11.1 22.0216 10.9867 21.6216 10.76C21.2216 10.5333 20.9083 10.2233 20.6816 9.83C20.4616 9.43 20.3516 8.97 20.3516 8.45C20.3516 7.87 20.4649 7.37667 20.6916 6.97C20.9249 6.55667 21.2249 6.24333 21.5916 6.03C21.9649 5.81 22.3583 5.7 22.7716 5.7C23.0783 5.7 23.3749 5.75667 23.6616 5.87C23.9483 5.98333 24.2016 6.15 24.4216 6.37C24.6416 6.58333 24.8183 6.84333 24.9516 7.15C25.0849 7.45 25.1549 7.78667 25.1616 8.16C25.1616 8.26667 25.1216 8.35667 25.0416 8.43C24.9616 8.50333 24.8683 8.54 24.7616 8.54H20.8116L20.6316 7.85H24.4816L24.3216 7.99V7.77C24.2949 7.49667 24.2016 7.26333 24.0416 7.07C23.8883 6.87 23.6983 6.71667 23.4716 6.61C23.2516 6.50333 23.0183 6.45 22.7716 6.45C22.5716 6.45 22.3716 6.48667 22.1716 6.56C21.9783 6.62667 21.8016 6.74 21.6416 6.9C21.4883 7.05333 21.3616 7.25333 21.2616 7.5C21.1683 7.74667 21.1216 8.04333 21.1216 8.39C21.1216 8.77667 21.1983 9.11667 21.3516 9.41C21.5116 9.70333 21.7316 9.93667 22.0116 10.11C22.2916 10.2767 22.6183 10.36 22.9916 10.36C23.2249 10.36 23.4283 10.33 23.6016 10.27C23.7749 10.21 23.9249 10.1367 24.0516 10.05C24.1783 9.95667 24.2849 9.86333 24.3716 9.77C24.4583 9.71 24.5416 9.68 24.6216 9.68C24.7216 9.68 24.8016 9.71333 24.8616 9.78C24.9283 9.84667 24.9616 9.92667 24.9616 10.02C24.9616 10.1333 24.9083 10.2333 24.8016 10.32C24.6149 10.5267 24.3616 10.71 24.0416 10.87C23.7216 11.0233 23.3816 11.1 23.0216 11.1ZM28.664 5.7C29.004 5.7 29.3107 5.73667 29.584 5.81C29.8574 5.88333 30.074 5.98333 30.234 6.11C30.394 6.23667 30.474 6.38 30.474 6.54C30.474 6.62667 30.444 6.71 30.384 6.79C30.324 6.87 30.244 6.91 30.144 6.91C30.0507 6.91 29.974 6.89333 29.914 6.86C29.8607 6.82667 29.8074 6.78333 29.754 6.73C29.7074 6.67667 29.6407 6.63 29.554 6.59C29.474 6.54333 29.3574 6.50667 29.204 6.48C29.0507 6.45333 28.8974 6.44 28.744 6.44C28.3774 6.44 28.054 6.52667 27.774 6.7C27.5007 6.87333 27.284 7.10667 27.124 7.4C26.964 7.69333 26.884 8.02667 26.884 8.4C26.884 8.77333 26.9607 9.10667 27.114 9.4C27.2674 9.69333 27.4807 9.92667 27.754 10.1C28.0274 10.2733 28.344 10.36 28.704 10.36C28.9374 10.36 29.124 10.34 29.264 10.3C29.404 10.26 29.5207 10.2133 29.614 10.16C29.734 10.0933 29.824 10.0267 29.884 9.96C29.9507 9.89333 30.0374 9.86 30.144 9.86C30.2574 9.86 30.344 9.89667 30.404 9.97C30.4707 10.0433 30.504 10.1333 30.504 10.24C30.504 10.36 30.4207 10.4867 30.254 10.62C30.0874 10.7533 29.8607 10.8667 29.574 10.96C29.294 11.0533 28.974 11.1 28.614 11.1C28.1074 11.1 27.664 10.9833 27.284 10.75C26.904 10.51 26.6074 10.1867 26.394 9.78C26.1874 9.36667 26.084 8.90667 26.084 8.4C26.084 7.89333 26.1907 7.43667 26.404 7.03C26.624 6.62333 26.9274 6.3 27.314 6.06C27.7007 5.82 28.1507 5.7 28.664 5.7ZM32.3196 10.59C32.3196 10.7033 32.2796 10.8 32.1996 10.88C32.1262 10.96 32.0329 11 31.9196 11C31.7996 11 31.7029 10.96 31.6296 10.88C31.5562 10.8 31.5196 10.7033 31.5196 10.59V6.15C31.5196 6.03667 31.5562 5.94333 31.6296 5.87C31.7096 5.79 31.8062 5.75 31.9196 5.75C32.0329 5.75 32.1262 5.79 32.1996 5.87C32.2796 5.94333 32.3196 6.03667 32.3196 6.15V10.59ZM31.9196 5.08C31.7529 5.08 31.6296 5.04667 31.5496 4.98C31.4696 4.91333 31.4296 4.81 31.4296 4.67V4.53C31.4296 4.39 31.4729 4.28667 31.5596 4.22C31.6462 4.15333 31.7696 4.12 31.9296 4.12C32.0896 4.12 32.2096 4.15333 32.2896 4.22C32.3696 4.28667 32.4096 4.39 32.4096 4.53V4.67C32.4096 4.81 32.3662 4.91333 32.2796 4.98C32.1996 5.04667 32.0796 5.08 31.9196 5.08ZM38.0166 5.78C38.1299 5.78 38.2233 5.82 38.2966 5.9C38.3766 5.97333 38.4166 6.06667 38.4166 6.18V10.59C38.4166 10.7033 38.3766 10.8 38.2966 10.88C38.2233 10.96 38.1299 11 38.0166 11C37.8966 11 37.7999 10.96 37.7266 10.88C37.6533 10.8 37.6166 10.7033 37.6166 10.59V9.64L37.8066 9.62C37.8066 9.76667 37.7566 9.92667 37.6566 10.1C37.5566 10.2733 37.4199 10.4367 37.2466 10.59C37.0733 10.7367 36.8666 10.86 36.6266 10.96C36.3933 11.0533 36.1399 11.1 35.8666 11.1C35.4133 11.1 35.0066 10.9833 34.6466 10.75C34.2866 10.51 33.9999 10.1867 33.7866 9.78C33.5799 9.37333 33.4766 8.91 33.4766 8.39C33.4766 7.86333 33.5799 7.4 33.7866 7C33.9999 6.59333 34.2866 6.27667 34.6466 6.05C35.0066 5.81667 35.4066 5.7 35.8466 5.7C36.1333 5.7 36.3999 5.74667 36.6466 5.84C36.8933 5.93333 37.1066 6.06 37.2866 6.22C37.4733 6.38 37.6166 6.55667 37.7166 6.75C37.8233 6.94333 37.8766 7.13667 37.8766 7.33L37.6166 7.27V6.18C37.6166 6.06667 37.6533 5.97333 37.7266 5.9C37.7999 5.82 37.8966 5.78 38.0166 5.78ZM35.9566 10.36C36.2899 10.36 36.5833 10.2733 36.8366 10.1C37.0966 9.92667 37.2966 9.69333 37.4366 9.4C37.5833 9.1 37.6566 8.76333 37.6566 8.39C37.6566 8.02333 37.5833 7.69333 37.4366 7.4C37.2966 7.1 37.0966 6.86667 36.8366 6.7C36.5833 6.52667 36.2899 6.44 35.9566 6.44C35.6299 6.44 35.3366 6.52333 35.0766 6.69C34.8233 6.85667 34.6233 7.08667 34.4766 7.38C34.3299 7.67333 34.2566 8.01 34.2566 8.39C34.2566 8.76333 34.3266 9.1 34.4666 9.4C34.6133 9.69333 34.8133 9.92667 35.0666 10.1C35.3266 10.2733 35.6233 10.36 35.9566 10.36ZM40.7792 10.59C40.7792 10.7033 40.7392 10.8 40.6592 10.88C40.5792 10.96 40.4825 11 40.3692 11C40.2558 11 40.1625 10.96 40.0892 10.88C40.0158 10.8 39.9792 10.7033 39.9792 10.59V4C39.9792 3.88667 40.0158 3.79333 40.0892 3.72C40.1692 3.64 40.2658 3.6 40.3792 3.6C40.4992 3.6 40.5958 3.64 40.6692 3.72C40.7425 3.79333 40.7792 3.88667 40.7792 4V10.59ZM50.4047 4C50.5181 4 50.6081 4.03667 50.6747 4.11C50.7414 4.17667 50.7747 4.26333 50.7747 4.37V10.58C50.7747 10.7067 50.7347 10.81 50.6547 10.89C50.5747 10.9633 50.4781 11 50.3647 11C50.3047 11 50.2447 10.99 50.1847 10.97C50.1247 10.9433 50.0781 10.91 50.0447 10.87L45.7647 5.21L45.9647 5.09V10.63C45.9647 10.7367 45.9281 10.8267 45.8547 10.9C45.7881 10.9667 45.6981 11 45.5847 11C45.4781 11 45.3914 10.9667 45.3247 10.9C45.2581 10.8267 45.2247 10.7367 45.2247 10.63V4.4C45.2247 4.28 45.2614 4.18333 45.3347 4.11C45.4147 4.03667 45.5081 4 45.6147 4C45.6747 4 45.7347 4.01333 45.7947 4.04C45.8614 4.06 45.9114 4.09333 45.9447 4.14L50.1647 9.72L50.0347 9.88V4.37C50.0347 4.26333 50.0681 4.17667 50.1347 4.11C50.2081 4.03667 50.2981 4 50.4047 4ZM54.7794 11.1C54.2461 11.1 53.7794 10.9867 53.3794 10.76C52.9794 10.5333 52.6661 10.2233 52.4394 9.83C52.2194 9.43 52.1094 8.97 52.1094 8.45C52.1094 7.87 52.2227 7.37667 52.4494 6.97C52.6827 6.55667 52.9827 6.24333 53.3494 6.03C53.7227 5.81 54.1161 5.7 54.5294 5.7C54.8361 5.7 55.1327 5.75667 55.4194 5.87C55.7061 5.98333 55.9594 6.15 56.1794 6.37C56.3994 6.58333 56.5761 6.84333 56.7094 7.15C56.8427 7.45 56.9127 7.78667 56.9194 8.16C56.9194 8.26667 56.8794 8.35667 56.7994 8.43C56.7194 8.50333 56.6261 8.54 56.5194 8.54H52.5694L52.3894 7.85H56.2394L56.0794 7.99V7.77C56.0527 7.49667 55.9594 7.26333 55.7994 7.07C55.6461 6.87 55.4561 6.71667 55.2294 6.61C55.0094 6.50333 54.7761 6.45 54.5294 6.45C54.3294 6.45 54.1294 6.48667 53.9294 6.56C53.7361 6.62667 53.5594 6.74 53.3994 6.9C53.2461 7.05333 53.1194 7.25333 53.0194 7.5C52.9261 7.74667 52.8794 8.04333 52.8794 8.39C52.8794 8.77667 52.9561 9.11667 53.1094 9.41C53.2694 9.70333 53.4894 9.93667 53.7694 10.11C54.0494 10.2767 54.3761 10.36 54.7494 10.36C54.9827 10.36 55.1861 10.33 55.3594 10.27C55.5327 10.21 55.6827 10.1367 55.8094 10.05C55.9361 9.95667 56.0427 9.86333 56.1294 9.77C56.2161 9.71 56.2994 9.68 56.3794 9.68C56.4794 9.68 56.5594 9.71333 56.6194 9.78C56.6861 9.84667 56.7194 9.92667 56.7194 10.02C56.7194 10.1333 56.6661 10.2333 56.5594 10.32C56.3727 10.5267 56.1194 10.71 55.7994 10.87C55.4794 11.0233 55.1394 11.1 54.7794 11.1ZM60.5118 11.1C59.9785 11.1 59.5118 10.9867 59.1118 10.76C58.7118 10.5333 58.3985 10.2233 58.1718 9.83C57.9518 9.43 57.8418 8.97 57.8418 8.45C57.8418 7.87 57.9552 7.37667 58.1818 6.97C58.4152 6.55667 58.7152 6.24333 59.0818 6.03C59.4552 5.81 59.8485 5.7 60.2618 5.7C60.5685 5.7 60.8652 5.75667 61.1518 5.87C61.4385 5.98333 61.6918 6.15 61.9118 6.37C62.1318 6.58333 62.3085 6.84333 62.4418 7.15C62.5752 7.45 62.6452 7.78667 62.6518 8.16C62.6518 8.26667 62.6118 8.35667 62.5318 8.43C62.4518 8.50333 62.3585 8.54 62.2518 8.54H58.3018L58.1218 7.85H61.9718L61.8118 7.99V7.77C61.7852 7.49667 61.6918 7.26333 61.5318 7.07C61.3785 6.87 61.1885 6.71667 60.9618 6.61C60.7418 6.50333 60.5085 6.45 60.2618 6.45C60.0618 6.45 59.8618 6.48667 59.6618 6.56C59.4685 6.62667 59.2918 6.74 59.1318 6.9C58.9785 7.05333 58.8518 7.25333 58.7518 7.5C58.6585 7.74667 58.6118 8.04333 58.6118 8.39C58.6118 8.77667 58.6885 9.11667 58.8418 9.41C59.0018 9.70333 59.2218 9.93667 59.5018 10.11C59.7818 10.2767 60.1085 10.36 60.4818 10.36C60.7152 10.36 60.9185 10.33 61.0918 10.27C61.2652 10.21 61.4152 10.1367 61.5418 10.05C61.6685 9.95667 61.7752 9.86333 61.8618 9.77C61.9485 9.71 62.0318 9.68 62.1118 9.68C62.2118 9.68 62.2918 9.71333 62.3518 9.78C62.4185 9.84667 62.4518 9.92667 62.4518 10.02C62.4518 10.1333 62.3985 10.2333 62.2918 10.32C62.1052 10.5267 61.8518 10.71 61.5318 10.87C61.2118 11.0233 60.8718 11.1 60.5118 11.1ZM68.1143 3.6C68.2276 3.6 68.3209 3.64 68.3943 3.72C68.4743 3.79333 68.5143 3.88667 68.5143 4V10.59C68.5143 10.7033 68.4743 10.8 68.3943 10.88C68.3209 10.96 68.2276 11 68.1143 11C67.9943 11 67.8976 10.96 67.8243 10.88C67.7509 10.8 67.7143 10.7033 67.7143 10.59V9.64L67.9043 9.57C67.9043 9.73 67.8543 9.9 67.7543 10.08C67.6543 10.2533 67.5176 10.4167 67.3443 10.57C67.1709 10.7233 66.9643 10.85 66.7243 10.95C66.4909 11.05 66.2376 11.1 65.9643 11.1C65.5176 11.1 65.1109 10.9833 64.7443 10.75C64.3843 10.5167 64.0976 10.1967 63.8843 9.79C63.6776 9.38333 63.5743 8.92 63.5743 8.4C63.5743 7.87333 63.6776 7.40667 63.8843 7C64.0976 6.59333 64.3843 6.27667 64.7443 6.05C65.1043 5.81667 65.5043 5.7 65.9443 5.7C66.2243 5.7 66.4876 5.74667 66.7343 5.84C66.9809 5.93333 67.1943 6.06 67.3743 6.22C67.5609 6.38 67.7076 6.55667 67.8143 6.75C67.9209 6.94333 67.9743 7.13667 67.9743 7.33L67.7143 7.27V4C67.7143 3.88667 67.7509 3.79333 67.8243 3.72C67.8976 3.64 67.9943 3.6 68.1143 3.6ZM66.0543 10.36C66.3876 10.36 66.6809 10.2767 66.9343 10.11C67.1943 9.93667 67.3943 9.70333 67.5343 9.41C67.6809 9.11 67.7543 8.77333 67.7543 8.4C67.7543 8.02 67.6809 7.68333 67.5343 7.39C67.3943 7.09667 67.1943 6.86667 66.9343 6.7C66.6809 6.52667 66.3876 6.44 66.0543 6.44C65.7276 6.44 65.4343 6.52667 65.1743 6.7C64.9209 6.86667 64.7209 7.09667 64.5743 7.39C64.4276 7.68333 64.3543 8.02 64.3543 8.4C64.3543 8.76667 64.4276 9.1 64.5743 9.4C64.7209 9.69333 64.9209 9.92667 65.1743 10.1C65.4343 10.2733 65.7276 10.36 66.0543 10.36ZM69.7068 10.18C69.6468 10.0933 69.6202 10.0033 69.6268 9.91C69.6335 9.81 69.6902 9.72333 69.7968 9.65C69.8635 9.60333 69.9402 9.58333 70.0268 9.59C70.1202 9.59667 70.2035 9.64 70.2768 9.72C70.4635 9.94 70.6768 10.1167 70.9168 10.25C71.1568 10.3767 71.4502 10.44 71.7968 10.44C71.9568 10.4333 72.1168 10.4067 72.2768 10.36C72.4368 10.3133 72.5702 10.2333 72.6768 10.12C72.7902 10 72.8468 9.84333 72.8468 9.65C72.8468 9.46333 72.7902 9.31667 72.6768 9.21C72.5635 9.09667 72.4168 9.00667 72.2368 8.94C72.0568 8.86667 71.8602 8.80333 71.6468 8.75C71.4268 8.69 71.2102 8.62333 70.9968 8.55C70.7835 8.47 70.5902 8.37333 70.4168 8.26C70.2502 8.14 70.1135 7.99333 70.0068 7.82C69.9068 7.64 69.8568 7.42333 69.8568 7.17C69.8568 6.87 69.9368 6.61 70.0968 6.39C70.2635 6.17 70.4835 6 70.7568 5.88C71.0368 5.76 71.3402 5.7 71.6668 5.7C71.8535 5.7 72.0468 5.72333 72.2468 5.77C72.4535 5.81 72.6535 5.88333 72.8468 5.99C73.0402 6.09 73.2102 6.23 73.3568 6.41C73.4168 6.47667 73.4502 6.56 73.4568 6.66C73.4635 6.76 73.4202 6.85 73.3268 6.93C73.2535 6.98333 73.1702 7.00667 73.0768 7C72.9902 6.99333 72.9168 6.96 72.8568 6.9C72.7168 6.73333 72.5402 6.60667 72.3268 6.52C72.1202 6.42667 71.8902 6.38 71.6368 6.38C71.4768 6.38 71.3202 6.40333 71.1668 6.45C71.0135 6.49667 70.8835 6.57667 70.7768 6.69C70.6768 6.79667 70.6268 6.94667 70.6268 7.14C70.6335 7.32 70.6935 7.46667 70.8068 7.58C70.9202 7.69333 71.0735 7.78667 71.2668 7.86C71.4602 7.92667 71.6735 7.99333 71.9068 8.06C72.1202 8.11333 72.3235 8.17667 72.5168 8.25C72.7168 8.31667 72.8968 8.40667 73.0568 8.52C73.2168 8.63333 73.3435 8.78 73.4368 8.96C73.5302 9.13333 73.5768 9.35333 73.5768 9.62C73.5768 9.92667 73.4902 10.1933 73.3168 10.42C73.1435 10.64 72.9135 10.81 72.6268 10.93C72.3468 11.0433 72.0435 11.1 71.7168 11.1C71.3502 11.1 70.9868 11.03 70.6268 10.89C70.2735 10.75 69.9668 10.5133 69.7068 10.18Z" fill="black"/>
</svg>
