<svg width="118" height="14" viewBox="0 0 118 14" fill="none" xmlns="http://www.w3.org/2000/svg">
<rect width="118" height="14" rx="7" fill="#DCC2FF"/>
<path d="M11.4885 11C11.3685 11 11.2685 10.96 11.1885 10.88C11.1085 10.8 11.0685 10.7033 11.0685 10.59V4.41H11.9185V10.59C11.9185 10.7033 11.8785 10.8 11.7985 10.88C11.7185 10.96 11.6151 11 11.4885 11ZM9.16848 4.76C9.05514 4.76 8.95848 4.72667 8.87848 4.66C8.80514 4.58667 8.76848 4.49333 8.76848 4.38C8.76848 4.26667 8.80514 4.17667 8.87848 4.11C8.95848 4.03667 9.05514 4 9.16848 4H13.8185C13.9318 4 14.0285 4.03667 14.1085 4.11C14.1885 4.17667 14.2285 4.26667 14.2285 4.38C14.2285 4.5 14.1885 4.59333 14.1085 4.66C14.0285 4.72667 13.9318 4.76 13.8185 4.76H9.16848ZM19.0006 8.4C19.0006 8.92 18.8839 9.38333 18.6506 9.79C18.4239 10.1967 18.1139 10.5167 17.7206 10.75C17.3339 10.9833 16.8973 11.1 16.4106 11.1C15.9239 11.1 15.4839 10.9833 15.0906 10.75C14.6973 10.5167 14.3839 10.1967 14.1506 9.79C13.9239 9.38333 13.8106 8.92 13.8106 8.4C13.8106 7.88 13.9239 7.41667 14.1506 7.01C14.3839 6.60333 14.6973 6.28333 15.0906 6.05C15.4839 5.81667 15.9239 5.7 16.4106 5.7C16.8973 5.7 17.3339 5.81667 17.7206 6.05C18.1139 6.28333 18.4239 6.60333 18.6506 7.01C18.8839 7.41667 19.0006 7.88 19.0006 8.4ZM18.2006 8.4C18.2006 8.01333 18.1206 7.67333 17.9606 7.38C17.8073 7.08667 17.5939 6.85667 17.3206 6.69C17.0539 6.52333 16.7506 6.44 16.4106 6.44C16.0706 6.44 15.7639 6.52333 15.4906 6.69C15.2239 6.85667 15.0106 7.08667 14.8506 7.38C14.6906 7.67333 14.6106 8.01333 14.6106 8.4C14.6106 8.78 14.6906 9.11667 14.8506 9.41C15.0106 9.70333 15.2239 9.93667 15.4906 10.11C15.7639 10.2767 16.0706 10.36 16.4106 10.36C16.7506 10.36 17.0539 10.2767 17.3206 10.11C17.5939 9.93667 17.8073 9.70333 17.9606 9.41C18.1206 9.11667 18.2006 8.78 18.2006 8.4ZM24.4639 3.6C24.5772 3.6 24.6705 3.64 24.7439 3.72C24.8239 3.79333 24.8639 3.88667 24.8639 4V10.59C24.8639 10.7033 24.8239 10.8 24.7439 10.88C24.6705 10.96 24.5772 11 24.4639 11C24.3439 11 24.2472 10.96 24.1739 10.88C24.1005 10.8 24.0639 10.7033 24.0639 10.59V9.64L24.2539 9.57C24.2539 9.73 24.2039 9.9 24.1039 10.08C24.0039 10.2533 23.8672 10.4167 23.6939 10.57C23.5205 10.7233 23.3139 10.85 23.0739 10.95C22.8405 11.05 22.5872 11.1 22.3139 11.1C21.8672 11.1 21.4605 10.9833 21.0939 10.75C20.7339 10.5167 20.4472 10.1967 20.2339 9.79C20.0272 9.38333 19.9239 8.92 19.9239 8.4C19.9239 7.87333 20.0272 7.40667 20.2339 7C20.4472 6.59333 20.7339 6.27667 21.0939 6.05C21.4539 5.81667 21.8539 5.7 22.2939 5.7C22.5739 5.7 22.8372 5.74667 23.0839 5.84C23.3305 5.93333 23.5439 6.06 23.7239 6.22C23.9105 6.38 24.0572 6.55667 24.1639 6.75C24.2705 6.94333 24.3239 7.13667 24.3239 7.33L24.0639 7.27V4C24.0639 3.88667 24.1005 3.79333 24.1739 3.72C24.2472 3.64 24.3439 3.6 24.4639 3.6ZM22.4039 10.36C22.7372 10.36 23.0305 10.2767 23.2839 10.11C23.5439 9.93667 23.7439 9.70333 23.8839 9.41C24.0305 9.11 24.1039 8.77333 24.1039 8.4C24.1039 8.02 24.0305 7.68333 23.8839 7.39C23.7439 7.09667 23.5439 6.86667 23.2839 6.7C23.0305 6.52667 22.7372 6.44 22.4039 6.44C22.0772 6.44 21.7839 6.52667 21.5239 6.7C21.2705 6.86667 21.0705 7.09667 20.9239 7.39C20.7772 7.68333 20.7039 8.02 20.7039 8.4C20.7039 8.76667 20.7772 9.1 20.9239 9.4C21.0705 9.69333 21.2705 9.92667 21.5239 10.1C21.7839 10.2733 22.0772 10.36 22.4039 10.36ZM30.6064 3.6C30.7198 3.6 30.8131 3.64 30.8864 3.72C30.9664 3.79333 31.0064 3.88667 31.0064 4V10.59C31.0064 10.7033 30.9664 10.8 30.8864 10.88C30.8131 10.96 30.7198 11 30.6064 11C30.4864 11 30.3898 10.96 30.3164 10.88C30.2431 10.8 30.2064 10.7033 30.2064 10.59V9.64L30.3964 9.57C30.3964 9.73 30.3464 9.9 30.2464 10.08C30.1464 10.2533 30.0098 10.4167 29.8364 10.57C29.6631 10.7233 29.4564 10.85 29.2164 10.95C28.9831 11.05 28.7298 11.1 28.4564 11.1C28.0098 11.1 27.6031 10.9833 27.2364 10.75C26.8764 10.5167 26.5898 10.1967 26.3764 9.79C26.1698 9.38333 26.0664 8.92 26.0664 8.4C26.0664 7.87333 26.1698 7.40667 26.3764 7C26.5898 6.59333 26.8764 6.27667 27.2364 6.05C27.5964 5.81667 27.9964 5.7 28.4364 5.7C28.7164 5.7 28.9798 5.74667 29.2264 5.84C29.4731 5.93333 29.6864 6.06 29.8664 6.22C30.0531 6.38 30.1998 6.55667 30.3064 6.75C30.4131 6.94333 30.4664 7.13667 30.4664 7.33L30.2064 7.27V4C30.2064 3.88667 30.2431 3.79333 30.3164 3.72C30.3898 3.64 30.4864 3.6 30.6064 3.6ZM28.5464 10.36C28.8798 10.36 29.1731 10.2767 29.4264 10.11C29.6864 9.93667 29.8864 9.70333 30.0264 9.41C30.1731 9.11 30.2464 8.77333 30.2464 8.4C30.2464 8.02 30.1731 7.68333 30.0264 7.39C29.8864 7.09667 29.6864 6.86667 29.4264 6.7C29.1731 6.52667 28.8798 6.44 28.5464 6.44C28.2198 6.44 27.9264 6.52667 27.6664 6.7C27.4131 6.86667 27.2131 7.09667 27.0664 7.39C26.9198 7.68333 26.8464 8.02 26.8464 8.4C26.8464 8.76667 26.9198 9.1 27.0664 9.4C27.2131 9.69333 27.4131 9.92667 27.6664 10.1C27.9264 10.2733 28.2198 10.36 28.5464 10.36ZM33.369 10.59C33.369 10.7033 33.329 10.8 33.249 10.88C33.169 10.96 33.0724 11 32.959 11C32.8457 11 32.7524 10.96 32.679 10.88C32.6057 10.8 32.569 10.7033 32.569 10.59V4C32.569 3.88667 32.6057 3.79333 32.679 3.72C32.759 3.64 32.8557 3.6 32.969 3.6C33.089 3.6 33.1857 3.64 33.259 3.72C33.3324 3.79333 33.369 3.88667 33.369 4V10.59ZM37.213 11.1C36.6797 11.1 36.213 10.9867 35.813 10.76C35.413 10.5333 35.0997 10.2233 34.873 9.83C34.653 9.43 34.543 8.97 34.543 8.45C34.543 7.87 34.6563 7.37667 34.883 6.97C35.1163 6.55667 35.4163 6.24333 35.783 6.03C36.1563 5.81 36.5497 5.7 36.963 5.7C37.2697 5.7 37.5663 5.75667 37.853 5.87C38.1397 5.98333 38.393 6.15 38.613 6.37C38.833 6.58333 39.0097 6.84333 39.143 7.15C39.2763 7.45 39.3463 7.78667 39.353 8.16C39.353 8.26667 39.313 8.35667 39.233 8.43C39.153 8.50333 39.0597 8.54 38.953 8.54H35.003L34.823 7.85H38.673L38.513 7.99V7.77C38.4863 7.49667 38.393 7.26333 38.233 7.07C38.0797 6.87 37.8897 6.71667 37.663 6.61C37.443 6.50333 37.2097 6.45 36.963 6.45C36.763 6.45 36.563 6.48667 36.363 6.56C36.1697 6.62667 35.993 6.74 35.833 6.9C35.6797 7.05333 35.553 7.25333 35.453 7.5C35.3597 7.74667 35.313 8.04333 35.313 8.39C35.313 8.77667 35.3897 9.11667 35.543 9.41C35.703 9.70333 35.923 9.93667 36.203 10.11C36.483 10.2767 36.8097 10.36 37.183 10.36C37.4163 10.36 37.6197 10.33 37.793 10.27C37.9663 10.21 38.1163 10.1367 38.243 10.05C38.3697 9.95667 38.4763 9.86333 38.563 9.77C38.6497 9.71 38.733 9.68 38.813 9.68C38.913 9.68 38.993 9.71333 39.053 9.78C39.1197 9.84667 39.153 9.92667 39.153 10.02C39.153 10.1333 39.0997 10.2333 38.993 10.32C38.8063 10.5267 38.553 10.71 38.233 10.87C37.913 11.0233 37.573 11.1 37.213 11.1ZM40.9554 11C40.8421 11 40.7454 10.96 40.6654 10.88C40.5921 10.8 40.5554 10.7033 40.5554 10.59V6.23C40.5554 6.11667 40.5921 6.02333 40.6654 5.95C40.7454 5.87 40.8421 5.83 40.9554 5.83C41.0754 5.83 41.1721 5.87 41.2454 5.95C41.3188 6.02333 41.3554 6.11667 41.3554 6.23V7.55L41.2354 7.34C41.2754 7.13333 41.3454 6.93333 41.4454 6.74C41.5521 6.54 41.6854 6.36333 41.8454 6.21C42.0054 6.05 42.1888 5.92667 42.3954 5.84C42.6021 5.74667 42.8288 5.7 43.0754 5.7C43.2221 5.7 43.3554 5.73667 43.4754 5.81C43.6021 5.87667 43.6654 5.97333 43.6654 6.1C43.6654 6.24 43.6288 6.34333 43.5554 6.41C43.4821 6.47667 43.3988 6.51 43.3054 6.51C43.2188 6.51 43.1354 6.49333 43.0554 6.46C42.9754 6.42 42.8754 6.4 42.7554 6.4C42.5888 6.4 42.4221 6.44667 42.2554 6.54C42.0954 6.62667 41.9454 6.75333 41.8054 6.92C41.6721 7.08667 41.5621 7.27667 41.4754 7.49C41.3954 7.69667 41.3554 7.92 41.3554 8.16V10.59C41.3554 10.7033 41.3154 10.8 41.2354 10.88C41.1621 10.96 41.0688 11 40.9554 11ZM50.363 4C50.8497 4 51.2763 4.09333 51.643 4.28C52.0163 4.46 52.3263 4.71333 52.573 5.04C52.8197 5.36667 53.003 5.74333 53.123 6.17C53.2497 6.59 53.313 7.03333 53.313 7.5C53.313 8.14 53.203 8.72667 52.983 9.26C52.763 9.78667 52.4363 10.21 52.003 10.53C51.5697 10.8433 51.023 11 50.363 11H47.863C47.7497 11 47.653 10.96 47.573 10.88C47.4997 10.8 47.463 10.7033 47.463 10.59V4.4C47.463 4.28667 47.4997 4.19333 47.573 4.12C47.653 4.04 47.7497 4 47.863 4H50.363ZM50.263 10.22C50.7763 10.22 51.193 10.0967 51.513 9.85C51.8397 9.60333 52.0763 9.27333 52.223 8.86C52.3763 8.44667 52.453 7.99333 52.453 7.5C52.453 7.14 52.4097 6.79667 52.323 6.47C52.243 6.13667 52.113 5.84333 51.933 5.59C51.7597 5.33667 51.533 5.13667 51.253 4.99C50.9797 4.84333 50.6497 4.77 50.263 4.77H48.213L48.293 4.69V10.32L48.233 10.22H50.263ZM56.9689 11.1C56.4355 11.1 55.9689 10.9867 55.5689 10.76C55.1689 10.5333 54.8555 10.2233 54.6289 9.83C54.4089 9.43 54.2989 8.97 54.2989 8.45C54.2989 7.87 54.4122 7.37667 54.6389 6.97C54.8722 6.55667 55.1722 6.24333 55.5389 6.03C55.9122 5.81 56.3055 5.7 56.7189 5.7C57.0255 5.7 57.3222 5.75667 57.6089 5.87C57.8955 5.98333 58.1489 6.15 58.3689 6.37C58.5889 6.58333 58.7655 6.84333 58.8989 7.15C59.0322 7.45 59.1022 7.78667 59.1089 8.16C59.1089 8.26667 59.0689 8.35667 58.9889 8.43C58.9089 8.50333 58.8155 8.54 58.7089 8.54H54.7589L54.5789 7.85H58.4289L58.2689 7.99V7.77C58.2422 7.49667 58.1489 7.26333 57.9889 7.07C57.8355 6.87 57.6455 6.71667 57.4189 6.61C57.1989 6.50333 56.9655 6.45 56.7189 6.45C56.5189 6.45 56.3189 6.48667 56.1189 6.56C55.9255 6.62667 55.7489 6.74 55.5889 6.9C55.4355 7.05333 55.3089 7.25333 55.2089 7.5C55.1155 7.74667 55.0689 8.04333 55.0689 8.39C55.0689 8.77667 55.1455 9.11667 55.2989 9.41C55.4589 9.70333 55.6789 9.93667 55.9589 10.11C56.2389 10.2767 56.5655 10.36 56.9389 10.36C57.1722 10.36 57.3755 10.33 57.5489 10.27C57.7222 10.21 57.8722 10.1367 57.9989 10.05C58.1255 9.95667 58.2322 9.86333 58.3189 9.77C58.4055 9.71 58.4889 9.68 58.5689 9.68C58.6689 9.68 58.7489 9.71333 58.8089 9.78C58.8755 9.84667 58.9089 9.92667 58.9089 10.02C58.9089 10.1333 58.8555 10.2333 58.7489 10.32C58.5622 10.5267 58.3089 10.71 57.9889 10.87C57.6689 11.0233 57.3289 11.1 56.9689 11.1ZM60.2625 5.74C60.3425 5.74 60.4191 5.76333 60.4925 5.81C60.5658 5.85 60.6191 5.91 60.6525 5.99L62.3125 9.89L62.1525 9.97L63.8425 6C63.9158 5.82 64.0391 5.73333 64.2125 5.74C64.3125 5.74 64.3991 5.77333 64.4725 5.84C64.5458 5.90667 64.5825 5.99 64.5825 6.09C64.5825 6.13 64.5758 6.17 64.5625 6.21C64.5558 6.24333 64.5458 6.27333 64.5325 6.3L62.6025 10.74C62.5291 10.9067 62.4125 10.9933 62.2525 11C62.1658 11.0067 62.0825 10.99 62.0025 10.95C61.9291 10.9033 61.8758 10.8333 61.8425 10.74L59.9125 6.31C59.8991 6.28333 59.8858 6.25333 59.8725 6.22C59.8658 6.18667 59.8625 6.14667 59.8625 6.1C59.8625 6.01333 59.8958 5.93333 59.9625 5.86C60.0358 5.78 60.1358 5.74 60.2625 5.74ZM68.004 11.1C67.4707 11.1 67.004 10.9867 66.604 10.76C66.204 10.5333 65.8907 10.2233 65.664 9.83C65.444 9.43 65.334 8.97 65.334 8.45C65.334 7.87 65.4474 7.37667 65.674 6.97C65.9074 6.55667 66.2074 6.24333 66.574 6.03C66.9474 5.81 67.3407 5.7 67.754 5.7C68.0607 5.7 68.3574 5.75667 68.644 5.87C68.9307 5.98333 69.184 6.15 69.404 6.37C69.624 6.58333 69.8007 6.84333 69.934 7.15C70.0674 7.45 70.1374 7.78667 70.144 8.16C70.144 8.26667 70.104 8.35667 70.024 8.43C69.944 8.50333 69.8507 8.54 69.744 8.54H65.794L65.614 7.85H69.464L69.304 7.99V7.77C69.2774 7.49667 69.184 7.26333 69.024 7.07C68.8707 6.87 68.6807 6.71667 68.454 6.61C68.234 6.50333 68.0007 6.45 67.754 6.45C67.554 6.45 67.354 6.48667 67.154 6.56C66.9607 6.62667 66.784 6.74 66.624 6.9C66.4707 7.05333 66.344 7.25333 66.244 7.5C66.1507 7.74667 66.104 8.04333 66.104 8.39C66.104 8.77667 66.1807 9.11667 66.334 9.41C66.494 9.70333 66.714 9.93667 66.994 10.11C67.274 10.2767 67.6007 10.36 67.974 10.36C68.2074 10.36 68.4107 10.33 68.584 10.27C68.7574 10.21 68.9074 10.1367 69.034 10.05C69.1607 9.95667 69.2674 9.86333 69.354 9.77C69.4407 9.71 69.524 9.68 69.604 9.68C69.704 9.68 69.784 9.71333 69.844 9.78C69.9107 9.84667 69.944 9.92667 69.944 10.02C69.944 10.1333 69.8907 10.2333 69.784 10.32C69.5974 10.5267 69.344 10.71 69.024 10.87C68.704 11.0233 68.364 11.1 68.004 11.1ZM72.2264 10.59C72.2264 10.7033 72.1864 10.8 72.1064 10.88C72.0264 10.96 71.9298 11 71.8164 11C71.7031 11 71.6098 10.96 71.5364 10.88C71.4631 10.8 71.4264 10.7033 71.4264 10.59V4C71.4264 3.88667 71.4631 3.79333 71.5364 3.72C71.6164 3.64 71.7131 3.6 71.8264 3.6C71.9464 3.6 72.0431 3.64 72.1164 3.72C72.1898 3.79333 72.2264 3.88667 72.2264 4V10.59ZM78.5904 8.4C78.5904 8.92 78.4738 9.38333 78.2404 9.79C78.0138 10.1967 77.7038 10.5167 77.3104 10.75C76.9238 10.9833 76.4871 11.1 76.0004 11.1C75.5138 11.1 75.0738 10.9833 74.6804 10.75C74.2871 10.5167 73.9738 10.1967 73.7404 9.79C73.5138 9.38333 73.4004 8.92 73.4004 8.4C73.4004 7.88 73.5138 7.41667 73.7404 7.01C73.9738 6.60333 74.2871 6.28333 74.6804 6.05C75.0738 5.81667 75.5138 5.7 76.0004 5.7C76.4871 5.7 76.9238 5.81667 77.3104 6.05C77.7038 6.28333 78.0138 6.60333 78.2404 7.01C78.4738 7.41667 78.5904 7.88 78.5904 8.4ZM77.7904 8.4C77.7904 8.01333 77.7104 7.67333 77.5504 7.38C77.3971 7.08667 77.1838 6.85667 76.9104 6.69C76.6438 6.52333 76.3404 6.44 76.0004 6.44C75.6604 6.44 75.3538 6.52333 75.0804 6.69C74.8138 6.85667 74.6004 7.08667 74.4404 7.38C74.2804 7.67333 74.2004 8.01333 74.2004 8.4C74.2004 8.78 74.2804 9.11667 74.4404 9.41C74.6004 9.70333 74.8138 9.93667 75.0804 10.11C75.3538 10.2767 75.6604 10.36 76.0004 10.36C76.3404 10.36 76.6438 10.2767 76.9104 10.11C77.1838 9.93667 77.3971 9.70333 77.5504 9.41C77.7104 9.11667 77.7904 8.78 77.7904 8.4ZM82.3437 5.75C82.797 5.75 83.2037 5.86333 83.5637 6.09C83.9237 6.31667 84.207 6.63 84.4137 7.03C84.627 7.43 84.7337 7.89 84.7337 8.41C84.7337 8.92333 84.627 9.38333 84.4137 9.79C84.207 10.19 83.9237 10.5067 83.5637 10.74C83.2104 10.9667 82.8104 11.08 82.3637 11.08C82.117 11.08 81.8837 11.0433 81.6637 10.97C81.4504 10.89 81.2537 10.79 81.0737 10.67C80.9004 10.5433 80.7537 10.4033 80.6337 10.25C80.5137 10.09 80.427 9.93333 80.3737 9.78L80.5937 9.64V12.59C80.5937 12.7033 80.557 12.8 80.4837 12.88C80.4104 12.96 80.3137 13 80.1937 13C80.0804 13 79.9837 12.96 79.9037 12.88C79.8304 12.8067 79.7937 12.71 79.7937 12.59V6.2C79.7937 6.08667 79.8304 5.99333 79.9037 5.92C79.9837 5.84 80.0804 5.8 80.1937 5.8C80.3137 5.8 80.4104 5.84 80.4837 5.92C80.557 5.99333 80.5937 6.08667 80.5937 6.2V7.09L80.4437 7.01C80.4904 6.84333 80.5704 6.68333 80.6837 6.53C80.8037 6.37667 80.947 6.24333 81.1137 6.13C81.287 6.01 81.477 5.91667 81.6837 5.85C81.897 5.78333 82.117 5.75 82.3437 5.75ZM82.2537 6.49C81.9204 6.49 81.6237 6.57333 81.3637 6.74C81.1104 6.90667 80.9104 7.13333 80.7637 7.42C80.6237 7.70667 80.5537 8.03667 80.5537 8.41C80.5537 8.77667 80.6237 9.10667 80.7637 9.4C80.9104 9.69333 81.1104 9.92333 81.3637 10.09C81.6237 10.2567 81.9204 10.34 82.2537 10.34C82.587 10.34 82.8804 10.2567 83.1337 10.09C83.387 9.92333 83.587 9.69333 83.7337 9.4C83.8804 9.10667 83.9537 8.77667 83.9537 8.41C83.9537 8.03667 83.8804 7.70667 83.7337 7.42C83.587 7.13333 83.387 6.90667 83.1337 6.74C82.8804 6.57333 82.587 6.49 82.2537 6.49ZM88.4063 5.75C88.8596 5.75 89.2263 5.86667 89.5063 6.1C89.793 6.32667 89.983 6.65 90.0763 7.07H89.9263L89.9963 6.89C90.0763 6.70333 90.213 6.52333 90.4063 6.35C90.5996 6.17667 90.823 6.03333 91.0763 5.92C91.3296 5.80667 91.593 5.75 91.8663 5.75C92.3063 5.75 92.653 5.84667 92.9063 6.04C93.1596 6.22667 93.3396 6.48 93.4463 6.8C93.5596 7.11333 93.6163 7.46667 93.6163 7.86V10.59C93.6163 10.7033 93.5763 10.8 93.4963 10.88C93.423 10.96 93.3296 11 93.2163 11C93.0963 11 92.9996 10.96 92.9263 10.88C92.853 10.8 92.8163 10.7033 92.8163 10.59V7.88C92.8163 7.62 92.7763 7.38667 92.6963 7.18C92.623 6.96667 92.4996 6.8 92.3263 6.68C92.1596 6.55333 91.9296 6.49 91.6363 6.49C91.363 6.49 91.113 6.55333 90.8863 6.68C90.6596 6.8 90.4796 6.96667 90.3463 7.18C90.213 7.38667 90.1463 7.62 90.1463 7.88V10.59C90.1463 10.7033 90.1096 10.8 90.0363 10.88C89.963 10.96 89.8663 11 89.7463 11C89.633 11 89.5363 10.96 89.4563 10.88C89.383 10.8 89.3463 10.7033 89.3463 10.59V7.85C89.3463 7.59667 89.3096 7.37 89.2363 7.17C89.1696 6.96333 89.053 6.8 88.8863 6.68C88.7196 6.55333 88.4896 6.49 88.1963 6.49C87.9296 6.49 87.6863 6.55333 87.4663 6.68C87.2463 6.8 87.0696 6.96333 86.9363 7.17C86.803 7.37 86.7363 7.59667 86.7363 7.85V10.59C86.7363 10.7033 86.6963 10.8 86.6163 10.88C86.543 10.96 86.4496 11 86.3363 11C86.223 11 86.1263 10.96 86.0463 10.88C85.973 10.8 85.9363 10.7033 85.9363 10.59V6.23C85.9363 6.11667 85.973 6.02333 86.0463 5.95C86.1263 5.87 86.223 5.83 86.3363 5.83C86.4563 5.83 86.553 5.87 86.6263 5.95C86.6996 6.02333 86.7363 6.11667 86.7363 6.23V6.99L86.5163 7.23C86.543 7.05667 86.6096 6.88333 86.7163 6.71C86.8296 6.53667 86.973 6.37667 87.1463 6.23C87.3196 6.08333 87.513 5.96667 87.7263 5.88C87.9396 5.79333 88.1663 5.75 88.4063 5.75ZM97.4864 11.1C96.9531 11.1 96.4864 10.9867 96.0864 10.76C95.6864 10.5333 95.3731 10.2233 95.1464 9.83C94.9264 9.43 94.8164 8.97 94.8164 8.45C94.8164 7.87 94.9298 7.37667 95.1564 6.97C95.3898 6.55667 95.6898 6.24333 96.0564 6.03C96.4298 5.81 96.8231 5.7 97.2364 5.7C97.5431 5.7 97.8398 5.75667 98.1264 5.87C98.4131 5.98333 98.6664 6.15 98.8864 6.37C99.1064 6.58333 99.2831 6.84333 99.4164 7.15C99.5498 7.45 99.6198 7.78667 99.6264 8.16C99.6264 8.26667 99.5864 8.35667 99.5064 8.43C99.4264 8.50333 99.3331 8.54 99.2264 8.54H95.2764L95.0964 7.85H98.9464L98.7864 7.99V7.77C98.7598 7.49667 98.6664 7.26333 98.5064 7.07C98.3531 6.87 98.1631 6.71667 97.9364 6.61C97.7164 6.50333 97.4831 6.45 97.2364 6.45C97.0364 6.45 96.8364 6.48667 96.6364 6.56C96.4431 6.62667 96.2664 6.74 96.1064 6.9C95.9531 7.05333 95.8264 7.25333 95.7264 7.5C95.6331 7.74667 95.5864 8.04333 95.5864 8.39C95.5864 8.77667 95.6631 9.11667 95.8164 9.41C95.9764 9.70333 96.1964 9.93667 96.4764 10.11C96.7564 10.2767 97.0831 10.36 97.4564 10.36C97.6898 10.36 97.8931 10.33 98.0664 10.27C98.2398 10.21 98.3898 10.1367 98.5164 10.05C98.6431 9.95667 98.7498 9.86333 98.8364 9.77C98.9231 9.71 99.0064 9.68 99.0864 9.68C99.1864 9.68 99.2664 9.71333 99.3264 9.78C99.3931 9.84667 99.4264 9.92667 99.4264 10.02C99.4264 10.1333 99.3731 10.2333 99.2664 10.32C99.0798 10.5267 98.8264 10.71 98.5064 10.87C98.1864 11.0233 97.8464 11.1 97.4864 11.1ZM103.399 5.7C103.852 5.7 104.209 5.79333 104.469 5.98C104.729 6.16667 104.912 6.41667 105.019 6.73C105.132 7.04333 105.189 7.39333 105.189 7.78V10.59C105.189 10.7033 105.149 10.8 105.069 10.88C104.996 10.96 104.902 11 104.789 11C104.676 11 104.579 10.96 104.499 10.88C104.426 10.8 104.389 10.7033 104.389 10.59V7.8C104.389 7.54667 104.349 7.32 104.269 7.12C104.196 6.91333 104.069 6.75 103.889 6.63C103.716 6.50333 103.476 6.44 103.169 6.44C102.889 6.44 102.632 6.50333 102.399 6.63C102.166 6.75 101.979 6.91333 101.839 7.12C101.699 7.32 101.629 7.54667 101.629 7.8V10.59C101.629 10.7033 101.589 10.8 101.509 10.88C101.436 10.96 101.342 11 101.229 11C101.116 11 101.019 10.96 100.939 10.88C100.866 10.8 100.829 10.7033 100.829 10.59V6.23C100.829 6.11667 100.866 6.02333 100.939 5.95C101.019 5.87 101.116 5.83 101.229 5.83C101.349 5.83 101.446 5.87 101.519 5.95C101.592 6.02333 101.629 6.11667 101.629 6.23V6.94L101.429 7.16C101.462 6.98667 101.539 6.81333 101.659 6.64C101.779 6.46 101.929 6.3 102.109 6.16C102.289 6.02 102.489 5.91 102.709 5.83C102.929 5.74333 103.159 5.7 103.399 5.7ZM106.469 5.86H108.819C108.925 5.86 109.012 5.89667 109.079 5.97C109.152 6.04333 109.189 6.13 109.189 6.23C109.189 6.33667 109.152 6.42667 109.079 6.5C109.012 6.56667 108.925 6.6 108.819 6.6H106.469C106.369 6.6 106.282 6.56333 106.209 6.49C106.135 6.41667 106.099 6.32667 106.099 6.22C106.099 6.12 106.135 6.03667 106.209 5.97C106.282 5.89667 106.369 5.86 106.469 5.86ZM107.519 4.5C107.632 4.5 107.725 4.54 107.799 4.62C107.872 4.69333 107.909 4.78667 107.909 4.9V9.73C107.909 9.89 107.932 10.01 107.979 10.09C108.025 10.17 108.085 10.2267 108.159 10.26C108.239 10.2867 108.315 10.3 108.389 10.3C108.455 10.3 108.512 10.29 108.559 10.27C108.612 10.2433 108.672 10.23 108.739 10.23C108.805 10.23 108.865 10.2633 108.919 10.33C108.979 10.39 109.009 10.47 109.009 10.57C109.009 10.69 108.939 10.7933 108.799 10.88C108.659 10.96 108.502 11 108.329 11C108.235 11 108.119 10.9933 107.979 10.98C107.845 10.9667 107.712 10.9233 107.579 10.85C107.445 10.7767 107.332 10.6567 107.239 10.49C107.152 10.3167 107.109 10.0767 107.109 9.77V4.9C107.109 4.78667 107.149 4.69333 107.229 4.62C107.309 4.54 107.405 4.5 107.519 4.5Z" fill="black"/>
</svg>
