<svg width="103" height="14" viewBox="0 0 103 14" fill="none" xmlns="http://www.w3.org/2000/svg">
<rect width="103" height="14" rx="7" fill="#10FF2A"/>
<path d="M17.109 3.97C17.2157 3.97 17.3123 4.00667 17.399 4.08C17.4923 4.15333 17.539 4.25667 17.539 4.39C17.539 4.43667 17.5323 4.48667 17.519 4.54L15.389 10.74C15.3623 10.82 15.3123 10.8833 15.239 10.93C15.1723 10.97 15.1023 10.9933 15.029 11C14.949 11 14.8723 10.98 14.799 10.94C14.7257 10.8933 14.669 10.8267 14.629 10.74L12.959 6.7L13.039 6.73L11.379 10.74C11.339 10.8267 11.2823 10.8933 11.209 10.94C11.1357 10.98 11.059 11 10.979 11C10.9057 10.9933 10.8323 10.97 10.759 10.93C10.6923 10.8833 10.6457 10.82 10.619 10.74L8.48898 4.54C8.47565 4.48667 8.46898 4.44 8.46898 4.4C8.46898 4.26667 8.51565 4.16333 8.60898 4.09C8.70898 4.01 8.80898 3.97 8.90898 3.97C8.98898 3.97 9.06565 3.99333 9.13898 4.04C9.21232 4.08667 9.26232 4.15 9.28898 4.23L11.159 9.75H11.019L12.649 5.72C12.6823 5.64 12.7323 5.57667 12.799 5.53C12.8657 5.48333 12.9423 5.46 13.029 5.46C13.109 5.46 13.1823 5.48333 13.249 5.53C13.3223 5.57667 13.3723 5.64 13.399 5.72L14.979 9.69L14.859 9.74L16.719 4.23C16.7457 4.15 16.7957 4.08667 16.869 4.04C16.9423 3.99333 17.0223 3.97 17.109 3.97ZM23.3023 8.4C23.3023 8.92 23.1857 9.38333 22.9523 9.79C22.7257 10.1967 22.4157 10.5167 22.0223 10.75C21.6357 10.9833 21.199 11.1 20.7123 11.1C20.2257 11.1 19.7857 10.9833 19.3923 10.75C18.999 10.5167 18.6857 10.1967 18.4523 9.79C18.2257 9.38333 18.1123 8.92 18.1123 8.4C18.1123 7.88 18.2257 7.41667 18.4523 7.01C18.6857 6.60333 18.999 6.28333 19.3923 6.05C19.7857 5.81667 20.2257 5.7 20.7123 5.7C21.199 5.7 21.6357 5.81667 22.0223 6.05C22.4157 6.28333 22.7257 6.60333 22.9523 7.01C23.1857 7.41667 23.3023 7.88 23.3023 8.4ZM22.5023 8.4C22.5023 8.01333 22.4223 7.67333 22.2623 7.38C22.109 7.08667 21.8957 6.85667 21.6223 6.69C21.3557 6.52333 21.0523 6.44 20.7123 6.44C20.3723 6.44 20.0657 6.52333 19.7923 6.69C19.5257 6.85667 19.3123 7.08667 19.1523 7.38C18.9923 7.67333 18.9123 8.01333 18.9123 8.4C18.9123 8.78 18.9923 9.11667 19.1523 9.41C19.3123 9.70333 19.5257 9.93667 19.7923 10.11C20.0657 10.2767 20.3723 10.36 20.7123 10.36C21.0523 10.36 21.3557 10.2767 21.6223 10.11C21.8957 9.93667 22.109 9.70333 22.2623 9.41C22.4223 9.11667 22.5023 8.78 22.5023 8.4ZM24.9056 11C24.7923 11 24.6956 10.96 24.6156 10.88C24.5423 10.8 24.5056 10.7033 24.5056 10.59V6.23C24.5056 6.11667 24.5423 6.02333 24.6156 5.95C24.6956 5.87 24.7923 5.83 24.9056 5.83C25.0256 5.83 25.1223 5.87 25.1956 5.95C25.269 6.02333 25.3056 6.11667 25.3056 6.23V7.55L25.1856 7.34C25.2256 7.13333 25.2956 6.93333 25.3956 6.74C25.5023 6.54 25.6356 6.36333 25.7956 6.21C25.9556 6.05 26.139 5.92667 26.3456 5.84C26.5523 5.74667 26.779 5.7 27.0256 5.7C27.1723 5.7 27.3056 5.73667 27.4256 5.81C27.5523 5.87667 27.6156 5.97333 27.6156 6.1C27.6156 6.24 27.579 6.34333 27.5056 6.41C27.4323 6.47667 27.349 6.51 27.2556 6.51C27.169 6.51 27.0856 6.49333 27.0056 6.46C26.9256 6.42 26.8256 6.4 26.7056 6.4C26.539 6.4 26.3723 6.44667 26.2056 6.54C26.0456 6.62667 25.8956 6.75333 25.7556 6.92C25.6223 7.08667 25.5123 7.27667 25.4256 7.49C25.3456 7.69667 25.3056 7.92 25.3056 8.16V10.59C25.3056 10.7033 25.2656 10.8 25.1856 10.88C25.1123 10.96 25.019 11 24.9056 11ZM28.9993 11C28.8793 11 28.7826 10.96 28.7093 10.88C28.636 10.8 28.5993 10.7033 28.5993 10.59V4C28.5993 3.88667 28.636 3.79333 28.7093 3.72C28.7826 3.64 28.8793 3.6 28.9993 3.6C29.1126 3.6 29.206 3.64 29.2793 3.72C29.3593 3.79333 29.3993 3.88667 29.3993 4V10.59C29.3993 10.7033 29.3593 10.8 29.2793 10.88C29.206 10.96 29.1126 11 28.9993 11ZM32.3193 5.8C32.426 5.8 32.516 5.84333 32.5893 5.93C32.6693 6.01 32.7093 6.09333 32.7093 6.18C32.7093 6.29333 32.656 6.39333 32.5493 6.48L29.3093 9.31L29.2793 8.38L32.0393 5.92C32.1193 5.84 32.2126 5.8 32.3193 5.8ZM32.4293 10.99C32.316 10.99 32.216 10.9467 32.1293 10.86L29.9993 8.59L30.5993 8.04L32.7093 10.3C32.7893 10.3867 32.8293 10.4867 32.8293 10.6C32.8293 10.72 32.7826 10.8167 32.6893 10.89C32.596 10.9567 32.5093 10.99 32.4293 10.99ZM34.198 8.29C34.0847 8.29 33.988 8.25333 33.908 8.18C33.8347 8.1 33.798 8 33.798 7.88C33.798 7.76667 33.8347 7.67333 33.908 7.6C33.988 7.52667 34.0847 7.49 34.198 7.49H36.218C36.3314 7.49 36.4247 7.53 36.498 7.61C36.578 7.69 36.618 7.78667 36.618 7.9C36.618 8.01333 36.578 8.10667 36.498 8.18C36.4247 8.25333 36.3314 8.29 36.218 8.29H34.198ZM41.9041 10.21C42.0174 10.21 42.1141 10.25 42.1941 10.33C42.2741 10.4033 42.3141 10.4967 42.3141 10.61C42.3141 10.7233 42.2741 10.8167 42.1941 10.89C42.1141 10.9633 42.0174 11 41.9041 11H38.4441C38.3307 11 38.2341 10.96 38.1541 10.88C38.0807 10.8 38.0441 10.7033 38.0441 10.59V4.4C38.0441 4.28667 38.0841 4.19333 38.1641 4.12C38.2441 4.04 38.3441 4 38.4641 4C38.5774 4 38.6741 4.04 38.7541 4.12C38.8341 4.19333 38.8741 4.28667 38.8741 4.4V10.39L38.6741 10.21H41.9041ZM44.094 10.59C44.094 10.7033 44.054 10.8 43.974 10.88C43.9007 10.96 43.8073 11 43.694 11C43.574 11 43.4773 10.96 43.404 10.88C43.3307 10.8 43.294 10.7033 43.294 10.59V6.15C43.294 6.03667 43.3307 5.94333 43.404 5.87C43.484 5.79 43.5807 5.75 43.694 5.75C43.8073 5.75 43.9007 5.79 43.974 5.87C44.054 5.94333 44.094 6.03667 44.094 6.15V10.59ZM43.694 5.08C43.5273 5.08 43.404 5.04667 43.324 4.98C43.244 4.91333 43.204 4.81 43.204 4.67V4.53C43.204 4.39 43.2473 4.28667 43.334 4.22C43.4207 4.15333 43.544 4.12 43.704 4.12C43.864 4.12 43.984 4.15333 44.064 4.22C44.144 4.28667 44.184 4.39 44.184 4.53V4.67C44.184 4.81 44.1407 4.91333 44.054 4.98C43.974 5.04667 43.854 5.08 43.694 5.08ZM47.691 3.62C47.8043 3.62 47.921 3.63333 48.041 3.66C48.1677 3.68667 48.2743 3.73333 48.361 3.8C48.4543 3.86667 48.501 3.95667 48.501 4.07C48.501 4.17667 48.4677 4.26667 48.401 4.34C48.3343 4.40667 48.2543 4.44 48.161 4.44C48.101 4.44 48.0177 4.42333 47.911 4.39C47.8043 4.35 47.6943 4.33 47.581 4.33C47.4277 4.33 47.301 4.36333 47.201 4.43C47.1077 4.49667 47.0377 4.58667 46.991 4.7C46.951 4.80667 46.931 4.92667 46.931 5.06V10.59C46.931 10.7033 46.891 10.8 46.811 10.88C46.7377 10.96 46.6443 11 46.531 11C46.411 11 46.3143 10.96 46.241 10.88C46.1677 10.8 46.131 10.7033 46.131 10.59V5.07C46.131 4.62333 46.2677 4.27 46.541 4.01C46.821 3.75 47.2043 3.62 47.691 3.62ZM47.971 5.91C48.0777 5.91 48.1677 5.94667 48.241 6.02C48.3143 6.08667 48.351 6.17333 48.351 6.28C48.351 6.38667 48.3143 6.47667 48.241 6.55C48.1677 6.61667 48.0777 6.65 47.971 6.65H45.461C45.3543 6.65 45.2643 6.61333 45.191 6.54C45.1177 6.46667 45.081 6.38 45.081 6.28C45.081 6.16667 45.1177 6.07667 45.191 6.01C45.2643 5.94333 45.3543 5.91 45.461 5.91H47.971ZM51.4269 11.1C50.8935 11.1 50.4269 10.9867 50.0269 10.76C49.6269 10.5333 49.3135 10.2233 49.0869 9.83C48.8669 9.43 48.7569 8.97 48.7569 8.45C48.7569 7.87 48.8702 7.37667 49.0969 6.97C49.3302 6.55667 49.6302 6.24333 49.9969 6.03C50.3702 5.81 50.7635 5.7 51.1769 5.7C51.4835 5.7 51.7802 5.75667 52.0669 5.87C52.3535 5.98333 52.6069 6.15 52.8269 6.37C53.0469 6.58333 53.2235 6.84333 53.3569 7.15C53.4902 7.45 53.5602 7.78667 53.5669 8.16C53.5669 8.26667 53.5269 8.35667 53.4469 8.43C53.3669 8.50333 53.2735 8.54 53.1669 8.54H49.2169L49.0369 7.85H52.8869L52.7269 7.99V7.77C52.7002 7.49667 52.6069 7.26333 52.4469 7.07C52.2935 6.87 52.1035 6.71667 51.8769 6.61C51.6569 6.50333 51.4235 6.45 51.1769 6.45C50.9769 6.45 50.7769 6.48667 50.5769 6.56C50.3835 6.62667 50.2069 6.74 50.0469 6.9C49.8935 7.05333 49.7669 7.25333 49.6669 7.5C49.5735 7.74667 49.5269 8.04333 49.5269 8.39C49.5269 8.77667 49.6035 9.11667 49.7569 9.41C49.9169 9.70333 50.1369 9.93667 50.4169 10.11C50.6969 10.2767 51.0235 10.36 51.3969 10.36C51.6302 10.36 51.8335 10.33 52.0069 10.27C52.1802 10.21 52.3302 10.1367 52.4569 10.05C52.5835 9.95667 52.6902 9.86333 52.7769 9.77C52.8635 9.71 52.9469 9.68 53.0269 9.68C53.1269 9.68 53.2069 9.71333 53.2669 9.78C53.3335 9.84667 53.3669 9.92667 53.3669 10.02C53.3669 10.1333 53.3135 10.2333 53.2069 10.32C53.0202 10.5267 52.7669 10.71 52.4469 10.87C52.1269 11.0233 51.7869 11.1 51.4269 11.1ZM60.6732 4C61.2599 4 61.7099 4.15333 62.0232 4.46C62.3432 4.76 62.5032 5.18667 62.5032 5.74C62.5032 6.03333 62.4365 6.30333 62.3032 6.55C62.1699 6.79667 61.9732 6.99333 61.7132 7.14C61.4599 7.28667 61.1465 7.36667 60.7732 7.38L60.7532 7.1C60.9865 7.1 61.2265 7.13333 61.4732 7.2C61.7199 7.26667 61.9465 7.37333 62.1532 7.52C62.3665 7.66667 62.5365 7.86 62.6632 8.1C62.7965 8.34 62.8632 8.63667 62.8632 8.99C62.8632 9.37 62.7999 9.69 62.6732 9.95C62.5465 10.2033 62.3765 10.41 62.1632 10.57C61.9565 10.7233 61.7232 10.8333 61.4632 10.9C61.2099 10.9667 60.9532 11 60.6932 11H58.0632C57.9499 11 57.8532 10.96 57.7732 10.88C57.6999 10.8 57.6632 10.7033 57.6632 10.59V4.4C57.6632 4.28667 57.6999 4.19333 57.7732 4.12C57.8532 4.04 57.9499 4 58.0632 4H60.6732ZM60.5532 4.79H58.4032L58.5232 4.61V7.1L58.4132 6.97H60.5732C60.8665 6.97 61.1165 6.87667 61.3232 6.69C61.5365 6.49667 61.6432 6.21333 61.6432 5.84C61.6432 5.50667 61.5465 5.25 61.3532 5.07C61.1599 4.88333 60.8932 4.79 60.5532 4.79ZM60.6332 7.77H58.4532L58.5232 7.7V10.31L58.4432 10.22H60.6632C61.0565 10.22 61.3765 10.12 61.6232 9.92C61.8765 9.72 62.0032 9.41 62.0032 8.99C62.0032 8.66333 61.9365 8.41333 61.8032 8.24C61.6699 8.06 61.4965 7.93667 61.2832 7.87C61.0765 7.80333 60.8599 7.77 60.6332 7.77ZM68.3164 5.78C68.4297 5.78 68.5231 5.82 68.5964 5.9C68.6764 5.97333 68.7164 6.06667 68.7164 6.18V10.59C68.7164 10.7033 68.6764 10.8 68.5964 10.88C68.5231 10.96 68.4297 11 68.3164 11C68.1964 11 68.0997 10.96 68.0264 10.88C67.9531 10.8 67.9164 10.7033 67.9164 10.59V9.64L68.1064 9.62C68.1064 9.76667 68.0564 9.92667 67.9564 10.1C67.8564 10.2733 67.7197 10.4367 67.5464 10.59C67.3731 10.7367 67.1664 10.86 66.9264 10.96C66.6931 11.0533 66.4397 11.1 66.1664 11.1C65.7131 11.1 65.3064 10.9833 64.9464 10.75C64.5864 10.51 64.2997 10.1867 64.0864 9.78C63.8797 9.37333 63.7764 8.91 63.7764 8.39C63.7764 7.86333 63.8797 7.4 64.0864 7C64.2997 6.59333 64.5864 6.27667 64.9464 6.05C65.3064 5.81667 65.7064 5.7 66.1464 5.7C66.4331 5.7 66.6997 5.74667 66.9464 5.84C67.1931 5.93333 67.4064 6.06 67.5864 6.22C67.7731 6.38 67.9164 6.55667 68.0164 6.75C68.1231 6.94333 68.1764 7.13667 68.1764 7.33L67.9164 7.27V6.18C67.9164 6.06667 67.9531 5.97333 68.0264 5.9C68.0997 5.82 68.1964 5.78 68.3164 5.78ZM66.2564 10.36C66.5897 10.36 66.8831 10.2733 67.1364 10.1C67.3964 9.92667 67.5964 9.69333 67.7364 9.4C67.8831 9.1 67.9564 8.76333 67.9564 8.39C67.9564 8.02333 67.8831 7.69333 67.7364 7.4C67.5964 7.1 67.3964 6.86667 67.1364 6.7C66.8831 6.52667 66.5897 6.44 66.2564 6.44C65.9297 6.44 65.6364 6.52333 65.3764 6.69C65.1231 6.85667 64.9231 7.08667 64.7764 7.38C64.6297 7.67333 64.5564 8.01 64.5564 8.39C64.5564 8.76333 64.6264 9.1 64.7664 9.4C64.9131 9.69333 65.1131 9.92667 65.3664 10.1C65.6264 10.2733 65.9231 10.36 66.2564 10.36ZM71.079 10.59C71.079 10.7033 71.039 10.8 70.959 10.88C70.879 10.96 70.7823 11 70.669 11C70.5557 11 70.4623 10.96 70.389 10.88C70.3157 10.8 70.279 10.7033 70.279 10.59V4C70.279 3.88667 70.3157 3.79333 70.389 3.72C70.469 3.64 70.5657 3.6 70.679 3.6C70.799 3.6 70.8957 3.64 70.969 3.72C71.0423 3.79333 71.079 3.88667 71.079 4V10.59ZM76.8906 5.78C77.004 5.78 77.0973 5.82 77.1706 5.9C77.2506 5.97333 77.2906 6.06667 77.2906 6.18V10.59C77.2906 10.7033 77.2506 10.8 77.1706 10.88C77.0973 10.96 77.004 11 76.8906 11C76.7706 11 76.674 10.96 76.6006 10.88C76.5273 10.8 76.4906 10.7033 76.4906 10.59V9.64L76.6806 9.62C76.6806 9.76667 76.6306 9.92667 76.5306 10.1C76.4306 10.2733 76.294 10.4367 76.1206 10.59C75.9473 10.7367 75.7406 10.86 75.5006 10.96C75.2673 11.0533 75.014 11.1 74.7406 11.1C74.2873 11.1 73.8806 10.9833 73.5206 10.75C73.1606 10.51 72.874 10.1867 72.6606 9.78C72.454 9.37333 72.3506 8.91 72.3506 8.39C72.3506 7.86333 72.454 7.4 72.6606 7C72.874 6.59333 73.1606 6.27667 73.5206 6.05C73.8806 5.81667 74.2806 5.7 74.7206 5.7C75.0073 5.7 75.274 5.74667 75.5206 5.84C75.7673 5.93333 75.9806 6.06 76.1606 6.22C76.3473 6.38 76.4906 6.55667 76.5906 6.75C76.6973 6.94333 76.7506 7.13667 76.7506 7.33L76.4906 7.27V6.18C76.4906 6.06667 76.5273 5.97333 76.6006 5.9C76.674 5.82 76.7706 5.78 76.8906 5.78ZM74.8306 10.36C75.164 10.36 75.4573 10.2733 75.7106 10.1C75.9706 9.92667 76.1706 9.69333 76.3106 9.4C76.4573 9.1 76.5306 8.76333 76.5306 8.39C76.5306 8.02333 76.4573 7.69333 76.3106 7.4C76.1706 7.1 75.9706 6.86667 75.7106 6.7C75.4573 6.52667 75.164 6.44 74.8306 6.44C74.504 6.44 74.2106 6.52333 73.9506 6.69C73.6973 6.85667 73.4973 7.08667 73.3506 7.38C73.204 7.67333 73.1306 8.01 73.1306 8.39C73.1306 8.76333 73.2006 9.1 73.3406 9.4C73.4873 9.69333 73.6873 9.92667 73.9406 10.1C74.2006 10.2733 74.4973 10.36 74.8306 10.36ZM81.3432 5.7C81.7965 5.7 82.1532 5.79333 82.4132 5.98C82.6732 6.16667 82.8565 6.41667 82.9632 6.73C83.0765 7.04333 83.1332 7.39333 83.1332 7.78V10.59C83.1332 10.7033 83.0932 10.8 83.0132 10.88C82.9399 10.96 82.8465 11 82.7332 11C82.6199 11 82.5232 10.96 82.4432 10.88C82.3699 10.8 82.3332 10.7033 82.3332 10.59V7.8C82.3332 7.54667 82.2932 7.32 82.2132 7.12C82.1399 6.91333 82.0132 6.75 81.8332 6.63C81.6599 6.50333 81.4199 6.44 81.1132 6.44C80.8332 6.44 80.5765 6.50333 80.3432 6.63C80.1099 6.75 79.9232 6.91333 79.7832 7.12C79.6432 7.32 79.5732 7.54667 79.5732 7.8V10.59C79.5732 10.7033 79.5332 10.8 79.4532 10.88C79.3799 10.96 79.2865 11 79.1732 11C79.0599 11 78.9632 10.96 78.8832 10.88C78.8099 10.8 78.7732 10.7033 78.7732 10.59V6.23C78.7732 6.11667 78.8099 6.02333 78.8832 5.95C78.9632 5.87 79.0599 5.83 79.1732 5.83C79.2932 5.83 79.3899 5.87 79.4632 5.95C79.5365 6.02333 79.5732 6.11667 79.5732 6.23V6.94L79.3732 7.16C79.4065 6.98667 79.4832 6.81333 79.6032 6.64C79.7232 6.46 79.8732 6.3 80.0532 6.16C80.2332 6.02 80.4332 5.91 80.6532 5.83C80.8732 5.74333 81.1032 5.7 81.3432 5.7ZM86.913 5.7C87.253 5.7 87.5597 5.73667 87.833 5.81C88.1064 5.88333 88.323 5.98333 88.483 6.11C88.643 6.23667 88.723 6.38 88.723 6.54C88.723 6.62667 88.693 6.71 88.633 6.79C88.573 6.87 88.493 6.91 88.393 6.91C88.2997 6.91 88.223 6.89333 88.163 6.86C88.1097 6.82667 88.0564 6.78333 88.003 6.73C87.9564 6.67667 87.8897 6.63 87.803 6.59C87.723 6.54333 87.6064 6.50667 87.453 6.48C87.2997 6.45333 87.1464 6.44 86.993 6.44C86.6264 6.44 86.303 6.52667 86.023 6.7C85.7497 6.87333 85.533 7.10667 85.373 7.4C85.213 7.69333 85.133 8.02667 85.133 8.4C85.133 8.77333 85.2097 9.10667 85.363 9.4C85.5164 9.69333 85.7297 9.92667 86.003 10.1C86.2764 10.2733 86.593 10.36 86.953 10.36C87.1864 10.36 87.373 10.34 87.513 10.3C87.653 10.26 87.7697 10.2133 87.863 10.16C87.983 10.0933 88.073 10.0267 88.133 9.96C88.1997 9.89333 88.2864 9.86 88.393 9.86C88.5064 9.86 88.593 9.89667 88.653 9.97C88.7197 10.0433 88.753 10.1333 88.753 10.24C88.753 10.36 88.6697 10.4867 88.503 10.62C88.3364 10.7533 88.1097 10.8667 87.823 10.96C87.543 11.0533 87.223 11.1 86.863 11.1C86.3564 11.1 85.913 10.9833 85.533 10.75C85.153 10.51 84.8564 10.1867 84.643 9.78C84.4364 9.36667 84.333 8.90667 84.333 8.4C84.333 7.89333 84.4397 7.43667 84.653 7.03C84.873 6.62333 85.1764 6.3 85.563 6.06C85.9497 5.82 86.3997 5.7 86.913 5.7ZM92.1886 11.1C91.6553 11.1 91.1886 10.9867 90.7886 10.76C90.3886 10.5333 90.0753 10.2233 89.8486 9.83C89.6286 9.43 89.5186 8.97 89.5186 8.45C89.5186 7.87 89.6319 7.37667 89.8586 6.97C90.0919 6.55667 90.3919 6.24333 90.7586 6.03C91.1319 5.81 91.5253 5.7 91.9386 5.7C92.2453 5.7 92.5419 5.75667 92.8286 5.87C93.1153 5.98333 93.3686 6.15 93.5886 6.37C93.8086 6.58333 93.9853 6.84333 94.1186 7.15C94.2519 7.45 94.3219 7.78667 94.3286 8.16C94.3286 8.26667 94.2886 8.35667 94.2086 8.43C94.1286 8.50333 94.0353 8.54 93.9286 8.54H89.9786L89.7986 7.85H93.6486L93.4886 7.99V7.77C93.4619 7.49667 93.3686 7.26333 93.2086 7.07C93.0553 6.87 92.8653 6.71667 92.6386 6.61C92.4186 6.50333 92.1853 6.45 91.9386 6.45C91.7386 6.45 91.5386 6.48667 91.3386 6.56C91.1453 6.62667 90.9686 6.74 90.8086 6.9C90.6553 7.05333 90.5286 7.25333 90.4286 7.5C90.3353 7.74667 90.2886 8.04333 90.2886 8.39C90.2886 8.77667 90.3653 9.11667 90.5186 9.41C90.6786 9.70333 90.8986 9.93667 91.1786 10.11C91.4586 10.2767 91.7853 10.36 92.1586 10.36C92.3919 10.36 92.5953 10.33 92.7686 10.27C92.9419 10.21 93.0919 10.1367 93.2186 10.05C93.3453 9.95667 93.4519 9.86333 93.5386 9.77C93.6253 9.71 93.7086 9.68 93.7886 9.68C93.8886 9.68 93.9686 9.71333 94.0286 9.78C94.0953 9.84667 94.1286 9.92667 94.1286 10.02C94.1286 10.1333 94.0753 10.2333 93.9686 10.32C93.7819 10.5267 93.5286 10.71 93.2086 10.87C92.8886 11.0233 92.5486 11.1 92.1886 11.1Z" fill="black"/>
</svg>
